<svg xmlns="http://www.w3.org/2000/svg" width="245.716" height="167.088" viewBox="0 0 245.716 167.088"><g transform="translate(3418.776 2208.886)"><path d="M233.865,132.946a2.082,2.082,0,0,0,.483.083h.2a.305.305,0,0,0,.134.089h.064l.032-.057a.165.165,0,0,0-.045-.191.267.267,0,0,0-.286-.083l-.076.038a1.508,1.508,0,0,0-.731-.083l-.433.076.433.076Z" transform="translate(-3539.823 -2328.799)" fill="#fff"/><path d="M236.153,134.675h.146a.636.636,0,0,0,.223-.051h.127a.3.3,0,0,0,.254-.159l.038-.1h-.662a3.908,3.908,0,0,0-.553-.038h0a.191.191,0,0,0-.223.089l-.045.1h.108a1.936,1.936,0,0,1,.464.038h.273a.286.286,0,0,0-.064.115Z" transform="translate(-3540.641 -2329.377)" fill="#fff"/><path d="M271.556,138.7h-.127v.051a2.4,2.4,0,0,0,.153,1.2,1.056,1.056,0,0,0,.267.445l.178.146-.064-.286c-.1-.5-.21-1.011-.356-1.482A.108.108,0,0,0,271.556,138.7Z" transform="translate(-3553.724 -2330.972)" fill="#fff"/><path d="M272.1,139h0a1.806,1.806,0,0,0,.248,1.139l.153.2v-.363a6.224,6.224,0,0,0-.159-1.24l-.057-.229-.089.216a.709.709,0,0,0-.038.146.544.544,0,0,1-.057.134Z" transform="translate(-3553.972 -2330.899)" fill="#fff"/><path d="M273.047,140.306v-.642a2.137,2.137,0,0,0-.044-.712l-.057-.191-.089.178a1.361,1.361,0,0,0,.057,1.2Z" transform="translate(-3554.21 -2330.993)" fill="#fff"/><path d="M273.593,140.142a.146.146,0,0,0,.057.038h.045a2.628,2.628,0,0,0,1.043-.534l.134-.127h-.184a1.463,1.463,0,0,0-.808.261l-.083.057a1.271,1.271,0,0,0,.14-.343v-.038a.108.108,0,0,0-.127-.076h-.038v.045h-.076a.861.861,0,0,1-.07.089,1.024,1.024,0,0,0-.254.636v.121l.114-.051A.458.458,0,0,0,273.593,140.142Z" transform="translate(-3554.438 -2331.218)" fill="#fff"/><path d="M226.406,150.082l-.216-.172.1.261a1.857,1.857,0,0,0,.242.407l.1.14.108.178a1.775,1.775,0,0,0,.254.375l.178.178-.044-.248A1.7,1.7,0,0,0,226.406,150.082Z" transform="translate(-3537.268 -2335.051)" fill="#fff"/><path d="M225.956,151.542V151.5l-.064-.057a1.323,1.323,0,0,0-.77-.356h-.032a.1.1,0,0,0-.1.089v.038h0a2.844,2.844,0,0,0,.407.293,2.178,2.178,0,0,0-.318-.038h-.146a1.215,1.215,0,0,0-.706.191l-.1.1.134.038a1.863,1.863,0,0,0,.477.051h.394a.917.917,0,0,1,.2-.032.554.554,0,0,0,.356-.114l.038-.045.165.064.1.032v-.083a.172.172,0,0,0-.051-.134Z" transform="translate(-3536.519 -2335.481)" fill="#fff"/><path d="M272.283,168.48h0a.319.319,0,0,1,.076-.089.324.324,0,0,0,.178-.42v-.051h-.146l-.114.108a2.046,2.046,0,0,0-.458.528l-.089.153.172-.038a.713.713,0,0,0,.261-.127A.851.851,0,0,1,272.283,168.48Z" transform="translate(-3553.841 -2341.605)" fill="#fff"/><path d="M231.164,168.57h-.2v.1a1.686,1.686,0,0,0,.706.91l.248.172-.127-.274A4.052,4.052,0,0,0,231.164,168.57Z" transform="translate(-3539.004 -2341.842)" fill="#fff"/><path d="M230.847,168.851l-.127-.261v.293a.375.375,0,0,1,0,.083.873.873,0,0,1,0,.121l-.038.032a.128.128,0,0,0,0,.064,3.124,3.124,0,0,0-.223,1.018v.108h0a.16.16,0,0,0,0,.044.126.126,0,0,0,.064,0h.076v-.044c.051-.21.1-.433.14-.636V169.6a.362.362,0,0,0,.146.191l.121.07v-.14A1.908,1.908,0,0,0,230.847,168.851Z" transform="translate(-3538.821 -2341.849)" fill="#fff"/><path d="M272.92,169.116c0-.051,0-.165-.121-.184h0a.324.324,0,0,0,.032-.184v-.159h-.051a.1.1,0,0,0-.057-.038h-.051l-.032.045-.076.114a4.1,4.1,0,0,0-.261.433l-.083.172.184-.064a.6.6,0,0,0,.305-.191,1.147,1.147,0,0,1,0,.267.928.928,0,0,0,.051.382l.07.153a.378.378,0,0,1,0,.089,2.783,2.783,0,0,0,.1.49l.2.56-.051-.592A9.012,9.012,0,0,0,272.92,169.116Z" transform="translate(-3554.019 -2341.834)" fill="#fff"/><path d="M252.4,173.165h0a.127.127,0,0,0-.089,0,.121.121,0,0,0-.064.064v.045a.908.908,0,0,0,0,.14h0v.038a1.558,1.558,0,0,0,.051,1.164l.1.146.038-.172a2.76,2.76,0,0,0,.038-.8,1.082,1.082,0,0,0,.28.254l.165.1-.051-.184a1.577,1.577,0,0,0-.471-.789Z" transform="translate(-3546.719 -2343.511)" fill="#fff"/><path d="M257.228,142.157a.28.28,0,0,0-.14.064.6.6,0,0,0,0-.28l-.051-.153-.089.134-.038.051-.051.07a1.838,1.838,0,0,0-.146-.687l-.089-.2-.057.21a.374.374,0,0,0,0,.083,1.635,1.635,0,0,0-.153-.407l-.121-.235v.261a1.679,1.679,0,0,0,0,.172,3.178,3.178,0,0,0-.261-.553l-.178-.312.032.356a2.949,2.949,0,0,0,.07.413.786.786,0,0,0-.064-.127l-.064-.14h0a.5.5,0,0,1-.051-.1c-.038-.076-.089-.2-.191-.159h-.064a1.615,1.615,0,0,1-.1-.178l-.178-.324.032.369h0c-.089-.165-.184-.331-.286-.509l-.191-.312.038.312-.083-.114-.254-.312.121.382a.993.993,0,0,0,.045.146l-.172-.178.083.293-.146-.242-.3-.483.159.547a.688.688,0,0,0,.032.108l-.038-.051-.235-.305.1.369v.07c-.044-.064-.083-.134-.127-.191l-.172-.261v.242h0a.906.906,0,0,0-.076-.134.67.67,0,0,1-.083-.165h0a.719.719,0,0,1-.1-.134.406.406,0,0,1-.038-.064.1.1,0,0,0-.089-.1c-.089-.006-.064,0-.089.07v.032h0l.127.28-.038-.057a.122.122,0,0,0-.114-.108.1.1,0,0,0-.083.076h0l.07.159c.057.114.108.235.159.356l-.216-.375h0a.112.112,0,0,0-.115-.1.083.083,0,0,0-.083.07h0l.153.35-.1-.159-.375-.585.235.636c.051.146.108.3.165.439h0v-.045c-.051-.089-.108-.191-.146-.248l-.1-.178c-.051-.089-.1-.165-.146-.242l-.369-.49.229.566c.07.172.14.343.216.515l-.076-.127a1.16,1.16,0,0,0-.153-.223l-.3-.318.172.4c.108.267.223.547.344.814-.134-.248-.273-.483-.413-.7l-.375-.579.235.636c.064.178.14.356.21.528l-.064-.1a.548.548,0,0,1-.064-.1l-.1-.178a3.322,3.322,0,0,0-.153-.3l-.038-.051c-.083-.14-.165-.273-.261-.407a.107.107,0,0,0,0-.032.223.223,0,0,0-.057-.1.153.153,0,0,0-.038-.057.12.12,0,0,0,0-.057.089.089,0,0,0-.165.064h0a.259.259,0,0,1,.032.057h0c.127.223.235.458.344.687v.121c-.089-.159-.184-.318-.28-.471l-.375-.592.235.636a4.814,4.814,0,0,0,.216.515l.134.286a1.975,1.975,0,0,1-.108-.184l-.044-.1a.834.834,0,0,0-.134-.229.639.639,0,0,1-.064-.108.158.158,0,0,1,0-.045h0a2.309,2.309,0,0,0-.223-.331l-.382-.471.248.547c.121.261.248.547.388.827v-.038h-.032a.43.43,0,0,0,0-.064.24.24,0,0,0-.038-.083.229.229,0,0,0-.044-.064l-.038-.044-.07-.121-.07-.127h0c-.045-.089-.1-.121-.165-.1h-.076l.083.184c.038.076.07.159.108.235-.045-.083-.1-.159-.146-.235a.3.3,0,0,1,0-.064c-.051-.1-.083-.165-.146-.178h-.051l-.083.064.038.057c.045.083.083.178.127.267a.844.844,0,0,1,.051.121,1.276,1.276,0,0,0,.07.127.761.761,0,0,0,.051.1h0c-.1-.178-.223-.4-.312-.547l-.044-.038v-.064a.153.153,0,0,0-.184-.14l-.108.038.064.089a1.526,1.526,0,0,1,.146.267,1.313,1.313,0,0,0,.134.267h0a1.113,1.113,0,0,0-.343-.013.292.292,0,0,0-.07-.114v-.07a.146.146,0,0,0-.089-.108.1.1,0,0,0-.089,0l-.064.045.038.064c.057.1.108.21.165.331h-.057a.557.557,0,0,0-.045-.064h0l-.076-.1-.057.108h0a4.414,4.414,0,0,0-.916-.108l-.038-.038-.051-.051-.076-.057-.045.083a.082.082,0,0,0,0,.038h-.229s-.051-.064-.1-.051a.083.083,0,0,0-.07.051h-.038a.2.2,0,0,1-.089,0l-.108-.1v.121h0a5.623,5.623,0,0,0-1.1.146l-.344.07a.1.1,0,0,0-.1-.07.089.089,0,0,0-.083.064l-.1-.286a3.238,3.238,0,0,0-.146-.356,2.747,2.747,0,0,0,.248.293l.223.235-.1-.312a1.746,1.746,0,0,0-.089-.254l.115.14h.032a.114.114,0,0,0,.1.076h0a.1.1,0,0,0,.089-.057v-.07l-.089-.191.153.159.223.21-.1-.293a.472.472,0,0,0-.064-.172,1.143,1.143,0,0,0,.121.127l.242.242-.115-.324-.07-.191a.354.354,0,0,0,0,.051v.038h0s.045.076.1.076a.083.083,0,0,0,.083-.045v-.083c-.057-.114-.115-.242-.165-.363l.032.032a.826.826,0,0,0,.064.1l.038.051h0c0,.038.057.089.114.1a.115.115,0,0,0,.089-.038l.045-.051-.045-.051a.432.432,0,0,1-.057-.108l.127.134.267.254-.184-.445h0l.261.293-.07-.305a2.545,2.545,0,0,0-.1-.286l.038.045.038.051c.032.051.083.14.184.121h.1l-.051-.089a2.127,2.127,0,0,1-.108-.242,1.062,1.062,0,0,0,.2.216l.2.165-.07-.248a1.187,1.187,0,0,0-.064-.159,1.025,1.025,0,0,0,.121.115l.184.159-.057-.235a2.239,2.239,0,0,0-.127-.331,2.331,2.331,0,0,1-.115-.293h0a2.6,2.6,0,0,0,.388.541l.2.2-.064-.274a1,1,0,0,0-.089-.242,1.371,1.371,0,0,1-.064-.172h0a1.13,1.13,0,0,0,.2.254l.083.089.248.3-.114-.369a.67.67,0,0,0-.083-.223c-.025-.07-.045-.108-.064-.159h0a1.41,1.41,0,0,0,.248.305l.2.172-.07-.254a1.908,1.908,0,0,0-.089-.229,1.158,1.158,0,0,1-.089-.248,2.053,2.053,0,0,0,.318.413l.21.2-.083-.286c0-.064-.045-.114-.064-.172l-.038-.1a.051.051,0,0,1,0-.032v.032a1.509,1.509,0,0,0,.216.235l.229.184-.1-.274-.076-.2-.038-.121a.115.115,0,0,0,.045-.051h0a.2.2,0,0,1,.057.076v.045h.051a.135.135,0,0,1,0,.045.165.165,0,0,0,.108.089.076.076,0,0,0,.083,0l.051-.038L250.25,138a1.443,1.443,0,0,1-.146-.375h0a.924.924,0,0,0,.064.083l.038.045a.1.1,0,0,0,0,.089.083.083,0,0,0,.083.051h0a.159.159,0,0,0,.114.1.108.108,0,0,0,.089-.038l.057-.064-.07-.051a.215.215,0,0,1,0-.051v-.038h0l.064-.07a.982.982,0,0,0,.121.146l.172.2-.038-.254a.77.77,0,0,0-.064-.2.192.192,0,0,1,0-.064h0a.229.229,0,0,1,.051-.057l.044.051.032.038a.12.12,0,0,0,0,.083.1.1,0,0,0,.089.089h.146l.2.153-.089-.248c0-.045,0-.076.1-.14h0a.216.216,0,0,0,.089.076l.127.045h0l.038.051.064-.07a.819.819,0,0,1,.134-.121.968.968,0,0,0,.165-.159.6.6,0,0,0,.146-.1c.07-.064.108-.1.159-.089h.07a.464.464,0,0,0,.1.375l.032.032h.038a.248.248,0,0,0,.2-.184c.038.038.076.064.115.1a1,1,0,0,1,.178.146h0a.478.478,0,0,1,.146.1.4.4,0,0,0,.248.121h.153l-.108-.108-.076-.07a.728.728,0,0,1-.121-.121h-.032a.369.369,0,0,1-.115-.07.382.382,0,0,0-.134-.089h-.051a.446.446,0,0,0-.274-.1h0a.261.261,0,0,0-.261-.146h.045c-.051-.172-.127-.356-.191-.522l-.064-.14L252,136.1l.115.242c.051.1.1.2.146.312h0a.988.988,0,0,1,.121.153.992.992,0,0,0,.146.178l.242.229-.21-.566-.1-.261a2.6,2.6,0,0,0,.305.433l.2.2-.064-.274a.5.5,0,0,0-.038-.14l.115.127.21.2-.076-.28c-.038-.121-.076-.248-.121-.369a1.805,1.805,0,0,0,.235.3l.235.254-.108-.331a.974.974,0,0,0-.1-.28h0a.2.2,0,0,0,.07.083c0,.051.07.121.134.134h0a.108.108,0,0,0,.083-.045l.07-.108h-.1l-.089-.248a.64.64,0,0,0,.083.1c0,.064.1.165.178.184h0a.089.089,0,0,0,.076-.038l.032-.038v-.045a1.953,1.953,0,0,1-.083-.2,2.387,2.387,0,0,0,.165.21l.242.261-.108-.337a.614.614,0,0,0-.07-.2,2.026,2.026,0,0,0,.14.172l.254.267-.248-.719-.057-.159a1.692,1.692,0,0,0,.344.471l.242.216-.115-.305-.134-.375v-.064a.349.349,0,0,0,.076.121.452.452,0,0,0,.165.21.127.127,0,0,0,.057.057h.1a.114.114,0,0,0,0-.127c-.083-.2-.165-.433-.242-.636s-.178-.5-.274-.712a.123.123,0,0,1,0-.045.388.388,0,0,0-.115-.178l-.127-.089v.439a1.014,1.014,0,0,1,.032.134c-.051-.146-.108-.286-.165-.42a.127.127,0,0,0-.083-.089l-.134-.064v.146a1.274,1.274,0,0,1,0,.312h0l.038.159c-.076-.216-.153-.426-.235-.636a.115.115,0,0,0-.038-.064h-.14v.057a1.28,1.28,0,0,0,0,.159.756.756,0,0,0-.114-.21l-.134-.153v.21a1.143,1.143,0,0,0,0,.153,1.133,1.133,0,0,1,0,.153.121.121,0,0,0-.032-.083.14.14,0,0,0-.038-.064h-.14v.064a2.414,2.414,0,0,0,0,.312,2.7,2.7,0,0,0-.159-.369l-.159-.312v.35a4.108,4.108,0,0,0,.038.42,2.733,2.733,0,0,0-.14-.312l-.127-.254v.286a.783.783,0,0,0,0,.178.694.694,0,0,1,0,.165c-.045-.1-.089-.2-.14-.293l-.146-.274v.407l-.032-.057a.383.383,0,0,1,0-.051v-.07a.312.312,0,0,0-.108-.21l-.184-.134.064.216a1.165,1.165,0,0,1,0,.223v.2a.992.992,0,0,0,.038.146l-.1-.248h0a.261.261,0,0,0-.1-.159l-.134-.089v.165a3.924,3.924,0,0,0,.254,1.145.155.155,0,0,0,0,.051l-.051-.14c-.032-.089-.064-.172-.089-.254a3.6,3.6,0,0,0-.267-.636l-.153-.267v.305a2.289,2.289,0,0,0,.07.547c-.057-.121-.108-.242-.172-.356l-.165-.324v.363a3.378,3.378,0,0,0,.14.782,6.078,6.078,0,0,0-.344-.8l-.2-.375.051.42v.115a1.233,1.233,0,0,1,0,.267h0c.032.127.064.248.1.369-.032-.089-.064-.172-.1-.254v-.045a1.114,1.114,0,0,0-.165-.293l-.159-.165v.229a5.474,5.474,0,0,0,.28,1.164h0a3.415,3.415,0,0,0-.191-.49c-.051-.127-.108-.254-.153-.388v-.051h0a.108.108,0,0,0-.089-.089.1.1,0,0,0-.1.064h0a7.06,7.06,0,0,0,.2.859h0c-.089-.254-.2-.534-.337-.859v-.076a.637.637,0,0,0-.134-.242l-.153-.153v.216a4.986,4.986,0,0,0,.242,1.03,1.392,1.392,0,0,0-.127-.28.47.47,0,0,0-.064-.165v-.089a.331.331,0,0,0-.108-.178l-.146-.1v.172a5.246,5.246,0,0,0,.146.693h0v-.07c-.057-.146-.121-.3-.178-.42V135.7a.388.388,0,0,0-.114-.165l-.159-.1.038.184v.165a3.6,3.6,0,0,0,.108.483h0v-.045a.312.312,0,0,1,0-.07h0a.293.293,0,0,1-.07-.115.375.375,0,0,0-.121-.178l-.114-.1v.153a1.072,1.072,0,0,0,0,.159.363.363,0,0,1,0,.146h0v-.108a.223.223,0,0,0-.108-.165.115.115,0,0,0-.1,0h-.051v.064a1.262,1.262,0,0,1,.051.242v.089h-.032a.118.118,0,0,0-.045-.089.752.752,0,0,0-.146-.248l-.184-.184.051.254v.089a.96.96,0,0,1,.038.242h0a.249.249,0,0,1,0-.057.362.362,0,0,0-.083-.127l-.114-.1v.153a.394.394,0,0,0,0,.153v.045H248l-.089-.064-.032.1a.13.13,0,0,0-.083.045.381.381,0,0,0-.1.051h-.083a.841.841,0,0,1-.21.115l-.108.045c-.2.1-.388.21-.566.312s-.254.159-.388.229l-.146.1-.4.261-.038-.108a1.56,1.56,0,0,0-.165-.343l-.045-.083a.391.391,0,0,1-.045-.089l.064.064a1.208,1.208,0,0,1,.121.134v.032c.051.064.14.172.229.1l.057-.038-.038-.064-.153-.274a.4.4,0,0,0,.108.1l.178.1-.064-.2a.926.926,0,0,0-.057-.14l.032.038h0c.032.045.1.127.184.089l.089-.038-.051-.076a2.022,2.022,0,0,1-.146-.286l-.057-.121a1.146,1.146,0,0,0,.127.121l.254.178-.134-.28c-.057-.121-.127-.261-.2-.394l.108.114.153.159.261.3-.127-.375a1.906,1.906,0,0,0-.121-.254l.1.1q.1.1.172.038l.07-.051-.057-.064a.768.768,0,0,1-.07-.127.678.678,0,0,0-.1-.172.3.3,0,0,0-.064-.127h0v-.038h.076a.28.28,0,0,0,.089.1l.057.057.032.045a.765.765,0,0,0,.178.172l.229.159-.115-.254a3.828,3.828,0,0,0-.2-.394l-.032-.051h0l.057.051h0l.134.14a1.95,1.95,0,0,0,.223.235l.267.216-.146-.312a5.29,5.29,0,0,0-.261-.5l.076.089.153.165c.07.076.14.159.216.229l.248.229-.121-.312a1.2,1.2,0,0,0-.146-.267l-.064-.1a.23.23,0,0,0,0-.057.222.222,0,0,0-.038-.089l-.089-.134a1.545,1.545,0,0,1-.1-.146,1.659,1.659,0,0,1,.172.2,4.827,4.827,0,0,0,.356.369l.324.28-.2-.375-.089-.172-.127-.235.223.216c.083.083.146.07.178.038l.057-.045-.045-.064a1.6,1.6,0,0,1-.134-.254c-.038-.076-.07-.153-.108-.216l-.064-.089-.045-.057h.038a.637.637,0,0,1,.108.121.75.75,0,0,0,.159.159.382.382,0,0,0,.108.134l.045.038.038.045c.038.045.1.121.184.1h.115l-.07-.089a4.406,4.406,0,0,1-.305-.5l-.064-.1a3.558,3.558,0,0,1-.229-.312h0a1.037,1.037,0,0,1,.159.172l.14.153a.508.508,0,0,0,.115.121l.057.051.045.051c.045.057.108.134.2.108h.108l-.064-.1a2.228,2.228,0,0,1-.165-.273l-.1-.172a.635.635,0,0,0-.064-.1.153.153,0,0,1-.038-.057l-.051-.057h.032a.336.336,0,0,0,.1.108h.038a.287.287,0,0,0,.032.064l.057.057a.292.292,0,0,1,.045.045c.146.165.305.331.439.458h0a.146.146,0,0,0,.172.083l.115-.032-.083-.1a1.688,1.688,0,0,1-.178-.274c-.032-.057-.064-.114-.1-.172l-.172-.026-.159-.223-.083-.115-.045-.051h.032c.07.064.127.127.191.2a2.382,2.382,0,0,0,.286.28l.216.172-.1-.261a2.322,2.322,0,0,0-.273-.5l-.032-.051a.178.178,0,0,1,.083,0,.592.592,0,0,1,.146.159v.038h0l.076.057.083.064a.05.05,0,0,0,.038.045c.038.013.1.127.184.1h.108l-.07-.089c-.045-.064-.1-.14-.14-.216l-.038-.07-.076-.115-.045-.07h.032l.045.045c.146.153.3.312.458.458l.28.242-.153-.337a2.855,2.855,0,0,0-.254-.445l-.108-.146a1.273,1.273,0,0,1-.108-.146h0l.121.115a2.5,2.5,0,0,1,.216.235h0v.032a.172.172,0,0,0,.121.083.1.1,0,0,0,.089,0l.057-.051-.051-.057a1.588,1.588,0,0,1-.1-.153.638.638,0,0,0-.1-.165.254.254,0,0,0-.064-.1l-.032-.045h0a7.055,7.055,0,0,0,.534.534l.191.172-.064-.248a.77.77,0,0,0-.121-.229l-.032-.045a.051.051,0,0,1,0-.032.238.238,0,0,0,0-.07.518.518,0,0,0-.076-.089.247.247,0,0,1-.051-.064h.045c.089.076.165.159.242.235s.178.184.274.267l.242.2-.114-.286a1.719,1.719,0,0,0-.134-.242.884.884,0,0,1-.115-.2h0a2.122,2.122,0,0,0,.21.2,1.181,1.181,0,0,1,.14.121l.032.032a.133.133,0,0,0,.178.083l.089-.038-.057-.076-.153-.235L250.6,133a.121.121,0,0,0,.115,0l.083-.045-.064-.089h0a.121.121,0,0,0,.083-.064l.051.038.235.172-.121-.267a1.67,1.67,0,0,0-.134-.261l.076.064h.032a.216.216,0,0,0,.089.076h0a.146.146,0,0,0,.121.07h.051l.057-.076-.038-.045c-.038-.051-.07-.114-.108-.178l-.064-.108a1.768,1.768,0,0,0,.21.172l.178.127-.057-.21a.542.542,0,0,0-.057-.153l.038.032a.153.153,0,0,0,.083.07h0v.057h.051a.166.166,0,0,0,.114.07.108.108,0,0,0,.083-.051l.038-.051-.038-.045a.968.968,0,0,1-.1-.159h0c.057.057.127.127.216.1l.083-.032-.045-.076a3,3,0,0,0-.267-.407h0l.051.045a1.628,1.628,0,0,0,.229.165l.14.07v-.153a.426.426,0,0,0-.064-.153.324.324,0,0,1-.044-.1h.064a.2.2,0,0,0,.127.057.14.14,0,0,0,.274-.038l.032-.038v-.045a2.365,2.365,0,0,0-.2-.343h0l.057-.032a1.389,1.389,0,0,1,.223.108,1.052,1.052,0,0,0,.267.134l.14.044-.045-.14a.541.541,0,0,0-.184-.261l-.038-.032a.585.585,0,0,1,.235.057.515.515,0,0,0,.254.045h.178l-.14-.115-.051-.038h0a.1.1,0,0,0,.108.038l.515-.045a3.962,3.962,0,0,0,.986-.14l.356-.121h-.375a2.673,2.673,0,0,0-.6,0h-.127l.038-.051h-.165a1.968,1.968,0,0,0-.464.076h-.1a1.272,1.272,0,0,0-.477.083.312.312,0,0,0-.165,0,.191.191,0,0,1-.121,0h-.045l-.032.038a.236.236,0,0,0-.178,0,.21.21,0,0,1-.121,0h-.083v.083h-.134a.592.592,0,0,1-.134.064H251.6l-.458.115H251.1a.216.216,0,0,0-.089.057h-.1l-.038.051-.038.032-.051.038a.394.394,0,0,0-.159,0h-.045a.089.089,0,0,0-.064.051.255.255,0,0,0-.127,0h-.045a.165.165,0,0,0-.07.051h-.114v.045h0a.1.1,0,0,0-.1.045h0a.134.134,0,0,0-.1,0h-.064v.032h0a.159.159,0,0,0-.083.038h0a.2.2,0,0,0-.1,0h-.121v.051h0a.178.178,0,0,0-.1,0h0a.293.293,0,0,0-.089.089.191.191,0,0,1-.044.051h-.165v.051h0a.073.073,0,0,0-.089.1.051.051,0,0,1-.051,0l-.083-.045v.089h0l-.045.038a.057.057,0,0,0,0,.038H248.7v.064a.108.108,0,0,0-.083.089h0a.2.2,0,0,1-.1.038h-.146v.07a.267.267,0,0,1-.165.1h-.038l-.051.057a.637.637,0,0,1-.115.115h0a1.644,1.644,0,0,0-.21.121.242.242,0,0,0-.146.07h-.1l-.032.038a.725.725,0,0,1-.331.2h0a3.782,3.782,0,0,1-.375.242,3.363,3.363,0,0,0-.426.293,5.456,5.456,0,0,0-.757.572h-.121v.057a.312.312,0,0,1-.184.159h0a.1.1,0,0,0,.07,0l.057-.057-.064-.057a1.143,1.143,0,0,1-.14-.159h.242l-.14-.108a.152.152,0,0,0,.07-.038l.045-.057-.051-.051a2.7,2.7,0,0,1-.21-.248.1.1,0,0,0,.07-.032l.051-.064-.057-.051h0l.057.045-.089-.235.076.083-.178-.413a.567.567,0,0,0-.1-.159h0l.051-.064-.057-.051a1.143,1.143,0,0,1-.121-.127v-.038l.038-.051-.051-.045-.1-.114h0l.038-.076h-.07V132.1a.153.153,0,0,0-.038-.057v-.083a.347.347,0,0,0-.623.305h0a.134.134,0,0,0,0-.076h0a.108.108,0,0,0,0-.076v-.076h0V131.9l-.045.121a.235.235,0,0,1-.114-.14h0a.363.363,0,0,0,.235,0l.134-.1-.21-.153-.153-.032-.2-.045-.051-.064h0a1.464,1.464,0,0,0,.458-.051l.324-.115-.343-.038a1.4,1.4,0,0,1-.235-.045,1.215,1.215,0,0,0-.4-.057l-.032-.032h.235a3.228,3.228,0,0,0,.445-.038l.267-.057-.254-.1a2.768,2.768,0,0,0-.681-.114,3.435,3.435,0,0,0,.681-.045h.331l-.312-.121a3.332,3.332,0,0,0-.732-.114,6.427,6.427,0,0,0,.719-.064l.534-.076-.534-.076a2.1,2.1,0,0,1-.394-.1h.038a.853.853,0,0,0,.356-.051l.305-.153H244.1a.693.693,0,0,1-.216-.045,1.343,1.343,0,0,0-.229-.057h-.1a2.244,2.244,0,0,0,.547-.045l.636-.07-.636-.083a.851.851,0,0,1-.172-.045l-.172-.051a1.018,1.018,0,0,0,.363-.045l.312-.108-.331-.045h.013l.242-.064-.235-.083a1.846,1.846,0,0,0-.267-.076l.242-.153.541-.14h-.553a.8.8,0,0,1-.2-.045h-.032a1.269,1.269,0,0,0,.223-.038l.305-.07-.305-.083-.223-.051.2-.045.286-.076L244,128.45h-.1l.146-.045.267-.121-.293-.032a.363.363,0,0,1-.115,0h.115l.3-.134H244a1.266,1.266,0,0,1-.2-.045l-.083-.032h.312v-.229c0-.114-.121-.127-.159-.127h0l-.1-.045h.242v-.07c0-.115-.121-.127-.159-.134h0a.178.178,0,0,0-.089-.038h0a.446.446,0,0,0,.21-.057l.191-.121h-.229a.433.433,0,0,1-.178-.076h.14l.216-.032L243.94,127a1.417,1.417,0,0,0-.261-.127h.159l.184-.038-.153-.108-.089-.057.1.038v-.134a.384.384,0,0,0-.038-.121h0v-.1a1.857,1.857,0,0,0-.108-.56v-.051h-.331v.089a.134.134,0,0,0,0,.083.534.534,0,0,0,.032.108.751.751,0,0,1-.121-.07.7.7,0,0,0-.229-.114h0a.108.108,0,0,0-.076.038v.032l.038.07a.755.755,0,0,0,.051.1v.038a1.442,1.442,0,0,0,.191.2l.1.083a2.048,2.048,0,0,0-.967-.14h-.261l.229.121a3.182,3.182,0,0,0,.458.2,5.119,5.119,0,0,0-.8-.038h-.083v.083a.127.127,0,0,0,.045.1.153.153,0,0,0,.064,0h0a3.813,3.813,0,0,0,.636.165h-.134a3.184,3.184,0,0,1-.356,0,2.251,2.251,0,0,0-.636.083l-.235.089.242.064a5.976,5.976,0,0,0,1.05.14,5.241,5.241,0,0,0-1.215.184l-.274.076.274.07a1.4,1.4,0,0,0,.235.045,3.679,3.679,0,0,0-.49.115l-.363.127h.388a3.122,3.122,0,0,0,.343,0h-.083l-.483.083h-.064a1.712,1.712,0,0,0-.273.083l-.254.127h.388l-.248.064-.286.1.3.057a1.191,1.191,0,0,0,.267,0h-.1l-.375.127h.674a4.8,4.8,0,0,0-.541.127l-.452.127h.719a.459.459,0,0,0-.2.07l-.146.14h.394l-.369.064h.1a.267.267,0,0,0-.1.057l-.134.114h.178a6.191,6.191,0,0,0-.636.153l-.471.14h.5a5.494,5.494,0,0,0,.636-.032h-.064a2.831,2.831,0,0,0-.483.121l-.426.178h.534l-.407.1.3.038v.452a.114.114,0,0,0,.032.1.178.178,0,0,0,.159.032h.045a.5.5,0,0,0,.14,0h0l-.045.038a.134.134,0,0,0-.115.1h0l-.394.051.413.1a1.814,1.814,0,0,0,.2.038h-.159a.953.953,0,0,0-.3.089l-.267.165h.541l.089.064h-.5c-.076,0-.184.045-.191.07a.089.089,0,0,0,.07.1h0l.426.051h-.146l-.547.115.56.038h.229l-.108.076-.337.038.388.108a1.109,1.109,0,0,0,.21.038l-.14.032a6.75,6.75,0,0,0-.84.21l-.471.172h.5a4.313,4.313,0,0,0,.636-.064,5.5,5.5,0,0,1,.7-.064h-.458v.064h0a2.318,2.318,0,0,0-.375.1l-.35.153h.382a5.524,5.524,0,0,0,.566-.032h.1v.051a1.844,1.844,0,0,0-.445.089,4.7,4.7,0,0,0-.522.146l-.6.2.636-.045.992-.1-.146.064h-.038a3.364,3.364,0,0,1-.592.108v.038a.127.127,0,0,0-.108.07l-.051.115h.636a5.028,5.028,0,0,0-.636.172l-.509.184.541-.032h.356c.2,0,.388-.038.566-.038h0l-.318.051a1.783,1.783,0,0,0-.2.057.7.7,0,0,1-.153.045h-.108a.636.636,0,0,0-.293.1l-.223.172.28-.032.312-.038.579-.064-.114.032-.172.038a2.542,2.542,0,0,0-.477.127l-.458.184.547-.038a4.642,4.642,0,0,0,.725-.057h0a.635.635,0,0,1-.267.089.865.865,0,0,0-.3.089l-.286.172h.668l.1.1h-.178a.814.814,0,0,0-.3.089l-.273.172h.471a.2.2,0,0,0-.2.1.089.089,0,0,0,0,.089v.051h.057a1.426,1.426,0,0,1,.331-.032h.07l-.14.032a1.145,1.145,0,0,0-.356.1l-.363.2.407-.051.477-.045c-.312.07-.6.14-.859.223h-.051a9.306,9.306,0,0,0-3-2.932h-.045a8.552,8.552,0,0,0-1.438-.674.325.325,0,0,0-.191-.108.356.356,0,0,0-.159-.134.112.112,0,0,1-.108-.083v-.07h-.121l-.045-.045V131.2h-.07a.146.146,0,0,1-.14-.083v-.045h-.114A.216.216,0,0,1,234.1,131v-.045h-.127l-.07-.051h-.045c-.038,0-.07,0-.07-.038v-.057h-.153l-.07-.051-.089-.07h-.191a.2.2,0,0,1-.165-.064l-.051-.038h-.146a.311.311,0,0,0-.1-.057h-.038v-.051h-.051a.236.236,0,0,0-.1,0,.045.045,0,0,1-.038,0h0a.28.28,0,0,0-.184-.083h0a.351.351,0,0,0-.083.032l-.038-.045a.254.254,0,0,0-.273-.038.216.216,0,0,0-.1.223v.057h.2v.07h.07a.484.484,0,0,0,.165,0h0v.064h.242a.477.477,0,0,0,.184.076h0v.083H233a.07.07,0,0,0,.045,0,.228.228,0,0,0,0,.038V131h.153v.083h.172a.121.121,0,0,0,.127.1h.1a.158.158,0,0,0,0,.051h0a.165.165,0,0,0-.14.1h0a.519.519,0,0,1-.07.178,2.012,2.012,0,0,1-.1.235h-.057a.713.713,0,0,0,.2-.515v-.07h-.07a.293.293,0,0,0-.267.2s0,0,0,.051a1.333,1.333,0,0,0-.083.165.5.5,0,0,1-.032.089,6.1,6.1,0,0,0-.636-.184h0l-.178-.038v-.032h-.146l-.28-.038.108-.038h-.216l.2-.045h-.763a2.112,2.112,0,0,1-.261,0,1.688,1.688,0,0,0-.267-.038,4.294,4.294,0,0,0-.8.045l-.324.045.312.108a1.067,1.067,0,0,0,.293,0l-.038.032-.14.146h.21l.483-.064-.223.127-.165.1h0a.318.318,0,0,1-.064.07.433.433,0,0,0-.1.114l-.134.229.235-.121.274-.146.153-.083a2.778,2.778,0,0,0-.5.483l-.172.2.254-.083a.686.686,0,0,0,.21-.127l.057-.045h.064a.215.215,0,0,0,.057-.051h0l.134-.083a1.675,1.675,0,0,0,.254-.178h0l-.076.057a2.97,2.97,0,0,0-.413.382l-.108.115a.794.794,0,0,0-.1.121l-.038.064-.038.032c-.045.045-.121.114-.076.21l.051.108.076-.089a2.071,2.071,0,0,1,.28-.242l.146-.121h0c.2-.172.407-.344.636-.528h0a2.736,2.736,0,0,0-.363.356c-.076.1-.159.191-.242.28l-.051.057-.121.184L230.4,133a.248.248,0,0,0-.083.2v.14l.1-.1.2-.191-.1.14-.038.057-.038.045a.261.261,0,0,0-.1.21v.178l.121-.134a2.652,2.652,0,0,1,.229-.235,1.531,1.531,0,0,1-.14.146h0a2.15,2.15,0,0,1-.159.229l-.064.089-.032.045c-.051.07-.114.146-.083.235l.051.14h0a.115.115,0,0,0,.032.121l.064.07.057-.083a1.749,1.749,0,0,1,.254-.28.147.147,0,0,0,0,.153l.057.089.07-.076.153-.159-.064.115a.286.286,0,0,0-.108.146.178.178,0,0,0-.07.083h0a.089.089,0,0,0-.045.1.1.1,0,0,0,.083.07h.038l.242-.248.14-.153-.038.07-.064.076a.343.343,0,0,0-.115.242l.032.159.108-.115.267-.3-.057.089c0,.038-.045.076-.07.108a.453.453,0,0,1-.044.057.242.242,0,0,0-.089.21v.076h0a10.26,10.26,0,0,0-2.4-.394l.127-.121-.21.121h0a.1.1,0,0,0-.1,0,.974.974,0,0,0-.267,0s-.038,0-.051.051h0v-.045h-.057a.413.413,0,0,0-.439.413.185.185,0,0,0-.038-.134.3.3,0,0,0-.337-.108l-.064.032v.064a.55.55,0,0,0,.044.108.992.992,0,0,0-.719.1l-.153.1.184.038a2.039,2.039,0,0,0,.305,0,1.508,1.508,0,0,0,.477-.07h.184v-.032a.254.254,0,0,0,.057-.127v.184l.108-.038a.5.5,0,0,0,.146-.089.159.159,0,0,0,.038.089l.051.051.083-.064h0l-.07.134.178-.064.146-.064-.038.121.134-.032a.4.4,0,0,0,.14-.057.1.1,0,0,0,.032.07l.045.057.057-.045.121-.07a.114.114,0,0,0,0,.089l.044.083.07-.064h.032a.076.076,0,0,0,0,.057l.038.057.064-.038.064-.045h0a.121.121,0,0,0,0,.07l.045.064.083-.064h.045l-.07.14.242.108a.388.388,0,0,0,.146-.064.2.2,0,0,0,0,.083l.045.089.115-.089.064-.045a.159.159,0,0,0,0,.108l.038.083.076-.051.057-.038a.1.1,0,0,0,0,.07l.057.121.076-.115a.484.484,0,0,1,.134-.1h0a.526.526,0,0,1-.051.076l-.172.229.267-.108a1.909,1.909,0,0,0,.223-.134.452.452,0,0,1,.089-.064v.032a.21.21,0,0,0-.083.223l.051.121.083-.1a.223.223,0,0,1,.146-.1.127.127,0,0,0-.051.108.089.089,0,0,0,.044.083l.057.045.051-.051a.688.688,0,0,1,.184-.134l.1-.057a.14.14,0,0,0-.032.051h0a.235.235,0,0,0-.089.153.115.115,0,0,0,.038.083l.051.045.051-.045c.076-.057.159-.121.267-.191h0l-.051.064a.2.2,0,0,0-.076.216l.038.108.083-.076a1.61,1.61,0,0,1,.35-.235.271.271,0,0,0,0,.045v.038h-.057v.1a.127.127,0,0,0-.051.108.076.076,0,0,0,.044.064l.051.045.051-.051a.408.408,0,0,1,.134-.089.879.879,0,0,0,.178-.121h.044v.038l-.064.089h0a.223.223,0,0,0-.1.153.089.089,0,0,0,.038.076l.057.051.051-.051a1.139,1.139,0,0,1,.324-.229.515.515,0,0,1-.089.127.7.7,0,0,0-.089.134l-.127.216.229-.108a1.483,1.483,0,0,0,.254-.172l.07-.051h.083l-.14.184-.108.14h.07l-.07.1c0,.045-.057.083-.083.121v.038c0,.038-.051.07-.076.114a.108.108,0,0,0-.038.089.089.089,0,0,0,.038.07l.057.045.051-.051c.089-.1.172-.2.254-.3s.21-.248.318-.363a.429.429,0,0,0-.038.076h0c0,.032-.07.07-.064.127a.089.089,0,0,0,0,.064.114.114,0,0,0,0,.108l.057.057.057-.057.1-.114.121-.134-.051.064a.692.692,0,0,0-.083.108l-.076.121h.1l-.064.114a.254.254,0,0,0-.089.153v.064l.1.032.1-.108.191-.216a.082.082,0,0,0,0,.038.108.108,0,0,0,.038.07h0a.807.807,0,0,1-.083.121l-.114.172.2-.051a.216.216,0,0,0,.14-.1h.076a.747.747,0,0,0-.07.121.235.235,0,0,0-.089.153v.064h.1l.038-.038.261-.3h0l-.051.089H234a1.178,1.178,0,0,0-.146.229.28.28,0,0,0-.108.159.1.1,0,0,0,.051.083l.057.038.045-.057a4.462,4.462,0,0,1,.337-.369c.07-.07.134-.134.191-.2a.108.108,0,0,0,0-.064h.032a1.274,1.274,0,0,0-.1.153l-.045.057a2.375,2.375,0,0,0-.2.312h0s-.083.051-.07.115a.1.1,0,0,0,.076.083h.051l.045-.057c.121-.146.248-.293.382-.426h0a.159.159,0,0,0-.07.121.1.1,0,0,0,0,.051.133.133,0,0,0,0,.153l.064.1.07-.089a1.7,1.7,0,0,1,.2-.229v.032a.635.635,0,0,0-.076.108l-.089.153.153-.032c0,.032-.064.07-.045.121l.032.057h.1v-.045h.038a.184.184,0,0,0-.051.184l.051.1.083-.083.108-.114h0c-.045.057-.121.14-.064.216l.038.051a10.311,10.311,0,0,0-4.949-.916,11.547,11.547,0,0,0-1.209.165l-.2.038a.216.216,0,0,0-.076.038h-.2l-.1.038h-.2a6.013,6.013,0,0,0-.9.305h-.057a.108.108,0,0,0-.076.038h-.038a.559.559,0,0,0-.223.14h-.038a1.273,1.273,0,0,0-.254.184h0l-.051-.038-.045.038-.083.057-.1.064a.153.153,0,0,0-.076,0h0a2.708,2.708,0,0,1-.293.172c-.1.057-.21.114-.305.178l-.1.057a1.051,1.051,0,0,0-.2.127.636.636,0,0,0-.21.134.146.146,0,0,0-.076.038.089.089,0,0,0,.064.159h0a2.422,2.422,0,0,1,.216-.127v.064l.134-.064a1.831,1.831,0,0,0,.375-.248,1.114,1.114,0,0,0-.1.172s-.146.21-.089.312l.064.114.07-.108c.076-.114.165-.229.248-.337l-.115.216v.045a.354.354,0,0,1,0,.1.2.2,0,0,0,0,.21l.083.121.051-.14a1.388,1.388,0,0,1,.153-.267l.07-.108.038-.089a.158.158,0,0,1,0-.057.526.526,0,0,1,.051-.076,2.9,2.9,0,0,1-.172.452v.045a.362.362,0,0,1,0,.159.286.286,0,0,0,0,.242l.07.153.07-.159c.153-.35.318-.7.483-1.037a3.25,3.25,0,0,0-.1.356l-.038.159a.362.362,0,0,0,0,.089,1.177,1.177,0,0,0-.064.5l.057.286.178-.5a1.36,1.36,0,0,0,0,.394l.032.375a.1.1,0,0,0-.089-.038.089.089,0,0,0-.083.051v.076a9.349,9.349,0,0,1,.693,1.635l.089.261.064-.274a.9.9,0,0,0,0-.42v-.057a1.662,1.662,0,0,0-.083-.331l-.032-.076a.365.365,0,0,0,0-.089,1.6,1.6,0,0,0-.153-.274l.07-.229a.318.318,0,0,0,0-.083h0a9.741,9.741,0,0,1,.439,1.558l.076.394.076-.394a2.176,2.176,0,0,0-.254-1.45l.07.045c.057.146.108.3.159.452l.038.114c.057.223.108.445.14.636a.178.178,0,0,1,0,.057.242.242,0,0,0,.1.2l.1.064v-.121a1.82,1.82,0,0,0,0-.719h0v-.076c.051.2.121.452.159.636h0a.146.146,0,0,0,0,.14.1.1,0,0,0,.1,0h.064v-.064a1.908,1.908,0,0,0,0-.42v.051a.711.711,0,0,0,0,.108.573.573,0,0,0,.083.312l.114.165v-.2a2.281,2.281,0,0,0,0-.509,1.74,1.74,0,0,0,.064.305.083.083,0,0,1,0,.038.235.235,0,0,0,.089.2l.108.07v-.121a2.305,2.305,0,0,0,0-.7c.032.1.057.2.089.305h0a1.641,1.641,0,0,0,.083.413l.134.312v-.337a2.587,2.587,0,0,1,.038-.382h0l.019.165a2.283,2.283,0,0,0-.057-.286c.07.267.14.541.2.821l.083.356.07-.356a1.777,1.777,0,0,0,0-.636c.051.178.1.356.14.534l.108.452.076-.305a1.158,1.158,0,0,0,.038-.293,1.119,1.119,0,0,0,.083.312l.127.242v-.592a2.818,2.818,0,0,1,0-.337c.038.134.07.273.1.407l.057.261.1.382.057-.388a2.131,2.131,0,0,0,0-.782l.045.051v.025l.057.2a1.674,1.674,0,0,1,.045.191,1.572,1.572,0,0,0,.083.331l.14.324v-.464a1.609,1.609,0,0,0-.038-.636h0v.064c.032.108.064.21.1.318h0a1.591,1.591,0,0,0,.083.407l.121.286v-.305a2.043,2.043,0,0,0,0-.763v-.076a.58.58,0,0,1,.032.2v.108h.07a.134.134,0,0,0,0,.064v.1a2.709,2.709,0,0,0,.083.407l.108.3.044-.318a1.753,1.753,0,0,0,0-.191v-.032l.064-.172v-.051a1.425,1.425,0,0,1,0,.159,1.2,1.2,0,0,0,.07.3l.083.28.07-.28a1.221,1.221,0,0,0,0-.477l.038-.1v-.057l.038.089a.493.493,0,0,1,.044.108,1.273,1.273,0,0,1,0,.165.845.845,0,0,0,.083.324l.121.223v-.254a2.356,2.356,0,0,0,0-.668h0v-.1c0,.07.057.146.076.216a1.112,1.112,0,0,1,.038.21,1.322,1.322,0,0,0,.089.337l.172.382v-.42a2,2,0,0,1,0-.439v-.045a.891.891,0,0,0-.064-.248v-.038h0a7.125,7.125,0,0,1,.216.821l.076.363.076-.363a1.328,1.328,0,0,0,0-.229.806.806,0,0,1,0-.223v-.038a.2.2,0,0,0-.045-.146v-.032h0a.359.359,0,0,1,0,.076.854.854,0,0,0,.045.114v.038c0,.038-.038.172,0,.223l.038.032h0a.77.77,0,0,0,.051.216l.1.2.051-.216a.885.885,0,0,0,0-.293l.057.108.032-.146v.032a.114.114,0,0,1,0,.064.127.127,0,0,0,.045.165h0c0,.057,0,.165.121.165h.089v-.121a.4.4,0,0,0,0,.045l.159.375v-.274l.07.076v-.153a.5.5,0,0,0,0-.14l.089.159v-.064a.286.286,0,0,0,.076.134l.14.115a1,1,0,0,0,0,.134h-.045l.038.051-.134.159h0l-.159.21h-.127l.083.064-.1.146-.07.108h.172a.26.26,0,0,0-.1,0h-.038v.032c0,.045-.045.108.064.178h0v.032a.819.819,0,0,0-.2-.1H233.3v.115a.261.261,0,0,0,.07.153h0a.146.146,0,0,0-.127-.076H233.2v.038a.306.306,0,0,0-.045.127h0v.038a1.908,1.908,0,0,1-.356.356l-.064.051-.038.032a5.728,5.728,0,0,0-.585.5c-.121.115-.229.235-.337.356s-.235.261-.363.382h0l-.108.216-.159.318a.65.65,0,0,0,0,.076v.032h0a.172.172,0,0,0-.044.076,1.533,1.533,0,0,0,0,.681.146.146,0,0,0,.038.07h0l-.1.127h.153a.312.312,0,0,0,.051.146.261.261,0,0,0,.159.114,10.982,10.982,0,0,0-1.037,1.2h0a.812.812,0,0,0-.089.146,8.834,8.834,0,0,0-.77,1.209h0q-.248.445-.439.859h0v.057q-.115.242-.21.477a1.462,1.462,0,0,1-.076.216,2.734,2.734,0,0,0-.1.274l-.1-.108.038.267a.592.592,0,0,0,.216.324l.057.051.07.07a1.609,1.609,0,0,0,.274.248l.07.064.045.038.045.038a3.847,3.847,0,0,0,.458.337l.044.032a.331.331,0,0,0,.184.089h.057l.274-.153h-.3a4.206,4.206,0,0,0-.636-.636,1.66,1.66,0,0,0-.159-.146.962.962,0,0,1-.165-.153h0a.382.382,0,0,1-.153-.1h-.146a.222.222,0,0,0,.032-.083,7.587,7.587,0,0,0,.636.477h0l.337.235h.038a1.736,1.736,0,0,0,.35.2c.064.064.2.146.286.108l.108-.045-.083-.083-.2-.191-.038-.038a1.141,1.141,0,0,1,.14.083l.064.045.057.038a.407.407,0,0,0,.242.1h.165l-.121-.115-.305-.293c.223.165.445.324.636.458a.133.133,0,0,0,.1.038.1.1,0,0,0,.07-.032l.032-.045h.057a.108.108,0,0,0,.083.032.1.1,0,0,0,.07-.076v-.045l-.032-.032-.28-.274-.064-.057c.089.07.184.14.274.108l.121-.038-.089-.089-.178-.172h.045l.051.038h0a.076.076,0,0,0,.051,0l.038.038a.242.242,0,0,0,.07.07.083.083,0,0,0,.051,0,.134.134,0,0,0,.127.057.1.1,0,0,0,.064-.083v-.038h0l-.127-.121h.051a.085.085,0,0,0,.153-.045v-.045l-.159-.159-.178-.172.312.216h.032a.248.248,0,0,0,.184.076h.159l.191.134a.223.223,0,0,0,.064.051h0s.076.07.134.051h.057v-.089l-.178-.178-.483-.458h.045a1.315,1.315,0,0,1,.159.121l.153.108.14.1c.064.057.115.07.165.032l.076-.051-.064-.064c-.305-.3-.636-.6-.935-.891l-.038-.038c.331.267.636.528,1.011.776l.261.191-.032-.07a.147.147,0,0,0,.083,0,.134.134,0,0,0,.045-.089h0v-.064a.147.147,0,0,1,.038-.076h0v-.1c.045-.2.1-.394.127-.636h0a.885.885,0,0,1,0-.127v-.108h0a.089.089,0,0,0,.076-.045l.045-.051-.051-.051-.057-.051a.357.357,0,0,1-.1-.1h0l.4.324a.736.736,0,0,0,.134.1l.115.089.045.038a.287.287,0,0,0,.057.064c.064.045.165.127.229.057l.051-.057-.045-.051c-.216-.235-.452-.458-.674-.668l-.293-.28h0l.114.089a2.207,2.207,0,0,1,.178.153l.064.038.2.134h0a.184.184,0,0,0,.115.076.127.127,0,0,0,.083,0l.064-.057-.229-.223-.433-.413h0a1.152,1.152,0,0,1-.121-.134h0c.229.21.483.4.732.592h.038a.363.363,0,0,0,.108.076.267.267,0,0,0,.159.108.083.083,0,0,0,.089-.045l.032-.057-.051-.045c-.14-.127-.273-.261-.407-.394s-.274-.28-.413-.407l-.076-.07-.07-.057h.045l.045.032c.083.057.165.127.242.191a2.8,2.8,0,0,0,.318.242h0a.064.064,0,0,1,.045.032.286.286,0,0,0,.108.064h0c.038.045.1.1.153.089a.089.089,0,0,0,.076-.038l.057-.057-.064-.051a3.367,3.367,0,0,1-.337-.337l.172.127.076.057a.33.33,0,0,0,.07.064h0a.108.108,0,0,0,.064.045.153.153,0,0,0,.1.057.1.1,0,0,0,.083-.089v.032h0a2.048,2.048,0,0,0-.2-.2l-.1-.089-.076-.089-.1-.108h.038a.274.274,0,0,1,.057.064.471.471,0,0,0,.083.076.152.152,0,0,0,.064,0h0a.1.1,0,0,0,.032.045.07.07,0,0,0,.064,0l.038.045a.639.639,0,0,0,.121.089.268.268,0,0,0,.1.083h0s.051.064.1.051.057,0,.076-.07v-.045h0c-.172-.178-.356-.369-.56-.56l.159.114a2.483,2.483,0,0,0,.254.2h.032a.134.134,0,0,0,.1.057.1.1,0,0,0,.083-.038l.045-.057-.051-.051-.216-.2c-.089-.089-.178-.165-.248-.242a.108.108,0,0,0-.032-.076.134.134,0,0,0-.076-.045h0l-.127-.121a2.253,2.253,0,0,1,.2.146l.1.076.153.114h0c.038.038.127.121.216.038l.064-.057-.07-.057a3.661,3.661,0,0,1-.28-.267,2.468,2.468,0,0,0-.375-.35.854.854,0,0,0-.216-.21l-.115-.1h0l.56-.07.178.146.35.286a5.987,5.987,0,0,0,.56.433l.064.045h0c0,.032.076.076.134.057h.057v-.089l-.108-.1-.108-.1.07.038a.14.14,0,0,0,.07.057v.032h.038a.121.121,0,0,0,.121.045.083.083,0,0,0,.064-.064v-.045l-.038-.038-.045-.045h.057a.1.1,0,0,0,.172,0v-.051l-.032-.038-.083-.083c.108.083.216.165.331.242h0a.159.159,0,0,0,.178.051l.114-.051-.089-.083-.146-.134h.045l.2.146-.076-.235a.216.216,0,0,0-.038-.076l.051.038.064.045v.064h.064a.134.134,0,0,0,.114.038.114.114,0,0,0,.064-.064v-.051l-.07-.064a3.649,3.649,0,0,1-.382-.388h0l.108.1a2.015,2.015,0,0,0,.293.21.255.255,0,0,0,.153.115.1.1,0,0,0,.1-.045l.038-.057-.057-.045a3.7,3.7,0,0,1-.273-.274h0l.127.089h0c.032.032.07.076.127.064h.051l.032-.089-.032-.038c-.121-.115-.242-.242-.363-.363l.057.032a.076.076,0,0,0,.089,0,.083.083,0,0,0,.07-.07h0l.134.1.337.28h0a.2.2,0,0,0,.089.057c.032.045.07.1.14.1a.1.1,0,0,0,.089-.045l.045-.057-.051-.045c-.2-.184-.388-.375-.572-.566h0l.032.032a.159.159,0,0,0,.172.064l.1-.045-.076-.083c-.1-.108-.2-.223-.318-.331l.1.083.1.064a.7.7,0,0,0,.108.083l.057.045c.051.051.134.127.229.076l.1-.051-.083-.076-.127-.121.115.07a.191.191,0,0,0,.076.07h0v.038h.076c.032,0,.07.064.121.051h.051l.045-.083-.038-.038c-.045-.045-.083-.089-.127-.127l.1.076h0a.337.337,0,0,1,.089.064c.07.064.153.134.242.1l.114-.045-.089-.089c-.1-.089-.2-.184-.293-.28l.242.178h0a.2.2,0,0,0,.089.064.172.172,0,0,0,.134.089.14.14,0,0,0,.089-.064v-.051l-.045-.045-.337-.324.089.076h0a1.275,1.275,0,0,1,.191.134l.057.045.057.038h.045v.057h.064a.121.121,0,0,0,.1.051.089.089,0,0,0,.07-.045l.045-.051-.051-.051a3.978,3.978,0,0,1-.318-.337l-.045-.051a.165.165,0,0,0,.2.064l.076-.045.267.2.216.153-.1-.248a.636.636,0,0,0-.14-.191l-.127-.127-.057-.064.146.108.191.127-.07-.216a.559.559,0,0,0-.127-.184h0l-.223-.223.2.134.057.032a.153.153,0,0,0,.121.064.127.127,0,0,0,.076-.051l.038-.057-.044-.045-.216-.223-.045-.051h.038l.1.057.051.045a.255.255,0,0,0,.216.1l.146-.032-.108-.1-.076-.07-.064-.057h.038a.166.166,0,0,0,.178.057l.1-.045-.076-.083-.089-.089h.07a.121.121,0,0,0,.057,0,.127.127,0,0,0,.045.064.063.063,0,0,0,.057,0c0,.032.064.076.121.057a.108.108,0,0,0,.07-.083v-.038h0l-.2-.21a.153.153,0,0,0,.115,0l.07-.064-.076-.064h0l.134.076.178.108-.064-.2a.158.158,0,0,0,0-.045c.064.045.134.076.2.038l.076-.051-.057-.07-.07-.07.2.108.172.083-.057-.178a.534.534,0,0,0-.127-.178h0c-.121-.127-.254-.242-.375-.35h0a.382.382,0,0,0,.2.057h.165l-.114-.121-.1-.114-.184-.191h0a.42.42,0,0,1-.083-.051l-.076-.057h0l.6-.076v.032h0a.229.229,0,0,0,.108.14h.057v-.051a.076.076,0,0,0,0-.1.32.32,0,0,0-.032-.083h.343l.038.064.038.057c0,.706-.051,1.368-.083,2.1a3.154,3.154,0,0,1-.051.681c-.051.229,0,.305-.032.433v.464c-.064.96-.127,1.959-.2,2.9,0,.337-.057.693-.089,1.03s-.051.566-.076.84c-.115,1.495-.235,2.862-.369,4.185-.089.929-.191,1.864-.293,2.761l-.076.744c-.038.318-.07.636-.1.954-.089.878-.178,1.711-.293,2.544-.165,1.2-.318,2.29-.515,3.352s-.413,1.991-.636,2.945l-.057.248a49.2,49.2,0,0,1-1.813,5.954c-.394,1.043-.738,1.908-1.132,2.754a8.7,8.7,0,0,1-.528.929,5.089,5.089,0,0,0-.8,1.673.425.425,0,0,0,0,.127v.1a1.209,1.209,0,0,0,.534.757h.045a1.312,1.312,0,0,0,.305.134,1.126,1.126,0,0,0,.343.045h.127a1.271,1.271,0,0,0,.394-.172h0c2.862-5.2,4.542-11.6,5.292-20.151,0-.3.045-.636.07-.929a5.768,5.768,0,0,1,.051-.719c.134-1.679.248-3.308.331-4.707l.057-1.024c.045-.757.1-1.539.127-2.271a7.129,7.129,0,0,1,.032-.833,6.318,6.318,0,0,0,0-.776v-2.951c.153,1.775.28,3.67.3,5.674l-.121.057h.121v.445l-.1.051h.1v.184l-.108.051.108.032h0a.069.069,0,0,0,.057.07h.051a8.265,8.265,0,0,1,1.132.464l.452.216.127.057v-.14a.191.191,0,0,0-.1-.14h0l-.045-.045h0l.051.032a.28.28,0,0,0,.159.07h.064l.115-.051-.1-.076-.1-.083h.032a.178.178,0,0,0,.108.07h0c.032,0,.076.057.127.045a.089.089,0,0,0,.076-.057l.038-.07h.153l-.108-.114-.165-.159h0a.114.114,0,0,0,.07-.057v-.051l-.038-.038a.152.152,0,0,0,.108,0l.134-.038-.1-.1-.14-.134a.127.127,0,0,0,.07,0l.127-.045-.1-.089-.076-.07a.254.254,0,0,0,.115,0h.1a.274.274,0,0,0,.21.1h.172l-.134-.108c-.07-.057-.14-.127-.2-.191a.1.1,0,0,0,.064,0,.1.1,0,0,0,.076-.051l.032-.051-.045-.045c-.108-.108-.229-.223-.35-.324h0l.051.045a.28.28,0,0,0,.2.1h.159l-.108-.115a2.292,2.292,0,0,0-.223-.21.146.146,0,0,0,.108,0l.108-.07-.115-.064a.552.552,0,0,1-.14-.108h.051a.159.159,0,0,0,.172.051l.121-.051-.178-.153c-.07-.057-.14-.114-.2-.172a.229.229,0,0,0,.134.032l.159-.032-.114-.108-.4-.35.1.064h.032a.165.165,0,0,0,.121.051.108.108,0,0,0,.07-.038l.038-.057.134.108h.038c.038.032.076.07.127.064a.1.1,0,0,0,.07,0l.045-.057-.083-.083-.375-.363a.108.108,0,0,0,.089,0,.07.07,0,0,0,.064-.051l.032-.051-.045-.045-.121-.1h0a.153.153,0,0,0,.089.064h0a.089.089,0,0,0,.1.045.1.1,0,0,0,.07-.083v.083h-.032l-.223-.21-.057-.057h0a.14.14,0,0,0,.115.045.127.127,0,0,0,.076-.064v-.051l-.045-.045-.057-.045h.038l.191-.038-.159-.108h.006a.1.1,0,0,0,.07-.083v-.045h-.038l-.165-.153h0a.114.114,0,0,0,.076-.064l.038-.064-.07-.038a.782.782,0,0,1-.178-.146l-.051-.051h0a.165.165,0,0,0,.057,0h.153l-.121-.108-.165-.14a.159.159,0,0,0,.121,0l.159-.051-.14-.089-.057-.038H244l.108-.076.623-.191-.057-.032h0l.165-.038h0l.153-.038-.121-.1-.1-.1.044-.076h0l.127-.045-.1-.089-.076-.07h0l.159-.038-.127-.1-.127-.108h.2l-.184-.127a1.38,1.38,0,0,1-.191-.146l-.076-.07h.032l.064.032h0a.184.184,0,0,0,.051.045h.051a.2.2,0,0,0,.191.07h0l.127-.038-.108-.089.045-.407a1.145,1.145,0,0,1,.038-.2v.051a.388.388,0,0,0,0,.267l.134.216v-.254a.5.5,0,0,1,0-.1.552.552,0,0,0,0-.153c.044-.076.083-.159.121-.235a1.075,1.075,0,0,1-.083.172h0a.293.293,0,0,1,0,.127.312.312,0,0,0,0,.248l.134.2v-.242a.255.255,0,0,1,0-.1,1,1,0,0,0,0-.153h0a.868.868,0,0,1,0,.121.376.376,0,0,0,0,.261l.153.248V148.7a.717.717,0,0,1,0-.114.509.509,0,0,0,0-.153l.076-.14a.753.753,0,0,1-.064.178h0a1.114,1.114,0,0,1,0,.146v.159l.089.134.051-.153a1.274,1.274,0,0,0,.051-.223h0a.274.274,0,0,1,0,.121.242.242,0,0,0,0,.216l.134.184v-.229a.694.694,0,0,1,.032-.165.9.9,0,0,0,0-.14,3.326,3.326,0,0,0,.261-.522h0c-.051.134-.108.261-.165.382l-.083.172v.045a1.125,1.125,0,0,1,0,.146.274.274,0,0,0,0,.191l.1.165.038-.184a1.463,1.463,0,0,1,.064-.3v.006a.49.49,0,0,0,0,.331l.153.274v-.159l.146.229v-.28a.329.329,0,0,1,0-.115v-.134h0a.222.222,0,0,1,0,.108.267.267,0,0,0,0,.229l.134.172v-.216a1.017,1.017,0,0,1,.045-.21h0a.318.318,0,0,0,0,.273l.153.223v-.274a.292.292,0,0,1,0-.127h0a.264.264,0,0,1,0,.064.216.216,0,0,0,.064.191l.14.089v-.165a.127.127,0,0,1,0-.07h0a.215.215,0,0,0,.064.191l.146.089-.032-.172a.158.158,0,0,1,0-.057.153.153,0,0,0,.064.14l.153.089-.038-.172a.082.082,0,0,1,0-.057.387.387,0,0,0,0-.1,1.59,1.59,0,0,0,.114-.235l.057-.134h0a.862.862,0,0,1-.057.21.732.732,0,0,0-.064.439l.083.343.07-.343a2.908,2.908,0,0,1,.458-1.005,1.7,1.7,0,0,0-.1.184c-.051.083-.1.165-.146.242h0a.762.762,0,0,1-.057.184.636.636,0,0,0-.045.426l.115.356.038-.375a1.8,1.8,0,0,1,.3-.751v-.038l.045-.083.057-.1.14-.191a.484.484,0,0,1,.051-.07l.191-.083.1-.045-.045.045-.1.115v.032l-.038.045v.038l-.057.057a.6.6,0,0,0-.089.089.263.263,0,0,0-.032.057v.032l-.083.121a2.154,2.154,0,0,0-.191.324.064.064,0,0,0,0,.057.1.1,0,0,0-.038.114v.038a.254.254,0,0,0,0,.28l.108.146v-.178a1.311,1.311,0,0,1,.2-.439l.1-.178a.083.083,0,0,0,.045-.038.127.127,0,0,0,0-.051v-.038l.089-.14a.083.083,0,0,0,.045-.038.389.389,0,0,0,.045-.064.254.254,0,0,1,.1-.115c.305-.146.636-.305.91-.458l.1-.051c-.21.134-.426.267-.636.413h-.051v.038l-.14.127a3.6,3.6,0,0,0-.363.394.152.152,0,0,0-.032.064h0l-.07.089c-.032.045-.07.089-.1.14a.738.738,0,0,0-.108.42v.3l.121-.28a3.682,3.682,0,0,1,.757-1.056l.566-.274h0l-.051.032-.083.064a1.906,1.906,0,0,0-.28.216l-.1.1h-.032a.729.729,0,0,1-.1.1,2.227,2.227,0,0,0-.388.5h0a.439.439,0,0,0-.076.261v.248l.127-.21a2.759,2.759,0,0,1,.318-.445.407.407,0,0,0,.064-.083.419.419,0,0,1,.1-.108h.038v-.045h0a.153.153,0,0,0,.064-.083h0a.159.159,0,0,0,.064-.127h.051c.369-.146.719-.312,1.062-.477h0a1.274,1.274,0,0,1-.242.134h0l-.216.146a3.814,3.814,0,0,0-.413.3.152.152,0,0,0-.07.038.133.133,0,0,0-.064.038.089.089,0,0,0,.064.159h.038v-.032l.668-.337c.191-.1.382-.184.566-.286h.076l-.089.064a1.462,1.462,0,0,0-.28.159c-.076.045-.146.089-.229.127h-.032v.032a.292.292,0,0,1-.083.051h0a.041.041,0,0,0-.038.038h0a.064.064,0,0,0-.038.032h0a.147.147,0,0,0-.051.057h-.032a.165.165,0,0,0-.127.184v.089l.089-.045.547-.274.56-.286-.127.083-.108.076-.121.07c-.127.076-.254.153-.388.248l-.07.045-.089.051-.076.064a.178.178,0,0,1-.064.057h-.083l-.057.045h-.038a.155.155,0,0,0-.121.159,1.482,1.482,0,0,0-.369,0,1.082,1.082,0,0,0,.261-.21l.121-.134h-.184a.8.8,0,0,0-.744.407l-.089.165.178-.051.134-.045c.032.089.127.108.184.121h.267a.339.339,0,0,1,.115,0h.35a.286.286,0,0,0,.223-.07l.083-.083-.108-.045a1.765,1.765,0,0,0-.242-.076c.585-.318,1.19-.636,1.768-.941l.146-.076a8.82,8.82,0,0,0-1.177.757l-.388.305.464-.172a6.578,6.578,0,0,0,.852-.4l.394-.2.127-.045.14-.057.185-.089.223-.115a10.9,10.9,0,0,0-1.851,1.126l-.464.363.541-.229c.369-.159.719-.331,1.049-.5h0l-.1.076a5.943,5.943,0,0,0-.865.56l-.636.477.636-.261c.293-.127.573-.267.84-.407l.382-.191.159-.083a7.072,7.072,0,0,0-1.024.693l-.426.337.5-.2c.267-.108.515-.235.757-.356a8.325,8.325,0,0,0-.814.572l-.445.35.522-.216c.382-.159.744-.35,1.088-.534l.369-.2a10.819,10.819,0,0,0-1.368.9l-.452.356.528-.223a8.271,8.271,0,0,0,.827-.394h-.064a.254.254,0,0,0-.1.051h0l-.045.038h-.083a.681.681,0,0,0-.1.089l-.064.057-.14.089a1.14,1.14,0,0,0-.242.191l-.248.267.337-.146c.2-.083.4-.184.592-.28h-.038l-.293.267.375-.134a5.183,5.183,0,0,0,.547-.223c-.121.089-.242.178-.356.274l-.337.28.413-.146a3.445,3.445,0,0,0,.445-.184,3.4,3.4,0,0,0-.337.261.184.184,0,0,0-.1.057.108.108,0,0,0,0,.1.083.083,0,0,0,.076.057h0l.439-.2.1-.045c-.108.083-.21.159-.305.242l-.331.274.407-.14.286-.108-.064.051a.356.356,0,0,0-.1.064.242.242,0,0,1-.083.057h-.032l-.051.038c-.044,0-.089.051-.1.1a.1.1,0,0,0,0,.083l.038.057.064-.038a2.484,2.484,0,0,1,.261-.115h.032l-.153.127-.286.242.356-.108a4.828,4.828,0,0,0,.8-.343c-.127.1-.248.191-.363.293l-.229.216.305-.083a3.948,3.948,0,0,0,.528-.191.509.509,0,0,0-.108.1h0a.216.216,0,0,0-.1.076.159.159,0,0,0-.114.114.083.083,0,0,0,.057.108h.051a7,7,0,0,0,.8-.3l.318-.127h0a2.4,2.4,0,0,0-.916.693l-.184.2.261-.064a2.065,2.065,0,0,0,.337-.14,2.079,2.079,0,0,1,.21-.089h0a1.834,1.834,0,0,1,.184-.121l.146-.1h0a.216.216,0,0,0,.115-.14v-.038h0v-.045h0l-.064-.191c-.045-.14-.1-.28-.146-.42v-.032h0c-.134-.35-.28-.693-.433-1.018h0l-.115-.235h0a10.75,10.75,0,0,0-5.534-5.044l.1-.057-.146.032c-.356-.153-.719-.293-1.1-.426l.083-.426a2.429,2.429,0,0,0-.07-1.056v.057c.032.178.07.35.108.515l.038.153a.994.994,0,0,1,0,.127.477.477,0,0,0,.038.254l.1.159.044-.184a1.908,1.908,0,0,0,0-.808v-.14a4.892,4.892,0,0,1,.165.954h.159a2.348,2.348,0,0,1,.038-.363h0v-.134a4.847,4.847,0,0,1-.076-.553h0c-.057-.14-.108-.28-.159-.42l-.032-.083c.038.089.076.191.108.274l.051.127.07.191a1.483,1.483,0,0,1,.032.191v.153l.038.146a1.041,1.041,0,0,1,.045.178.633.633,0,0,1,0,.108.471.471,0,0,0,0,.242l.089.216.057-.223a1.468,1.468,0,0,0,0-.636.135.135,0,0,0,0,.038,1.824,1.824,0,0,1,.032.261,1.362,1.362,0,0,0,.051.343l.165.566v-.8a1.707,1.707,0,0,0,0-.2c0,.14.038.28.045.426l.038.636.115-.636a1.908,1.908,0,0,0,.038-.426.327.327,0,0,1,0,.07.425.425,0,0,1,0,.127.471.471,0,0,0,.038.254l.1.159.045-.178a1.343,1.343,0,0,0,.038-.382v.343l.038.547.121-.534a1.91,1.91,0,0,0,.038-.49h0a2.271,2.271,0,0,0-.07-.337c-.019-.114,0-.14-.045-.21v.089a1,1,0,0,1,0,.146.274.274,0,0,0,.038.165,1.157,1.157,0,0,0,0,.121.745.745,0,0,1,.045.159.726.726,0,0,1,0,.121.535.535,0,0,0,.045.293l.153.305v-.343a1.675,1.675,0,0,1,0-.261.938.938,0,0,0,.032.293l.044.6.115-.592a.375.375,0,0,1,0-.083.184.184,0,0,0,.057.1l.153.153v-.21a.88.88,0,0,1,0-.223,1.5,1.5,0,0,0,0-.178s0,.045,0,.064a.69.69,0,0,1,0,.115.343.343,0,0,0,.076.273l.127.083v-.153a1.823,1.823,0,0,1,.032-.331,2.881,2.881,0,0,1,.038.337l.045.636.115-.636a1.927,1.927,0,0,0,0-.267v.293h.051a.108.108,0,0,0,.108,0,.14.14,0,0,0,.038-.134.683.683,0,0,0,0-.159,1.011,1.011,0,0,1,0-.165v-.032a4.734,4.734,0,0,1-.121-.687,3.133,3.133,0,0,1,.089.369l.038.185v.038a1.38,1.38,0,0,1,.051.49v.083h.083a.134.134,0,0,0,.089,0,.172.172,0,0,0,.038-.089h0a1.693,1.693,0,0,0,0-.534,2.543,2.543,0,0,1,.057.318v.07a.293.293,0,0,0,.064.248l.153.146v-.21a.955.955,0,0,1,0-.229.544.544,0,0,0,0-.146.186.186,0,0,1,0,.057v.089c0,.089,0,.2.076.261l.108.051v-.127a2.443,2.443,0,0,0,0-.566,2.869,2.869,0,0,1,.057.337v.045a.235.235,0,0,0,.076.242l.146.1v-.178a.726.726,0,0,1,0-.229h0a.7.7,0,0,0,.064.286l.153.3v-.337a1.412,1.412,0,0,1,0-.223,1.066,1.066,0,0,0,.038-.254.365.365,0,0,0-.038-.2.6.6,0,0,1,0-.1v-.045a.157.157,0,0,0,.032.1c.032.032.038.14.051.2a.871.871,0,0,1,0,.184.635.635,0,0,0,.057.318l.165.28v-.324a1.543,1.543,0,0,1,0-.242,1.41,1.41,0,0,0,0-.235,1.057,1.057,0,0,1,0,.35v.108h0a.083.083,0,0,0,0,.045.089.089,0,0,0,.089,0h.057v-.267a1.642,1.642,0,0,0,0-.324v.045a1.045,1.045,0,0,1,0,.146.489.489,0,0,1,0,.1v.045a.2.2,0,0,0,.083.223l.121.064v-.134a2.36,2.36,0,0,1,0-.305,1.249,1.249,0,0,0,0-.153.377.377,0,0,0,.038.2.178.178,0,0,1,0,.057.267.267,0,0,0,.07.223l.108.083v-.134a2.715,2.715,0,0,0,0-.592,2.839,2.839,0,0,1,.045.439v.1h0a.1.1,0,0,0,0,.045.1.1,0,0,0,.1,0h.051V143.8a.863.863,0,0,1,.032-.286l.038.235.076.394.076-.394a.6.6,0,0,1,.045-.274.516.516,0,0,0,.057.235l.134.229v-.407a.305.305,0,0,0,.045.134l.146.267v-.305a1.806,1.806,0,0,1,0-.261.293.293,0,0,0,.07.242l.134.1v-.159l.108.076.038.032h0a.216.216,0,0,0,.146.083h0a.1.1,0,0,0,.083-.038l.038-.045-.032-.051-.083-.114v-.153a.051.051,0,0,0,0,.032l.191.426-.045-.464a.129.129,0,0,1,0-.045s0,0,0,.032l.248.394-.1-.452a.16.16,0,0,1,0-.051.133.133,0,0,0,0,.038l.127.134v-.21h.14v-.089h0l.089.038v-.1a.232.232,0,0,0,0-.07v.032l.1.115.038-.146a.232.232,0,0,0,0-.07.133.133,0,0,0,.07,0h.076V142.8a.178.178,0,0,0,0-.057h0l.07.051.045-.083v-.07l.051.057.057-.076a.241.241,0,0,0,.038-.083h.089V142.5a.2.2,0,0,0,0-.064h.038a.471.471,0,0,0,.153-.108.452.452,0,0,1,.114-.076h0a1.205,1.205,0,0,1,.1-.146.91.91,0,0,0,.153-.28l.032-.114Zm-3.816-8.129Zm-.681,14.267.089-.038h0Zm.331.229h-.038a.849.849,0,0,1-.134,0h.172Zm.35.572.114-.038h-.038Zm.35.541.146-.057h-.134Zm1.2,1.94ZM227.033,140.93l.038.172c-.032-.057-.07-.108-.1-.159l.045-.153v-.032a.394.394,0,0,0,.025.172ZM233.553,131.1Zm12.391,12.156a.126.126,0,0,0,0-.051.639.639,0,0,1,.032.1,1.808,1.808,0,0,0,.057.172l.038.254a5.133,5.133,0,0,0,.089.592v.064l-.153-.038v-.038a2.856,2.856,0,0,0-.051-1.056Zm-.242.032h0a5.427,5.427,0,0,1,.146,1.011h-.108a2.743,2.743,0,0,0-.025-1.011Zm-.267.127h0l.057.051a4.016,4.016,0,0,1,.083.776h-.127a3.105,3.105,0,0,0,0-.827Zm3.893,4.523.178-.083-.159.114h0v-.038Zm-13.358.884c-.1-.089-.191-.178-.28-.274l.2.153.064.045Zm-2.08.636h.032v.083h0a.221.221,0,0,1,0-.07Zm-1.329,1.762h0l-.057-.057.064.051h0Zm-.191-9.923h0a.637.637,0,0,0,0-.1h0Zm-1.189-.172v-.038h0Zm-3.874-.636a.388.388,0,0,0,0,.089h0ZM230.366,135.332Zm10.464-1.05h.019Zm9.452-1.38Zm1.272,8.18Zm3.009,2.125Zm-2.194-1.577Zm-3.677,5.9h.045l-.146.172-.21.248.248-.318Zm.223.045h0a.11.11,0,0,0,.076-.114v-.051l.083-.038a5.86,5.86,0,0,0,.636-.318.312.312,0,0,0,.108-.038l-.051.038-.191.108a4.33,4.33,0,0,0-.687.439Zm-18.574-9.732Zm.49.312a1.608,1.608,0,0,1,.248-.439h0c-.051.076-.1.159-.146.242a2.333,2.333,0,0,1-.1.216Zm-.5,2.544h0a.2.2,0,0,1,0-.083.374.374,0,0,1,0,.127Zm-.127-.763a.069.069,0,0,1,0,.032h0Zm-.134.35a.1.1,0,0,1,0-.045.266.266,0,0,1,0,.1Zm.191-.547h0v-.089c.038-.134.083-.273.127-.407q-.07.286-.127.541Zm.852-1.457a3.069,3.069,0,0,1,.274-.515h0c-.057.127-.127.248-.2.382Zm.91-.4a.277.277,0,0,0,0-.032h0Zm1.845.356h.032a2.308,2.308,0,0,1-.14.2l-.153.235.057-.114v-.038a.885.885,0,0,1,.2-.305h.038Zm12.976-4.09H246.8a.064.064,0,0,1,.045.025Zm-.464,3.365ZM246.841,137.247Zm0,0Zm.763-.159Zm-6.1,5.362Zm-.331.382V142.8h0a.355.355,0,0,0,0,.083Zm-.146,1.005Zm-8.778,3.855h0v.032h-.032Zm.178-.159.051-.038.051.051H232.5Zm.235-.191h0l.038.038Zm1.737.057Zm0-.064h0v.032h0V147.3h.032Zm-1.826,2.621.191.153h0a.854.854,0,0,1-.159-.146Zm1.444-1.59Zm-.235.146Zm-.127-.064h0s.006.07,0,.051Zm.248-.534Zm-.458,1.075Zm0,0Zm.172-.159Zm.344-.821h-.032v0c0-.051.038,0,.038,0Zm.229-.541Zm-.738-.254-.064-.051a1.081,1.081,0,0,0-.3-.184l.057-.038c.108.1.229.2.343.293Zm-.49,0-.1-.051h0Zm.369,3.409v-.038h0a.388.388,0,0,0-.045.064l-.032-.032ZM233.553,149.625Zm1.272-3.053Zm-.267-1.584V145Zm-1.139-6.685Zm.108-.134Zm-2.15-3.11a.172.172,0,0,0,.064-.07h0l-.051.076ZM241.065,130.034Zm3.816,8.18a.883.883,0,0,1,.1.121l-.032.045h0l-.064-.14-.051-.134v-.032h0Zm-6.571,6.469v.038h0Zm-3.225,1.838Zm-1.215-11.074v.038l-.076.083h0l.038-.051Zm-.248.293-.032.051h0l-.07.051h0Zm-1.635-.5a.062.062,0,0,1,.038-.051.972.972,0,0,0,.114-.115l-.076.1a.586.586,0,0,1-.032.064h0Zm5.426-1Zm7.557,9.3a1.4,1.4,0,0,0-.038-.235h0a2.875,2.875,0,0,1,.083.725h0V144h0v-.184a2.671,2.671,0,0,0-.045-.267Zm-1.005,3.39h.064C244.042,146.979,243.953,146.979,243.966,146.934Zm-1.851-5.6Zm-.388-1.158ZM241.51,140.542Zm-3.5,4.23Zm0,0Zm-2.672,1.686Zm.363-.846ZM235.62,146.133Zm-.254-.159h0a.045.045,0,0,1,0-.032Zm-3.13-11.45-.038.045.051-.064Zm5.407.127Zm7.092,1.431v.032h0Zm-.445,11.176h0Zm-4.841-4.039Zm-.573-.318h0a.045.045,0,0,1,0-.038h0Zm0,0Zm-.273,1.221h0l-.019-.013Zm0,0h0s-.045-.019-.045-.025Zm-3.855-3.492h0s-.038-.038-.045-.025Zm0,0Zm11.2.782Zm-9,3.906Zm3.359-8.8Zm5.2,4.745h0a.305.305,0,0,0-.045-.134.166.166,0,0,1,0-.064h0l.165.191a.2.2,0,0,1-.184-.019Zm-.159.064h-.038l-.038-.121a.637.637,0,0,0,.083.1Zm-7,1.654h0a.412.412,0,0,0-.083-.025ZM236.854,145.611ZM239.806,138.169Zm3.079-2.983Zm1.578,1.463Zm-4.325,3.25Zm0,0Zm-2.252,2.831h0Zm2.468-6.03h.019Zm4.185,7.34a.177.177,0,0,0-.064-.038h0v-.038h0v-.032a.1.1,0,0,0-.057-.064h.07v-.076a.1.1,0,0,0-.07-.07l.051-.057h0v.483Zm-3.556-5.782Zm2.035-1.59Zm-.273.706Zm-.032,0Zm0,.636h-.006ZM244.2,140.434Zm.235,1.737Zm-.509-5.725Zm-.579,1.73h0v0ZM243.947,137.349Zm0,0ZM243.616,137.018Zm.8,5.133h0l.019-.045Zm-.235-1.737ZM242.624,139.359Zm.572.636Zm-.929-2.913Zm-1.393.1-.305.051Zm-.636,1.972v0Zm.064.4Zm2.035-1.3Zm-4.936,4.682Zm-.076-.413h-.032Zm-.522,1.495Zm-.057-.407Zm-1.272-3.123Zm.674-1.495ZM236.193,143.633Zm.636-2.888Zm-.293,2.245h0a.562.562,0,0,1,.089-.019ZM236.536,142.991Zm-.248-3.435h0v.032Zm.248,3.492Zm-.572-2.411h0s.089-.019.089-.032Zm.114,1.826Zm-.223-.159Zm0,0Zm.56,1.177ZM235.83,140.535Zm.413,3.072Zm.388,0Zm.083.108Zm.121-.159Zm2.958-4.268h0l.013-.025Zm.134.636Zm0,0Zm-4.618.471Zm.636,2.8Zm0,0Zm2.194-2.5h-.006Zm0,0Zm6.03,2.449a.33.33,0,0,1-.089.1h0a.492.492,0,0,1,.057-.083l.032-.038s-.025-.006-.019.006Zm.636-1.7.045.057H244.8l-.038-.083ZM238.712,137.113Zm-3.587,3.772Zm.312,1.317Zm.49,1.209Zm0,0Zm1.851-.331Zm2.175-2.493v-.051h0v.038s.019.006.019.013Zm2.455-1.209Zm.5,2.792h.019Zm1.851,1.908h-.019l.038-.051Zm.184-2.869.134.153h-.045c-.019,0-.045-.064-.07-.127Zm-4.911-3.46Zm-.846.045h0s.025.045.019.025Zm-4.109,3.04Zm.916,5v-.057h0v.032h0Zm.681-.4h0s.013.025.019.025Zm.2-.2ZM237.1,143.633Zm.636-.324ZM237.815,143.2Zm.432-.274h0s.006.038.006.025Zm6.488.891h0a4.354,4.354,0,0,0-.038-.509h0v.223a.5.5,0,0,0,.032.216C244.761,143.818,244.735,143.8,244.735,143.818Zm.98-2.315Zm0-.369a1.95,1.95,0,0,1-.127-.286.5.5,0,0,0-.083-.191h0a.853.853,0,0,1,.083.146h0a.8.8,0,0,1,.083.165.409.409,0,0,0,.064.146ZM235.315,142.3Zm.35,1.864Zm.305-.471h0l-.025.025Zm0,2.4v-.032h0Zm.331-.375ZM236.937,145.325Zm.178-.719h0s-.07.006-.057,0Zm.305-1.221ZM238.107,142.972Zm.515,1.139Zm1.908-.744Zm.5-1.272h0v.038Zm1.12-2.334h0v-.038a.083.083,0,0,1-.051.025Zm2.913-3.638h.038a.41.41,0,0,0-.089-.038Zm-7-.96Zm0-.045Zm-2.423,1.577h0l-.191.216h0a2.162,2.162,0,0,1,.134-.229Zm0,7.385Zm.274,1.966Zm4.179-2.373Zm0,0Zm0,0ZM240.817,143.461Zm2.831-.305h-.2a.127.127,0,0,0-.051,0l.057-.089h0a.89.89,0,0,1,.324.108h.051a.172.172,0,0,0-.045.051h-.064Zm.471,4.147h0Zm.1-.248Zm.706-8.574h-.1l.038.089v.013a.745.745,0,0,0-.076-.191,1.474,1.474,0,0,1-.07-.178h0a.185.185,0,0,1,0-.051h0a2.1,2.1,0,0,0,.229.261l.1.089ZM239.837,136.573Zm-.083-.394Zm-2.061-1.5ZM237.694,134.512Zm-5.89.636.045-.057c.038-.038.07-.083.115-.121l.191-.216h0l-.14.057h0l-.045.045a.451.451,0,0,0-.064.089l-.038.057v.045a.274.274,0,0,1-.083.1h-.032Zm.636.14.076-.07.242-.267.038-.038a5.965,5.965,0,0,0-.388.49h-.032ZM235.423,144Zm-.178-.127Zm.121,2.544h-.038s-.083-.045-.064-.045ZM235.429,146.5Zm1.673-1.514Zm.089.038Zm.674-.108h0s.019.032.025.025Zm.821-.363Zm.324-1.476Zm.2.426h0s.057.025-.006.025Zm2.506-2.99Zm.84,2.411.191-.35a.329.329,0,0,0,.1.045.172.172,0,0,0,.064.083l-.057.045h0v-.1l-.1.1-.134.153-.057.07Zm1.59,4.548Zm.121.057Zm.044,0Zm1.781-6.577a.083.083,0,0,0-.083-.032.089.089,0,0,0-.07.076h0l-.045-.07h0v-.07q-.064-.134-.134-.286.108.134.21.248l.127.146ZM242.8,128.59Zm-6.514,4.516Zm-2.264-1.043a.365.365,0,0,0,0,.089h0a.5.5,0,0,1,0-.089,1.966,1.966,0,0,0,.07-.293,1.6,1.6,0,0,1-.076.331Zm-1.412,3.384a.676.676,0,0,0,.1-.121.566.566,0,0,0,.121-.127.467.467,0,0,1,.051-.057l-.127.159-.051.064a1,1,0,0,1-.1.127h0Zm.274.121a.42.42,0,0,0,.1-.108l.35-.375.223-.235c.051-.064.108-.121.165-.184l-.2.248c-.051.051-.1.108-.146.165a4.683,4.683,0,0,0-.433.56h-.089Zm.483,0,.1-.108-.248.318h0a2.444,2.444,0,0,1,.146-.261Zm.541.369h0a.332.332,0,0,1-.07.083h0Zm1.374,3Zm-2.074,1.558ZM233.839,141.07Zm1.609,5.273h0v-.051ZM237.516,145.331Zm0,0Zm.076.108V145.4h0Zm.083-.21Zm4.453-2.417.076-.305h.127c-.064.127-.134.248-.2.369v-.064Zm.935,4.364Zm0,0ZM243.807,147.392Zm.331.407Zm.248-.083v0Zm2.341-1.762Zm-.2-4.726h0l.051-.057Zm.146-2.487Zm.191-.871Zm-.1-.159Zm.636-.318h0l.032-.038Zm1.908.146ZM249.22,137.355Zm-.636-.089v-.038h0a.064.064,0,0,1,.038-.013Zm-.808.407v.032h0v-.057h0Zm-.14.274h0v-.032h0Zm-.108-.2Zm2.544-1.005Zm-.064-.064Zm-.261.375Zm-1.686-.165Zm-.426.5h0v-.045h0a.064.064,0,0,1,.057.013Zm-.375.394Zm-1-3.13Zm-.229.2Zm.261-.254Zm-6.062,1.4h.254a4.681,4.681,0,0,0-.534.121l-.038-.051Zm-4.007-2.811Zm-3.269,4.9Zm-.636-.121Zm-.153.229a.551.551,0,0,0,.045-.108l.051-.045Zm-.159-.273Zm-.184.293-.045.076v-.057a.443.443,0,0,0,.032-.083l.051-.115a.089.089,0,0,0,.051-.032Zm-.134-.356Zm-.178.293.076-.184h.032c.038.025,0,.064-.038.134Zm-.184-.3.032-.051h.064l-.07.032Zm2.156,3.18Zm1.355,1.412v.057a.228.228,0,0,1-.045.064Zm-.636,3.021h0a.089.089,0,0,0,.1-.057h0l.076.445-.229.134Zm.286-.1V145.2a.191.191,0,0,0,.038.146l.14.172v-.254l.032.045.153.178v-.242h0v.045l.153.261c-.21.089-.413.2-.636.312Zm.534-.14a.435.435,0,0,1,0-.089.4.4,0,0,0,0-.1.3.3,0,0,0,.038.1l.14.223V145.1a.768.768,0,0,1,0-.121v.045a.127.127,0,0,0,0,.127l.051.038h.045a.1.1,0,0,0,.051-.1.713.713,0,0,1,.083-.293.348.348,0,0,0,0,.114v.1l-.045.089h.07c-.134.146-.273.293-.433.445h0Zm-3.015,2.786.235.21a.99.99,0,0,1-.153-.121h0a.108.108,0,0,1-.076,0h0Zm0,.407h-.051a.1.1,0,0,0-.045-.057l-.165-.064h.032l.134.114.172.146Zm-.051.343-.216-.159-.057-.045h0a.28.28,0,0,1-.1-.038h-.038l.051-.051a1.469,1.469,0,0,0,.21.191,1.348,1.348,0,0,1,.21.025Zm-.528,0h-.051a.063.063,0,0,1-.057,0l.038-.045h0l.528.426Zm-.089.293c.121.114.248.216.375.318h.032l-.261-.178-.242-.165h0a.337.337,0,0,1-.076,0h-.032l.057-.064.045.045a.338.338,0,0,0,.14-.013Zm1.164,1.775.083.083h0l-.134-.121Zm.165.159h0l-.038-.038Zm.407.318v.07l-.038-.032-.07-.076h0v-.038l.07.057Zm.121-.293h0a.274.274,0,0,0-.076-.07h0l.057.038Zm.337-.49h0a.064.064,0,0,0,.032,0h0s0-.07-.006-.057Zm3.721-5.146Zm.344,0Zm.471-.5v.032h0a.046.046,0,0,1,.025-.089Zm3.588-3.244Zm2.684,6.227Zm4.014-7Zm2.055-3.378h0q0,.035,0,.07a.1.1,0,0,0,0,.038h0a.414.414,0,0,0,0-.083Zm.248-.242Zm.426,0h0a.241.241,0,0,1-.051.07h0v-.045a.285.285,0,0,1,.064-.051Zm-1.406-.681h0v-.032h0Zm-8.39-3.817a.3.3,0,0,1-.108,0Zm-.636,1.31h.2a.809.809,0,0,1-.165-.057Zm-.814,1.724h.3l-.312.076-.032-.051Zm-5.865-4.383h0v-.038h0s.038-.025.032-.019Zm-.216-.146Zm-.089.178h.045v-.057Zm0,.165h0l-.038.153a1.952,1.952,0,0,1-.1.324h-.045a.859.859,0,0,0,.248-.534Zm1.406,6.8.127-.134h0a.979.979,0,0,1-.146.2h-.038Zm-7.3,2.131a.733.733,0,0,1,0,.121v-.121Zm.108.305h.032a.412.412,0,0,0,.057.1.636.636,0,0,0,.064.178l.038.089a.178.178,0,0,1,0,.057,2.809,2.809,0,0,0-.184-.4Zm2.328.426Zm4.109,2.169Zm-3.18,5.839-.108-.07h0a.089.089,0,0,1-.07,0h0v-.032Zm0,.369h0a2.538,2.538,0,0,1-.254-.172h-.146l.057-.083Zm-.426.064h-.134a.225.225,0,0,1,0-.051Zm2.748,1.482h0v-.032h0a.186.186,0,0,1-.006.045Zm1.24-1.756-.1-.1.108.089.057.045h0Zm7.7.668Zm-.057-.674.134.032h-.121Zm.083.242h0Zm0,.21h-.051Zm-.1-.7a1.36,1.36,0,0,1,.216.057h-.216Zm-.057-1.011h0Zm.223,2.729h-.083v-.07h.064a1.761,1.761,0,0,0,.229.051h.045a1.529,1.529,0,0,0-.254.032Zm-.108-.331a1.755,1.755,0,0,0,.3.064h-.318v-.07Zm.134.553.223.045.076.045-.114-.032h-.28V151.1Zm.045-.731a.7.7,0,0,1-.165,0v-.057l.242.064Zm.1,1.908h-.21v-.057a1.2,1.2,0,0,1,.21.038Zm.057-.28.083.045h-.2a.559.559,0,0,1-.146,0v-.089a1.156,1.156,0,0,0,.267.013Zm-.286-.318.254.064h-.242a.088.088,0,0,0,0-.045Zm.254.859h-.248a.326.326,0,0,0,0-.083h0a1,1,0,0,1,.248.064Zm-.216.274v-.064l.21.064Zm0,.426v-.032l.1.032Zm0,.2.108.032h-.1Zm.051.28h-.045V153.7l.134.038a.419.419,0,0,1-.1-.019Zm-.045.2h0Zm0,.229Zm.223-2.672h-.274v-.1a4.456,4.456,0,0,1,.515.165,1.435,1.435,0,0,1-.235-.089Zm5.464-3.244.064-.108h.032a1.363,1.363,0,0,0-.1.159s.013-.064.013-.07Zm-2.9-4.16h0v-.674c.038.216.064.445.083.674Zm1.272-.884v.045h0a.466.466,0,0,1,.025-.064Zm.375.56a.37.37,0,0,0,.045.216h0a1.271,1.271,0,0,1-.064-.3Zm7.417-.433Zm-8.008-2.417h-.038l-.076-.127v-.051l.172.159ZM251.471,136.553Zm.426.178v0Zm-6.494,1.329a.51.51,0,0,0-.159.115l-.051.045a1.4,1.4,0,0,0-.115-.216,2.184,2.184,0,0,1-.108-.21.108.108,0,0,0,.114,0l.121-.051-.108-.083a.118.118,0,0,0-.032-.076c-.032-.032,0,0,0-.038h0l.242.286.146.165Zm5.28-5.5v-.038l.045.038Zm-10.75,3-.121.038h-.089l-.038-.064Zm-12.448,5.222a.261.261,0,0,0,0,.064l-.038-.07v-.089h0a.13.13,0,0,0,.032.083Zm3.066.528v.032l-.038-.14v-.032a.457.457,0,0,1,.057.127Zm1.469.178V141.4a.089.089,0,0,0,0-.038h0a.482.482,0,0,1,.025.108Zm1.132.121h0a.333.333,0,0,1,0-.07v.045Zm-1.406,5.782h0a.071.071,0,0,1,0-.032h0c0-.038.089-.14,0-.216h0a1.7,1.7,0,0,1,.21-.4l.057-.089h-.045a.152.152,0,0,0,.038-.07l.114.089v-.153h.051v-.064h0l.076.076.038-.121a.2.2,0,0,0,0-.083l.127.159V146.3l.115.324v-.464l.159.242v-.261l.134.216v-.331l.127.184V145.9h0l.146.165v-.191l.159.229v-.293l.14.184v-.229a.913.913,0,0,1,0-.184h0a.185.185,0,0,0,.045.153l.165.14v-.242h0l.153.114v-.191h0a.1.1,0,0,0,.064.051.089.089,0,0,0,.1-.064v-.083a.156.156,0,0,0,0,.051l.108.528-.051.032-.07.032-.1.051-.051.045h.089a12.787,12.787,0,0,0-1.577,1.2l-.305.293a.4.4,0,0,0-.2-.318Zm.3,5.089v.045l-.191-.178.153.1a.089.089,0,0,0,.064.045Zm-2.652-.712a.121.121,0,0,1,.032-.083c.032-.025.083.076.121.114h-.114Zm.223-.483Zm.1-.216h0v-.038l.057.051Zm.121-.229h0V150.8l.045.051h-.07Zm.127-.235v-.038l.057.051h0Zm.248-.413v-.038h0l.051.051.038.038h0Zm.242.089Zm.369-.1a2.027,2.027,0,0,1-.3-.2h0a.325.325,0,0,1-.108,0h0a.261.261,0,0,1,.045-.07l.42.331Zm-1.546,1.864v-.057l.108.089H229.3Zm13.173,2.6.178.051a.808.808,0,0,0-.178,0Zm0-.21a.36.36,0,0,0,0-.083l.242.076a.636.636,0,0,0-.21.013Zm2.169-1.272Zm.121-4.37a2.467,2.467,0,0,0-.2-.165l.14-.038-.07-.057V148.4a.07.07,0,0,1,0-.038h0a.292.292,0,0,0,.038.165l.172.216v-.274a.229.229,0,0,1,0-.114h0a1.1,1.1,0,0,0,0,.248l.057.363Zm.115-.636Zm3.18.286a.14.14,0,0,0,0-.064h.07a.14.14,0,0,0-.032.051.306.306,0,0,0-.057.07Zm.7-.6a.23.23,0,0,0,0-.057h0l-.07.083a3.542,3.542,0,0,0-.28.35l-.108.153c.1-.14.2-.274.3-.4Zm.305-.1h.038a.185.185,0,0,1,.114-.045h0a.856.856,0,0,1,.134-.07l.14-.064.089-.038c-.223.14-.452.286-.668.445a.305.305,0,0,0,.165-.223Zm3.46.305h0Zm-6.176-3.626v-.1a3.181,3.181,0,0,0-.165-1.38,2.113,2.113,0,0,1,.216.509,2.618,2.618,0,0,0,.051.343,1.838,1.838,0,0,1,.051.515.1.1,0,0,0,.083.1c.038,0,.083,0,.1-.1v-.051a1.565,1.565,0,0,0,0-.6,1.671,1.671,0,0,1-.038-.312.739.739,0,0,0,0,.114,2.691,2.691,0,0,1,.121.846c0,.1.044.127.07.134a.089.089,0,0,0,.1-.057v-.121a.718.718,0,0,1,.032-.267h0a1.819,1.819,0,0,1,0,.274c0,.051,0,.121.038.146l.038.038h.051a.115.115,0,0,0,.051-.108,2.241,2.241,0,0,0,0-.636h0a2.03,2.03,0,0,1,.089.732v.07h.07a.121.121,0,0,0,.1,0,.165.165,0,0,0,.032-.153h0v-.064a.592.592,0,0,1,0-.2v-.051a3.811,3.811,0,0,1-.076-.388,1.226,1.226,0,0,0-.064-.318l.1.14a1.3,1.3,0,0,0,.07.312,2.124,2.124,0,0,1,.089.636.1.1,0,0,0,.083.1c.038,0,.083,0,.1-.1v-.076a1,1,0,0,0,0-.312v-.076a1.227,1.227,0,0,1-.064-.318.556.556,0,0,0-.032-.223l.032.045a1.52,1.52,0,0,0,.057.286,4.309,4.309,0,0,1,.1.731v.42a7.168,7.168,0,0,0-1.463-.483Zm2.315-3.893Zm-2.042.235h0l-.032.057h-.032v-.064a.076.076,0,0,0-.076-.076h0a.089.089,0,0,0-.057.051v-.089a.714.714,0,0,0-.089-.235,1.126,1.126,0,0,0,.172.178ZM246.815,140.166Zm4.663-2.767a.292.292,0,0,0-.032-.089l.076-.083h0a.133.133,0,0,1,0,.038h0a.814.814,0,0,0-.032.14Zm-5.966.553-.064-.2a1.437,1.437,0,0,0-.1-.248l.1.115a1.074,1.074,0,0,0,.114.134l.089.083a1.345,1.345,0,0,0-.134.159Zm6.17-6.812ZM230.3,132.349Zm-3.429,7.983c.032-.108.07-.216.108-.318v.153a.864.864,0,0,0,0,.108,1.609,1.609,0,0,0-.064.5v.045a.153.153,0,0,0-.057-.051l-.045-.057Zm2.468,1.043.032-.032h0a.057.057,0,0,1-.019.038Zm2.373.229v.032a.893.893,0,0,1,0-.178l.038.115Zm2.544.471h0v-.057h0Zm.293.433a1.6,1.6,0,0,1,0-.248v-.083h0a.827.827,0,0,1,.051.235.636.636,0,0,1-.038.184v.076Zm-2.843,10.654h0a.682.682,0,0,1-.1-.089h.057l.038.038Zm1.654-1.126v-.07a.846.846,0,0,0-.305-.312l-.153-.165-.134-.146a3.3,3.3,0,0,0,.3.223l.07.051h0c.032.032.076.076.134.051h.057v-.083h0a.638.638,0,0,0-.108-.114l.051-.057h0l.057.038c.045,0,.064.038.076.064a3.442,3.442,0,0,0-.038.528Zm11.742-3.88Zm2.016.827h0v-.057l.038-.064a.844.844,0,0,1-.032.127Zm.763-.305a1.113,1.113,0,0,1,.1-.159l.038-.051-.045.07a.484.484,0,0,1-.1.146h0Z" transform="translate(-3536.851 -2326.255)" fill="#fff"/><path d="M227.771,150.909h0a.508.508,0,0,1-.07-.235v-.032a4.38,4.38,0,0,0-.464-.712h0a.153.153,0,0,0-.083-.064c-.045-.057-.083-.083-.127-.076a.089.089,0,0,0-.076.064v.076h.057a.1.1,0,0,0,0,.051.186.186,0,0,0,.045.051h0a.241.241,0,0,1,.038.083.489.489,0,0,0,.045.1.407.407,0,0,0,.064.083.209.209,0,0,1,.038.064,5.641,5.641,0,0,1,.267.509l.038.1a.877.877,0,0,0,.165.273l.178.184-.051-.254A.636.636,0,0,1,227.771,150.909Z" transform="translate(-3537.544 -2335.007)" fill="#fff"/><path d="M231.985,168.734c-.064-.07-.121-.146-.178-.223h0a.516.516,0,0,1-.127-.134c-.032-.038-.064-.083-.1-.121a.172.172,0,0,0-.064-.038h0l-.038-.045c-.051-.057-.153-.165-.28-.089l-.076.045.057.076a.7.7,0,0,1,.089.134,1.1,1.1,0,0,0,.121.178c.165.178.337.356.515.515a.425.425,0,0,0,.1.076l.051.038a.065.065,0,0,1,.032,0,.254.254,0,0,0,.14.076h.057l.076-.045-.051-.07C232.176,168.969,232.08,168.848,231.985,168.734Z" transform="translate(-3539.062 -2341.656)" fill="#fff"/><path d="M252.492,171.74h-.108a.266.266,0,0,0-.2.051l-.076.1h.115a.847.847,0,0,1,.216.1l.172.083h.051a2.321,2.321,0,0,0-.318-.1h-.038a.085.085,0,0,0-.1.089v.045h.038l.534.337.356.223h.076a.114.114,0,0,1,.045.032.337.337,0,0,0,.2.089h.057l.115-.045-.083-.089a3.512,3.512,0,0,0-.585-.5l.051.032a3.585,3.585,0,0,0,.35.184,1.728,1.728,0,0,0,.172.127.738.738,0,0,0,.235.07h0l.159-.032-.114-.108A2.659,2.659,0,0,0,252.492,171.74Z" transform="translate(-3546.701 -2342.995)" fill="#fff"/><path d="M252.417,172.68h0a.1.1,0,0,0-.057.076.108.108,0,0,0,.064.108h0a1.57,1.57,0,0,0,.165.121.961.961,0,0,1,.178.14h0a.2.2,0,0,1,.1.051.318.318,0,0,0,.153.083.426.426,0,0,0,.267.14h.045l.114-.038-.1-.108a1.832,1.832,0,0,0-.922-.572Z" transform="translate(-3546.791 -2343.337)" fill="#fff"/><path d="M228.827,186.595a37.007,37.007,0,1,1,37.007-37.007A37.007,37.007,0,0,1,228.827,186.595Zm0-70.523a33.515,33.515,0,1,0,33.515,33.515A33.515,33.515,0,0,0,228.827,116.072Z" transform="translate(-3524.76 -2321.466)" fill="#fff"/><path d="M128.106,158.84a3.816,3.816,0,0,1-1.438-.076,1.448,1.448,0,0,0-1.813.636,3.346,3.346,0,0,0-1.616,1,3.692,3.692,0,0,1,2.812.223,12.254,12.254,0,0,0,6.8,1.132,4.866,4.866,0,0,0,2.761,1.609,5.172,5.172,0,0,1-1.851-1.641s1.908.254,3,.464-.146-.884-.146-.884.636-.433-.178-.731c.2-.318.413-1.272-.757-.929s-2.252.8-3.422,0a.636.636,0,0,0,.636-1.011c.261-.49.509-.693.2-1.272.751-.254.712-.865.223-1.349.719-.318.693-1.043.267-1.272.452-.6.42-.98.057-1.323.528-.318.719-1.107.223-1.323a.77.77,0,0,0,.21-1.158c.3-.547,1.749-4.319,1.6-6.7-.134-.426-.884.356-2.888,2.417a17.638,17.638,0,0,0-3.588,5.407c-.4,1.011,0,2.423.146,3.524C129.639,157.651,129.054,158.567,128.106,158.84Z" transform="translate(-3499.803 -2332.945)" fill="#fff"/><path d="M131.2,161.21s-1.641.1-1.361,1.272a3.941,3.941,0,0,1,.146,2.175,1.517,1.517,0,0,0,1.355-1.616A12.13,12.13,0,0,0,131.2,161.21Z" transform="translate(-3502.194 -2339.163)" fill="#fff"/><path d="M239.574,333.213h-2.589v-2.3h-.865v5.623h.865v-2.468h2.589v2.468h.865V330.91h-.865Z" transform="translate(-3540.882 -2400.92)" fill="#fff"/><path d="M253.026,331.511a2.765,2.765,0,0,0-.916-.636,3.1,3.1,0,0,0-2.29,0,2.78,2.78,0,0,0-1.514,1.552,3.307,3.307,0,0,0,0,2.354,2.678,2.678,0,0,0,1.52,1.546,3.038,3.038,0,0,0,2.284,0,2.755,2.755,0,0,0,.916-.636,3,3,0,0,0,.636-.935,3.307,3.307,0,0,0,0-2.354,2.925,2.925,0,0,0-.636-.891Zm-.045,2.112a2.391,2.391,0,0,1-.146.833,2,2,0,0,1-.407.636,1.908,1.908,0,0,1-.636.439,2.208,2.208,0,0,1-1.66,0,1.838,1.838,0,0,1-.636-.439,1.908,1.908,0,0,1-.407-.636,2.449,2.449,0,0,1,0-1.667,1.91,1.91,0,0,1,.413-.636,1.947,1.947,0,0,1,.636-.445,2.024,2.024,0,0,1,.814-.159,1.979,1.979,0,0,1,.814.159,1.91,1.91,0,0,1,.636.445,2.022,2.022,0,0,1,.42.636,2.367,2.367,0,0,1,.159.84Z" transform="translate(-3545.238 -2400.827)" fill="#fff"/><path d="M263.185,330.91h-.865v5.623h3.3v-.852h-2.436Z" transform="translate(-3550.416 -2400.92)" fill="#fff"/><rect width="0.865" height="5.617" transform="translate(-3281.869 -2070.01)" fill="#fff"/><path d="M282.906,331.618a2.772,2.772,0,0,0-.992-.509,4.008,4.008,0,0,0-1.158-.159H279v5.617h1.749a4.292,4.292,0,0,0,1.164-.153,2.913,2.913,0,0,0,.986-.515,2.487,2.487,0,0,0,.674-.89,3.181,3.181,0,0,0,.235-1.272,3.11,3.11,0,0,0-.235-1.272A2.39,2.39,0,0,0,282.906,331.618Zm-3.034.184h.846a3.335,3.335,0,0,1,.922.121,1.774,1.774,0,0,1,.693.344,1.628,1.628,0,0,1,.452.592,2.225,2.225,0,0,1,.165.9,2.193,2.193,0,0,1-.165.9,1.628,1.628,0,0,1-.452.592,1.979,1.979,0,0,1-.693.35,3.555,3.555,0,0,1-.922.121h-.846Z" transform="translate(-3556.486 -2400.934)" fill="#fff"/><path d="M293.017,330.18l-2.767,6.081h.941l.6-1.406h2.379l.579,1.406h.941ZM292.158,334l.846-2,.827,2Z" transform="translate(-3560.58 -2400.654)" fill="#fff"/><path d="M303.438,333.187l-1.387-2.277H301.04L303,334.122v2.411h.865v-2.411l1.959-3.212h-1Z" transform="translate(-3564.507 -2400.92)" fill="#fff"/><path d="M320.827,330.18l-2.767,6.081H319l.6-1.406h2.379l.579,1.406h.941ZM319.962,334l.852-2,.827,2Z" transform="translate(-3570.701 -2400.654)" fill="#fff"/><path d="M333.816,331.222a1.851,1.851,0,0,0-.6-.242,2.951,2.951,0,0,0-.636-.07H330.89v5.617h.865v-2.379h.91a2.278,2.278,0,0,0,.636-.1,1.793,1.793,0,0,0,.566-.305,1.565,1.565,0,0,0,.407-.522,1.6,1.6,0,0,0,.153-.706,1.469,1.469,0,0,0-.191-.77A1.412,1.412,0,0,0,333.816,331.222Zm-.2,1.272a.763.763,0,0,1-.076.362.58.58,0,0,1-.191.235.859.859,0,0,1-.286.14,1.422,1.422,0,0,1-.363.051h-.916v-1.52h.884a1.477,1.477,0,0,1,.375.044.943.943,0,0,1,.305.127.6.6,0,0,1,.191.21.694.694,0,0,1,.076.344Z" transform="translate(-3575.37 -2400.92)" fill="#fff"/><path d="M342.247,330.18l-2.767,6.081h.967l.6-1.406h2.373l.585,1.406h.89ZM341.388,334l.852-2,.821,2Z" transform="translate(-3578.496 -2400.654)" fill="#fff"/><path d="M355.29,333.722a1.589,1.589,0,0,0,.452-.49,1.52,1.52,0,0,0,.178-.751,1.475,1.475,0,0,0-.191-.789,1.343,1.343,0,0,0-.471-.49,1.565,1.565,0,0,0-.636-.235,3.289,3.289,0,0,0-.6-.057H352.3v5.617h.865v-2.468h.592l1.488,2.468h1l-1.533-2.544A1.786,1.786,0,0,0,355.29,333.722Zm-2.118-1.966h.77a2.952,2.952,0,0,1,.477.038.993.993,0,0,1,.356.134.521.521,0,0,1,.2.2.68.68,0,0,1,.076.35.6.6,0,0,1-.223.522,1.272,1.272,0,0,1-.814.21h-.846Z" transform="translate(-3583.161 -2400.92)" fill="#fff"/><path d="M362.09,331.762h1.673v4.771h.865v-4.771h1.667v-.852h-4.2Z" transform="translate(-3586.724 -2400.92)" fill="#fff"/><path d="M376.061,335.1l-1.908-4.186H373.3v5.623h.859v-3.5l1.9,3.778,1.9-3.8v3.524h.865V330.91h-.859Z" transform="translate(-3590.803 -2400.92)" fill="#fff"/><path d="M388.4,334.059h2.551v-.852H388.4v-1.444h2.71v-.852H387.53v5.623h3.683v-.852H388.4Z" transform="translate(-3595.982 -2400.92)" fill="#fff"/><path d="M402.086,334.936l-3.021-4.026h-.744v5.623h.865V332.5l3,4.033h.757V330.91h-.859Z" transform="translate(-3599.908 -2400.92)" fill="#fff"/><path d="M410.18,331.762h1.673v4.771h.865v-4.771h1.667v-.852h-4.2Z" transform="translate(-3604.225 -2400.92)" fill="#fff"/><path d="M424.01,333.744a2.232,2.232,0,0,0-.553-.3c-.185-.076-.382-.146-.6-.216l-.426-.159a1.546,1.546,0,0,1-.3-.178.668.668,0,0,1-.191-.229.859.859,0,0,1,0-.636.769.769,0,0,1,.21-.242.955.955,0,0,1,.325-.153,1.272,1.272,0,0,1,.9.051.9.9,0,0,1,.356.274l.235.286.636-.572-.216-.267a1.851,1.851,0,0,0-.687-.509,2.283,2.283,0,0,0-1.539-.064,1.863,1.863,0,0,0-.592.305,1.54,1.54,0,0,0-.426.522,1.52,1.52,0,0,0-.159.706,1.623,1.623,0,0,0,.134.681,1.509,1.509,0,0,0,.375.5,2.238,2.238,0,0,0,.528.318c.178.076.375.146.591.216l.458.159a1.492,1.492,0,0,1,.344.191.718.718,0,0,1,.21.229.567.567,0,0,1,.07.293.814.814,0,0,1-.07.35.763.763,0,0,1-.2.248.973.973,0,0,1-.312.165,1.508,1.508,0,0,1-1-.051,1.349,1.349,0,0,1-.483-.343l-.235-.254-.636.572.242.267a2.136,2.136,0,0,0,.751.528,2.436,2.436,0,0,0,.973.191,2.152,2.152,0,0,0,.681-.1,1.6,1.6,0,0,0,.6-.324,1.546,1.546,0,0,0,.413-.528,1.655,1.655,0,0,0,.159-.719,1.49,1.49,0,0,0-.159-.693,1.406,1.406,0,0,0-.407-.509Z" transform="translate(-3608.074 -2400.853)" fill="#fff"/><path d="M302.217,236.781a1.1,1.1,0,0,0-.859-.4,1.781,1.781,0,0,0-.814.3q-6.908,6.507-10.254,6.5-2.137,0-2.843-2.436l-.1-.509a15.6,15.6,0,0,1-.2-2.029v-.712l.1-3.149a1.838,1.838,0,0,0-.636-1.826,1.666,1.666,0,0,0-1.215-.407,6.1,6.1,0,0,0-1.12-.1.91.91,0,0,0-.636.254,3.4,3.4,0,0,0-.56,1.069v.1l-2.436,5.89q-2.43,5.992-4.364,9.847c-.273.541-.636,1.183-1.018,1.908s-.808,1.558-1.215,2.436c-.2.2-.375.274-.509.2v-.407a64.716,64.716,0,0,1,.636-7.41c0-.2.305-2.264.91-6.2a8.114,8.114,0,0,0,.2-1.52,5.8,5.8,0,0,0-.2-1.425,3.085,3.085,0,0,0-1.272-1.826,3.467,3.467,0,0,0-2.08-.814,1.94,1.94,0,0,0-1.527.712,54.376,54.376,0,0,0-2.64,4.974l-1.215,2.544q-4.453,8.326-7,12.391a14.572,14.572,0,0,1-.91,1.317c-.274.343-.509.636-.712.916,0,.07-.172.2-.509.407v-4.37l.407-4.364a16.855,16.855,0,0,1,.2-2.029c.064-.274.134-.592.2-.967a8.172,8.172,0,0,0,.1-1.368l.407-2.334.5-2.945.407-3.047a20.363,20.363,0,0,0,.2-2.334,2.742,2.742,0,0,0-1.215-2.137,2.3,2.3,0,0,1-.636-.4,3.957,3.957,0,0,0-1.724-.509,1.94,1.94,0,0,0-1.272.458,1.737,1.737,0,0,0-.636,1.062q-.468,1.908-.878,3.995a1.049,1.049,0,0,0-.541-.134,1.952,1.952,0,0,0-1.17.407,2,2,0,0,0-.757,1.011,71.618,71.618,0,0,1-3.25,7,58.031,58.031,0,0,1-3.25,5.089,30.823,30.823,0,0,1-4.16,4.771,15.483,15.483,0,0,1-7,4.058,7.7,7.7,0,0,1-2.233.305,1.819,1.819,0,0,1-1.724-.91c-.07-.2-.14-.394-.2-.56s-.14-.324-.2-.458a13.281,13.281,0,0,1-.712-4.669l.1-2.64a21.284,21.284,0,0,1,1.221-5.089l.2-.2.6-.305c1.355-.674,2.373-1.221,3.047-1.628a42.4,42.4,0,0,0,4.453-3.753,9.274,9.274,0,0,0,1.52-1.73,22.686,22.686,0,0,0,3.149-5.089,16.923,16.923,0,0,0,1.011-3.651,2.869,2.869,0,0,0-1.011-2.436,2.258,2.258,0,0,0-.712-.407l-1.317-.509a2.881,2.881,0,0,0-1.221-.2,2.589,2.589,0,0,0-1.12.2,10.267,10.267,0,0,0-3.855,1.826l-1.826,1.425-2.035,2.233-.91,1.12q-1.832,2.843-2.029,3.244c-.452.706-.859,1.425-1.24,2.15a1.653,1.653,0,0,0-1.094-.42,1.6,1.6,0,0,0-1.628,1.215q-.916,1.724-4.313,7.36a69.288,69.288,0,0,1-5.025,7.569,28.383,28.383,0,0,1-4.675,4.771,15.689,15.689,0,0,1-2.64,1.52,1.762,1.762,0,0,1-1.215,0,2.023,2.023,0,0,1-.407-1.317,8.208,8.208,0,0,1-.1-1.527,13.136,13.136,0,0,1,.305-2.945c.471-1.908.814-3.142,1.018-3.753l.6-2.544.636-2.131q.5-1.832,1.018-3.25a9.1,9.1,0,0,0,.407-1.018c.134-.407.3-.846.5-1.317s.407-1.272.814-2.334a7.939,7.939,0,0,0,.636-2.64,2.881,2.881,0,0,0-.2-1.221,2.527,2.527,0,0,0-2.233-.916,2.858,2.858,0,0,0-2.843,1.425l-.712,1.317c-.356.687-.636,1.336-.935,1.972a1.425,1.425,0,0,0-1.2-.445,5.179,5.179,0,0,0-1.908.808c-.948.547-1.628.954-2.029,1.221a6.227,6.227,0,0,1-2.341,1.018l-.4-.1a2.907,2.907,0,0,1-1.323-1.73,9.421,9.421,0,0,1-.509-3.346,4.713,4.713,0,0,0-.1-1.12.986.986,0,0,0-.305-.712,1.47,1.47,0,0,0-1.215-.706,5.09,5.09,0,0,1-1.12-.1.954.954,0,0,0-1.011.6l-.636,1.323-1.221,3.454q-3.753,9.541-5.381,13.1c-.2.471-.91,2.029-2.131,4.669a.942.942,0,0,1-.509.509v-4.268l-.1-1.724v-2.334a4.6,4.6,0,0,0-.051-.636,1.717,1.717,0,0,1,.051-.712,8.938,8.938,0,0,0,.1-1.622,8.266,8.266,0,0,0-.1-1.527.967.967,0,0,1-.051-.5,1.142,1.142,0,0,0,.051-.305V235.7a11.385,11.385,0,0,0-.1-2.544,2.125,2.125,0,0,0-1.323-1.425.579.579,0,0,1-.407-.1l-1.215-.4-.916-.305c-.407-.2-.846-.07-1.323.4a1.481,1.481,0,0,0-.4.712,2.944,2.944,0,0,0-.1.509,26.989,26.989,0,0,0-.2,3.747,2.113,2.113,0,0,0-.636-.089,1.826,1.826,0,0,0-1.418.706l-3.352,3.759-3.486,3.937a6.241,6.241,0,0,1-1.622,1.622,2.086,2.086,0,0,1,.1-.814l1.908-7.818a17.18,17.18,0,0,0,.2-1.908v-.712a2.156,2.156,0,0,0-1.17-1.469,4.1,4.1,0,0,0-2.182-.636,1.635,1.635,0,0,0-1.622.814c-.07.134-.191.42-.356.859a4.363,4.363,0,0,1-.56,1.069q-2.646,5.273-3.956,7.309c-.2.343-.636,1.05-1.323,2.131a18.814,18.814,0,0,1-2.131,2.843,23.164,23.164,0,0,1-3.454,3.25,2.188,2.188,0,0,1,0-1.317,58.687,58.687,0,0,1,1.527-5.992l1.52-4.065,1.221-3.244a1.978,1.978,0,0,0-.1-1.628,3.492,3.492,0,0,0-1.425-1.272,4.256,4.256,0,0,0-1.908-.458,1.978,1.978,0,0,0-1.425.407,4.372,4.372,0,0,0-.4.706c-.452.878-.852,1.692-1.228,2.487a.093.093,0,0,0-.044-.1,1.145,1.145,0,0,0-.961-.458,1.8,1.8,0,0,0-1.628,1.113l-2.742,6.094-2.544,5.788-1.52,3.352q-1.425,3.346-3.047,6.393a16.119,16.119,0,0,1-1.018,1.628,9.848,9.848,0,0,0-.808,1.317c-.2.2-.343.274-.407.2V261.8l.636-5.585c.134-1.488.267-2.6.407-3.352.2-1.081.572-2.7,1.113-4.872q.509-2.544,1.908-7.41,1.113-3.657,1.73-6.3a7.977,7.977,0,0,0,.2-.859,5.728,5.728,0,0,0,.1-.865,1,1,0,0,0-.509-1.215c-1.088-.547-1.908-.916-2.436-1.12a.681.681,0,0,0-.712,0,2.767,2.767,0,0,0-1.622,1.52,3.735,3.735,0,0,0-.407.916l-.407.407c-.884-.674-1.355-1.05-1.425-1.12a5.088,5.088,0,0,0-2.742-.91,5.724,5.724,0,0,0-1.826.305,7.105,7.105,0,0,0-3.956,2.939,22.848,22.848,0,0,0-1.418,2.3,1.228,1.228,0,0,0-1.018-.363,5.025,5.025,0,0,0-1.527.305,27.413,27.413,0,0,0-3.753,1.908l-.712.305-.712.2-5.381,2.544L104,243.612l-2.64,1.317a11.011,11.011,0,0,1-1.374-1.113c-.5-.471-.96-.878-1.368-1.221a27.389,27.389,0,0,0-4.268-2.742,22.852,22.852,0,0,0-2.64-1.011.86.86,0,0,1-.248-.051.452.452,0,0,1-.254-.254,2.779,2.779,0,0,0,.96-.763c.235-.305.388-.49.458-.56l.305-.305,1.908-1.724a18.1,18.1,0,0,1,1.832-2.029l2.029-2.131,3.855-4.065.814-1.011,1.826-2.137c.2-.267.528-.636.967-1.113a6,6,0,0,0,.967-1.323c0-.064.064-.165.2-.305A7.928,7.928,0,0,0,108.7,219.5a16.062,16.062,0,0,1,1.069-1.469,7.7,7.7,0,0,0,.859-1.272,8.269,8.269,0,0,1,.763-1.17,46.258,46.258,0,0,0,2.544-4.16,55.969,55.969,0,0,0,2.436-5.687,14.77,14.77,0,0,0,.814-4.669l-.1-1.724a10.437,10.437,0,0,0-.712-3.556,10.167,10.167,0,0,0-3.149-4.567l-.2-.1a4.073,4.073,0,0,0-.636-.509,2.92,2.92,0,0,0-.865-.407,4.485,4.485,0,0,0-1.069-.56c-.439-.165-.8-.286-1.062-.356a15.731,15.731,0,0,0-5.992-.706A20.178,20.178,0,0,0,97.506,190a49.7,49.7,0,0,0-5.483,2.436,23.032,23.032,0,0,0-2.544,1.323L86.132,196.1q-.916.636-4.573,3.855a74.961,74.961,0,0,0-6.087,6.5,66,66,0,0,0-5.795,8.5q-2.843,4.968-4.268,8.123a.267.267,0,0,1-.305.305,2.709,2.709,0,0,1,0-1.018l.407-4.262c.274-2.443.439-4.268.509-5.483l.814-7.633a5.725,5.725,0,0,0-.2-1.724,6.259,6.259,0,0,0-2.029-.636,1.673,1.673,0,0,0-1.221.407,3.7,3.7,0,0,0-.814.916q-.4,1.011-1.011,3.047a73.8,73.8,0,0,0-1.323,7.41,27.991,27.991,0,0,0-.509,3.149l-1.113,9.236-.305,2.334-.509,5.279c-.267,2.035-.439,3.556-.509,4.573-.134,1.355-.267,3.244-.4,5.687v4.058a1.7,1.7,0,0,0,.706,1.558,1.737,1.737,0,0,0,1.12.407,1.412,1.412,0,0,0,.636-.1l1.317-.305c.477-.134.744-.369.814-.706a7.189,7.189,0,0,1,.2-.712c.064-.2.134-.407.2-.636a47.987,47.987,0,0,0,1.011-4.974c.07-.407.172-1.081.305-2.029a18.445,18.445,0,0,0,.2-2.544,3.461,3.461,0,0,1,.2-.814,25.884,25.884,0,0,1,1.018-3.658,56.925,56.925,0,0,1,2.544-6.8,50.618,50.618,0,0,1,3.25-6.7l2.735-4.981.916-1.419a27.507,27.507,0,0,0,1.628-2.436l2.742-3.454a51.122,51.122,0,0,1,3.753-4.262q1.221-1.317,3.861-3.759,3.441-2.742,3.142-2.544,2.233-1.622,3.352-2.334c.541-.267,1.151-.592,1.826-.967s1.457-.757,2.341-1.164a22.428,22.428,0,0,1,5.578-1.908,12.533,12.533,0,0,1,2.742-.3,10.668,10.668,0,0,1,2.544.3,4.007,4.007,0,0,1,2.805,2.754,14.725,14.725,0,0,1,.916,6.4L111,202.464a36.669,36.669,0,0,1-3.651,8.53,19.561,19.561,0,0,0-1.069,1.679c-.375.636-.827,1.336-1.368,2.08a8.911,8.911,0,0,0-.712,1.011,9.229,9.229,0,0,1-.712,1.018c-.273.337-.636.827-1.119,1.469a13.2,13.2,0,0,1-1.317,1.578q-2.843,3.454-2.64,3.25c.064-.07-.878.98-2.843,3.142l-1.908,2.137a28.49,28.49,0,0,0-2.334,2.544l-.1.1-4.9,4.9L85.2,236.914a1.806,1.806,0,0,0-.509,1.323v.407a.706.706,0,0,0,.2.509,4.2,4.2,0,0,0,2.436,1.418c.407.07.9.14,1.476.2a11.783,11.783,0,0,0,1.368.1,5.489,5.489,0,0,1,2.64.712,15.43,15.43,0,0,1,4.16,3.448,6.749,6.749,0,0,1,.636.967q.261.458.458.763l-.305.305-4.974,3.346a54.2,54.2,0,0,0-4.669,3.759l-4.065,3.861a65.221,65.221,0,0,0-6.876,7.881c-1.018,1.558-1.908,3.085-2.742,4.573a43.749,43.749,0,0,0-2.742,6.6,17.11,17.11,0,0,0-.814,5.381,8.3,8.3,0,0,0,1.628,4.065,4.338,4.338,0,0,0,1.724,1.317,13.631,13.631,0,0,0,1.826.509,10.354,10.354,0,0,0,3.454.509,14.062,14.062,0,0,0,4.065-.636,27.814,27.814,0,0,0,8.727-4.364l.636-.407,3.657-2.742a8.011,8.011,0,0,0,.553-.636c.172-.2.324-.369.458-.509l.636-.6c.267-.2,1.018-.916,2.233-2.137a13.759,13.759,0,0,0,1.73-2.334l1.418-1.908.2-.407.636-1.113a19.573,19.573,0,0,0,1.826-3.963,17.5,17.5,0,0,0,1.119-5.381c0-1.622-.038-2.875-.1-3.753a25.506,25.506,0,0,0-1.527-5.687,24.349,24.349,0,0,0-2.233-4.37.331.331,0,0,1-.1-.254.343.343,0,0,0-.1-.254l2.843-1.52,6.094-3.047a16.089,16.089,0,0,1,2.945-1.419c1.686-.744,2.907-1.323,3.651-1.73a8.412,8.412,0,0,0,1.145-.751c-.235.5-.477,1.037-.738,1.667a33.853,33.853,0,0,0-2.544,6.9,25.514,25.514,0,0,0-1.12,5.992,4.234,4.234,0,0,0,1.73,3.861l1.215.636a2.977,2.977,0,0,0,2.742.3,9.439,9.439,0,0,0,3.047-1.978,16.662,16.662,0,0,0,2.544-2.792l.509-.636-.1,1.018a30.962,30.962,0,0,0-.305,5.089,18.967,18.967,0,0,0,.509,4.166,8.705,8.705,0,0,0,.636,2.029,3.181,3.181,0,0,0,1.571,1.622,3.773,3.773,0,0,0,2.284.305q1.527-.305,3.759-3.556a34.126,34.126,0,0,0,3.346-5.884q.636-1.323,3.149-7.111c-.038.083.515-1.24,1.647-3.95-.089.668-.165,1.4-.223,2.226a12.8,12.8,0,0,0,.5,3.759,2.308,2.308,0,0,0,.407.808,3.76,3.76,0,0,0,2.048,1.444l1.018.305a2.9,2.9,0,0,0,1.317.3,1.781,1.781,0,0,0,1.323-.5l.509-.2a7.673,7.673,0,0,0,1.418-1.018l1.527-1.622,2.64-2.945.6-.636a2.016,2.016,0,0,1-.146.763,1.514,1.514,0,0,0-.153.56l-.305,1.215-1.323,4.771a5.96,5.96,0,0,1-1.215,2.544q-2.843,3.257-4.166,5.089a84.28,84.28,0,0,0-4.892,7.41q-.2.4-.458.859c-.165.305-.356.636-.553,1.069q-1.323,2.341-2.843,5.279a60.016,60.016,0,0,0-5.788,16.538,30.391,30.391,0,0,0-.636,5.986,13.04,13.04,0,0,0,.814,4.268,3.409,3.409,0,0,0,1.826,1.908c.2.07.541.172,1.018.305a4.853,4.853,0,0,0,1.317.2,2.646,2.646,0,0,0,1.622-.407,12.491,12.491,0,0,0,2.035-1.724,28.458,28.458,0,0,0,3.346-5.089q1.908-3.759,3.047-6.4a9.543,9.543,0,0,1,.712-1.724,15.063,15.063,0,0,0,1.221-3.352l.808-2.131q.5-1.221,1.323-3.861.808-2.43,2.233-7.309l1.113-4.065,1.018-3.346L160,260.646l1.527-5.687a2.544,2.544,0,0,1,.636-1.221,10.6,10.6,0,0,1,1.011-1.215l4.166-4.675,1.215-1.52,6.011-6.653c0,1.7.038,3.365.083,4.93l-.1,5.089a27.8,27.8,0,0,0,.1,2.843,26.625,26.625,0,0,0,.2,2.939,9.7,9.7,0,0,0,1.622,4.37,3.244,3.244,0,0,0,1.908,1.317,6.493,6.493,0,0,0,1.908.2,2,2,0,0,0,1.336-.719,9.931,9.931,0,0,1,1.12-1.628,48.932,48.932,0,0,0,2.742-5.585q.9-2.029,2.544-6.087l3.346-8.733a1.272,1.272,0,0,1,.305-.636l.305.407c1.018,1.215,1.558,1.864,1.622,1.908a4.72,4.72,0,0,0,3.149,1.221,5.217,5.217,0,0,0,1.628-.305,16.15,16.15,0,0,0,4.567-2.436l.108-.076c-.07.229-.153.464-.21.681-.2.636-.439,1.323-.712,2.137s-.541,1.692-.814,2.64a15.267,15.267,0,0,0-.6,1.826c-.2.744-.375,1.355-.509,1.826a8.09,8.09,0,0,0-.407,1.425c-.07.407-.134.744-.2,1.011a11.339,11.339,0,0,0-.407,3.25,9.84,9.84,0,0,0,1.425,4.669,5.413,5.413,0,0,0,4.567,3.047,3.486,3.486,0,0,0,1.018.1,8.9,8.9,0,0,0,3.855-1.113,20.927,20.927,0,0,0,5.992-5.585l2.436-3.047q1.317-1.832,4.453-7.156l.038-.07a26.846,26.846,0,0,0-.751,4.179,14.628,14.628,0,0,0-.1,2.029,16.164,16.164,0,0,0,.1,2.035,10.426,10.426,0,0,0,.916,3.651,6.838,6.838,0,0,0,3.047,3.556,11.6,11.6,0,0,0,5.585,1.622,12.136,12.136,0,0,0,3.25-.509,20.526,20.526,0,0,0,4.872-2.741,32.825,32.825,0,0,0,4.872-4.567,17.178,17.178,0,0,0,1.724-1.908,54.575,54.575,0,0,0,4.115-6.959q1.05-2.08,1.806-3.817v.216c-.471,3.314-.744,5.655-.814,7,0,.636-.051,1.641-.153,3.1a31.524,31.524,0,0,0-.051,3.912,24.946,24.946,0,0,0,.407,3.651,5.763,5.763,0,0,0,2.544,3.556,3.39,3.39,0,0,0,1.832.509,4.383,4.383,0,0,0,2.411-.865l1.113-1.317a43.371,43.371,0,0,0,3.352-5.089l4.364-7.817.407-.6a7.22,7.22,0,0,1-.1,1.52l-.1,1.908a3.367,3.367,0,0,0-.051.967,3.18,3.18,0,0,1-.051.967,15.323,15.323,0,0,0,.509,4.16,4.529,4.529,0,0,0,.916,2.029c.471.636.744.948.808,1.018a2.5,2.5,0,0,0,.916.407,7.333,7.333,0,0,0,2.436.305,2.067,2.067,0,0,0,1.425-.712l.636-.712a29.683,29.683,0,0,0,3.047-5.178l2.036-4.364,2.544-5.687,1.113-2.742.305.509q1.908,4.058,5.788,4.058a11.787,11.787,0,0,0,6.24-2.08,33.372,33.372,0,0,0,5.839-4.618,1.667,1.667,0,0,0,.509-1.221A1.374,1.374,0,0,0,302.217,236.781Zm-69.9,1.03,1.215-1.826q.636-1.011,2.029-3.047l.916-1.018a2.928,2.928,0,0,1,.636-.636,3.254,3.254,0,0,0,.636-.636,4,4,0,0,1,1.622-1.221,19.082,19.082,0,0,1-3.861,6.6q-2.843,3.18-4.16,3.549C231.942,238.511,232.248,237.938,232.318,237.811Zm-131.784,27.3a31.438,31.438,0,0,1-2.544,5.585c-.471.744-1.05,1.571-1.724,2.487s-1.221,1.6-1.628,2.08l-1.826,2.029-.305.407-3.25,2.64A27.524,27.524,0,0,1,83.27,284.1a15.421,15.421,0,0,1-3.556,1.113H78.5a1.94,1.94,0,0,1-1.418-.636,5.241,5.241,0,0,1-1.52-3.511,13.746,13.746,0,0,1,.636-4.37,38.369,38.369,0,0,1,5.248-10.9,69.139,69.139,0,0,1,4.573-5.483c.4-.407,1.622-1.558,3.651-3.454a16.154,16.154,0,0,1,2.131-1.826l2.742-2.137c.407-.267,1-.674,1.781-1.215s1.438-.98,1.978-1.323a5.341,5.341,0,0,0,1.12-.706,2.836,2.836,0,0,1,.4.706c.14.407.337,1.037.636,1.908a11.163,11.163,0,0,1,.509,2.385c.267,1.966.439,3.549.509,4.771A17.81,17.81,0,0,1,100.533,265.112Zm30.055-25.183a39.048,39.048,0,0,1-1.12,4.065,15.507,15.507,0,0,1-1.826,3.352,28.731,28.731,0,0,1-3.759,4.771l-1.826,1.724-.407.305a8.328,8.328,0,0,1,.1-2.131c.267-1.151.744-2.875,1.418-5.178a32.4,32.4,0,0,1,1.73-4.268c.878-1.908,1.418-3.047,1.622-3.448a19.134,19.134,0,0,1,2.544-4.268l.407-.305.2.1a10.094,10.094,0,0,1,1.12,3.861,8.767,8.767,0,0,1-.21,1.418Zm21.519,26.716-1.826,6.5-3.556,11.876a28.117,28.117,0,0,0-1.011,3.454l-1.73,5.28a51.405,51.405,0,0,1-2.436,6.3c-.134.267-.42.8-.859,1.571a9.16,9.16,0,0,1-1.476,1.978l-.509.509a6.546,6.546,0,0,1-.5-1.622c-.14-1.221-.2-2.067-.2-2.544a8.208,8.208,0,0,1,.1-1.527,45.926,45.926,0,0,1,4.16-15.533l.916-1.826a26.187,26.187,0,0,1,1.52-3.18,86.371,86.371,0,0,1,4.567-8.225c.541-.674,1.272-1.762,2.239-3.25a4.917,4.917,0,0,0,.4-.458c.14-.165.305-.35.509-.553Z" transform="translate(-3475.652 -2349.109)" fill="#fff"/><path d="M292.633,237.579s-1.736-.1-2.124,1.272a3,3,0,0,0-1.374,1.24,4.445,4.445,0,0,1,2.945-.515,5.452,5.452,0,0,0,2.8.394,1.864,1.864,0,0,0,1.38,2.016c1.641.579,2.939,2.843,3.117,3.467,1.393-.744.083-3.289-.032-3.511.293.242.706-1.075.261-1.527.375.1.14-.681-.114-.91.49.369.184-.547,0-.712.267,0,.178-.566-.038-.712a4.163,4.163,0,0,1,3,.693c1.17.509-.235-.96-.235-.96s1.966-.21.458-.782c.681-.312,0-1.081-1.107-.961.5-.324-1.908-.286-3.537.108a.9.9,0,0,0-.941-.891c.509-.178-.216-.98-.547-1.037.108-.293-.324-.738-1.094-.553.337-.286-.286-.452-.884-.394.3-.337-.394-.782-1.164-.477.134-.413-.413-.515-1.043-.452-.528-.369-3.429-2.118-4.917-3.18s-2.175-1.52-2.4-1,.553,3.015,2,4.885,2.6,1.355,4.077,2.163A2.983,2.983,0,0,1,292.633,237.579Z" transform="translate(-3558.67 -2363.462)" fill="#fff"/></g></svg>