<svg xmlns="http://www.w3.org/2000/svg" width="150.941" height="123.317" viewBox="0 0 150.941 123.317"><g transform="translate(-588.5 -339.841)"><path d="M298.912,245.474s-3.165-.186-3.872,2.319a5.472,5.472,0,0,0-2.5,2.261c1.159-.591,3.8-1.553,5.368-.939a9.936,9.936,0,0,0,5.1.719,3.4,3.4,0,0,0,2.516,3.675c2.991,1.055,5.356,5.182,5.681,6.318,2.539-1.356.151-5.994-.058-6.4.533.441,1.287-1.959.475-2.782.684.186.255-1.24-.209-1.658.893.672.336-1,0-1.3.487,0,.325-1.032-.07-1.3.522-.336,3.084-.174,5.46,1.264,2.133.927-.429-1.751-.429-1.751s3.582-.383.835-1.426c1.241-.568,0-1.971-2.017-1.751.916-.591-3.478-.522-6.446.2a1.646,1.646,0,0,0-1.716-1.623c.928-.325-.394-1.785-1-1.89.2-.533-.591-1.345-1.994-1.009.614-.522-.522-.823-1.612-.719.545-.614-.719-1.426-2.122-.87.243-.754-.754-.939-1.9-.823-.962-.672-6.249-3.861-8.962-5.8s-3.965-2.771-4.371-1.82,1.009,5.5,3.64,8.9,4.742,2.469,7.431,3.942a5.437,5.437,0,0,1,2.771,4.255Z" transform="translate(421.197 203.331)" fill="#fff"/><path d="M132.109,170.947a6.956,6.956,0,0,1-2.62-.139c-1.542-.359-2.748,0-3.3,1.159a6.1,6.1,0,0,0-2.945,1.82c1.924-.429,3.907-.464,5.124.406s5.936,2.551,12.393,2.064a8.869,8.869,0,0,0,5.032,2.933,9.426,9.426,0,0,1-3.374-2.991s3.478.464,5.472.846-.267-1.611-.267-1.611,1.159-.788-.325-1.333c.371-.58.754-2.319-1.38-1.693s-4.1,1.461-6.237,0a1.159,1.159,0,0,0,1.159-1.843c.475-.893.927-1.264.371-2.319,1.368-.464,1.3-1.577.406-2.458,1.31-.58,1.264-1.9.487-2.319.823-1.09.765-1.785.1-2.411.962-.58,1.31-2.017.406-2.411a1.4,1.4,0,0,0,.383-2.11c.545-1,3.188-7.872,2.922-12.208-.243-.777-1.611.649-5.263,4.405a32.148,32.148,0,0,0-6.539,9.854c-.73,1.843,0,4.417.267,6.423C134.9,168.779,133.836,170.448,132.109,170.947Z" transform="translate(465.26 195.718)" fill="#fff"/></g></svg>