<svg xmlns="http://www.w3.org/2000/svg" width="46.18" height="46.18" viewBox="0 0 46.18 46.18"><g transform="translate(-83.81 -83.81)"><path d="M166.855,124.24a1.192,1.192,0,0,0,.292.054.516.516,0,0,0,.079,0h.048a.2.2,0,0,0,.083.056l.04.012.018-.036a.1.1,0,0,0-.024-.119.177.177,0,0,0-.183-.05l-.044.022a.95.95,0,0,0-.457-.052l-.268.046.268.05A.4.4,0,0,1,166.855,124.24Z" transform="translate(-66.209 -32.298)" fill="#fff"/><path d="M171.247,127.188h.091a.433.433,0,0,0,.139-.03l.038-.014.044-.01c.058-.012.131-.028.157-.1l.024-.066h-.2l-.032-.016H171.5l-.012-.016h-.022l-.149-.016a2.188,2.188,0,0,0-.346-.024h-.022c-.036,0-.105,0-.135.056l-.03.064h.07c.093,0,.2.018.286.024l.175.012a.161.161,0,0,0-.04.07Z" transform="translate(-69.687 -34.526)" fill="#fff"/><path d="M242.843,135.944l-.028-.014-.054.012v.032a1.522,1.522,0,0,0,.093.747.679.679,0,0,0,.169.276l.109.093-.038-.177c-.066-.312-.131-.636-.225-.928A.058.058,0,0,0,242.843,135.944Z" transform="translate(-127.354 -41.762)" fill="#fff"/><path d="M244.121,135.952v.016a1.147,1.147,0,0,0,.153.713l.1.121-.016-.229a4.232,4.232,0,0,0-.1-.773l-.038-.141-.056.135a.519.519,0,0,0-.024.091A.352.352,0,0,1,244.121,135.952Z" transform="translate(-128.447 -41.546)" fill="#fff"/><path d="M245.595,137.106v-.141a2.314,2.314,0,0,1,0-.262,1.507,1.507,0,0,0-.028-.443l-.038-.119-.054.111a.853.853,0,0,0,.032.749Z" transform="translate(-129.482 -41.931)" fill="#fff"/><path d="M246.7,137.789a.082.082,0,0,0,.036.024h.032a1.63,1.63,0,0,0,.65-.332l.079-.079h-.111a.866.866,0,0,0-.5.163l-.052.034a.809.809,0,0,0,.087-.215v-.024a.066.066,0,0,0-.079-.048h-.028l-.01.028a.083.083,0,0,1-.026,0h-.022l-.012.018-.042.058a.618.618,0,0,0-.161.4v.077l.07-.032A.272.272,0,0,0,246.7,137.789Z" transform="translate(-130.391 -42.868)" fill="#fff"/><path d="M152.6,158.473l-.135-.1.06.161a1.167,1.167,0,0,0,.147.252c.022.03.044.06.064.091l.066.109a1.049,1.049,0,0,0,.159.233l.109.111-.026-.155A1.077,1.077,0,0,0,152.6,158.473Z" transform="translate(-55.007 -59.743)" fill="#fff"/><path d="M149.529,160.992v-.026l-.042-.034a.827.827,0,0,0-.481-.223h-.018a.06.06,0,0,0-.06.058v.024l.016.016a1.664,1.664,0,0,0,.25.181,1.6,1.6,0,0,0-.2-.022H148.9a.737.737,0,0,0-.437.119l-.068.06.085.024a1.17,1.17,0,0,0,.3.028h.246a.515.515,0,0,1,.119-.02.32.32,0,0,0,.223-.072l.024-.026.105.04.06.02v-.064a.1.1,0,0,0-.032-.083Z" transform="translate(-51.754 -61.618)" fill="#fff"/><path d="M243.72,194.742h.014l.01-.014a.245.245,0,0,1,.05-.054.2.2,0,0,0,.081-.231v-.034h-.093l-.072.068a1.347,1.347,0,0,0-.286.33l-.054.1.107-.024a.461.461,0,0,0,.163-.078A.445.445,0,0,1,243.72,194.742Z" transform="translate(-127.851 -88.621)" fill="#fff"/><path d="M162.059,195.558l-.014-.018h-.125l.018.064a1.037,1.037,0,0,0,.443.566l.155.109-.083-.171A2.3,2.3,0,0,0,162.059,195.558Z" transform="translate(-62.588 -89.526)" fill="#fff"/><path d="M161.152,195.871l-.083-.161v.233a.444.444,0,0,0,0,.077.075.075,0,0,0-.026.018.067.067,0,0,0-.012.04,1.944,1.944,0,0,0-.141.634v.07h.022a.054.054,0,0,0,.056.04h.046v-.028c.034-.129.06-.266.085-.4a.083.083,0,0,1,.01-.048.219.219,0,0,0,.089.117l.076.048v-.089A1.244,1.244,0,0,0,161.152,195.871Z" transform="translate(-61.762 -89.663)" fill="#fff"/><path d="M244.791,195.886a.044.044,0,0,1,0-.016c0-.03-.01-.1-.076-.113h0a.235.235,0,0,0,.018-.113.346.346,0,0,1,0-.046v-.054H244.7a.056.056,0,0,0-.036-.024h-.034l-.018.028-.048.072a2.519,2.519,0,0,0-.161.268l-.054.107.113-.04a.4.4,0,0,0,.2-.119.717.717,0,0,1,.012.167.529.529,0,0,0,.03.236l.046.1q0,.029,0,.058a1.348,1.348,0,0,0,.06.306l.127.348-.032-.37A6.727,6.727,0,0,0,244.791,195.886Z" transform="translate(-128.637 -89.51)" fill="#fff"/><path d="M204.417,204.735v-.012H204.4a.062.062,0,0,0-.056,0,.064.064,0,0,0-.038.038v.028a.332.332,0,0,0,.022.087h-.01l-.01.024a.97.97,0,0,0,.03.729l.064.089.026-.107a1.659,1.659,0,0,0,.02-.5.678.678,0,0,0,.177.159l.1.064-.028-.117A1.039,1.039,0,0,0,204.417,204.735Z" transform="translate(-96.507 -96.879)" fill="#fff"/><path d="M170.085,120.276a.187.187,0,0,0-.089.042.358.358,0,0,0-.012-.177l-.032-.091-.054.079-.024.032-.032.044a1.192,1.192,0,0,0-.091-.427l-.058-.125-.034.133a.394.394,0,0,0,0,.052,1.193,1.193,0,0,0-.093-.256l-.076-.145-.016.163a1.02,1.02,0,0,0,0,.109,2.23,2.23,0,0,0-.163-.348l-.111-.2.02.225c.01.087.026.173.042.256l-.036-.079-.04-.085-.014-.018a.291.291,0,0,1-.032-.062c-.022-.05-.054-.125-.119-.1l-.04.016v0c-.022-.038-.044-.074-.064-.111l-.111-.2.02.231h0c-.054-.1-.113-.2-.179-.318l-.117-.2.022.2a.47.47,0,0,0-.052-.072l-.157-.2.074.238a.329.329,0,0,0,.028.089l-.107-.111.052.181-.089-.149-.187-.3.1.342a.235.235,0,0,0,.02.068l-.024-.034-.147-.2.06.233.012.044c-.026-.042-.052-.083-.078-.121l-.109-.163.016.151h0a.479.479,0,0,0-.048-.083.316.316,0,0,1-.052-.1v-.012h0a.494.494,0,0,1-.06-.085l-.024-.036a.062.062,0,0,0-.054-.062c-.04,0-.042,0-.06.042v.02l.01.02.079.175-.024-.036c-.012-.026-.03-.068-.072-.064a.058.058,0,0,0-.052.044v.018l.044.1c.034.074.068.147.1.223-.044-.077-.089-.153-.137-.233h0c-.012-.028-.03-.068-.07-.066a.062.062,0,0,0-.054.046v.034c.034.074.066.147.1.221l-.062-.1-.234-.366.147.409c.032.091.068.185.1.274h0l-.016-.028c-.03-.056-.066-.119-.089-.155s-.044-.076-.066-.111a1.232,1.232,0,0,0-.089-.149l-.229-.306.143.354c.044.107.087.215.133.322l-.046-.079a.8.8,0,0,0-.1-.139l-.187-.2.105.248c.07.165.141.338.215.509-.083-.159-.169-.3-.256-.439l-.234-.358.147.4c.04.113.085.225.131.332a.737.737,0,0,0-.042-.066.647.647,0,0,1-.04-.062l-.056-.111a2.093,2.093,0,0,0-.1-.187l-.022-.034c-.052-.085-.1-.167-.161-.254a.022.022,0,0,0-.01-.018.149.149,0,0,0-.036-.06.072.072,0,0,0-.024-.036.113.113,0,0,0-.02-.038.058.058,0,0,0-.066-.016.052.052,0,0,0-.036.056v.056h.02l.018.036h0c.076.137.145.284.211.427l.016.036.018.038c-.058-.1-.117-.2-.177-.292l-.234-.37.147.413c.042.113.091.221.139.322l.081.177c-.026-.04-.048-.079-.066-.113s-.02-.04-.03-.062a.652.652,0,0,0-.081-.143.29.29,0,0,1-.044-.066l-.014-.028v-.016a1.351,1.351,0,0,0-.137-.209l-.294-.284.155.342c.074.163.155.342.242.517l-.022-.024a.185.185,0,0,1-.018-.024.1.1,0,0,1-.016-.036.247.247,0,0,0-.024-.054c0-.014-.02-.026-.03-.04a.137.137,0,0,1-.022-.026c-.016-.026-.032-.052-.046-.077s-.028-.052-.044-.078h0c-.028-.058-.064-.077-.105-.062l-.048.018.052.115c.024.048.046.1.07.145a1.512,1.512,0,0,0-.093-.145.12.12,0,0,0-.022-.042c-.03-.062-.05-.1-.087-.109h-.032l-.052.04.02.038a1.592,1.592,0,0,1,.081.165c.01.026.022.05.034.076a.6.6,0,0,0,.042.079l.032.064h-.01c-.06-.113-.139-.252-.2-.342a.08.08,0,0,0-.026-.026l-.018-.038c-.014-.036-.044-.109-.115-.085l-.066.02.04.056a.9.9,0,0,1,.089.169,1.285,1.285,0,0,0,.083.165v.012a.527.527,0,0,0-.074-.113.167.167,0,0,0-.042-.074.15.15,0,0,1-.016-.022.182.182,0,0,0-.01-.02.091.091,0,0,0-.054-.068.064.064,0,0,0-.058,0l-.038.026.024.04c.034.064.068.131.1.2h-.034a.2.2,0,0,0-.03-.038h0l-.048-.06-.036.068v.014a3.061,3.061,0,0,0-.57-.066.114.114,0,0,1-.024-.022l-.034-.034-.048-.034-.026.052a.054.054,0,0,0,0,.024h-.143a.068.068,0,0,0-.064-.034.06.06,0,0,0-.044.036h-.024a.257.257,0,0,1-.056,0l-.068-.06v.074h0a3.709,3.709,0,0,0-.688.093l-.211.042a.068.068,0,0,0-.06-.044.062.062,0,0,0-.052.04l-.064-.177c-.026-.076-.058-.149-.091-.225a1.7,1.7,0,0,0,.151.185l.141.145-.058-.2c-.016-.05-.034-.1-.056-.159.024.032.052.064.07.085l.02-.014h0l-.016.018a.073.073,0,0,0,.062.046h0a.062.062,0,0,0,.054-.034l.012-.022-.012-.024-.054-.117a1.081,1.081,0,0,0,.093.1l.141.131-.062-.183c-.012-.036-.024-.07-.038-.105.024.028.048.054.074.079l.153.149-.074-.2c-.014-.04-.03-.079-.046-.119l.022.032.014.022h.012v.01a.074.074,0,0,0,.062.05.06.06,0,0,0,.054-.03l.016-.024-.012-.024c-.036-.076-.07-.153-.1-.231l.018.022a.3.3,0,0,0,.042.058l.024.032h.014l.014.02a.1.1,0,0,0,.07.06.066.066,0,0,0,.056-.024l.028-.032-.026-.032a.252.252,0,0,1-.034-.07.8.8,0,0,0,.077.083l.165.161-.111-.28.014.016.163.185-.046-.2a1.315,1.315,0,0,0-.058-.177l.024.026.022.032c.02.034.054.089.115.076l.066-.016-.032-.056c-.026-.048-.048-.1-.07-.149a.777.777,0,0,0,.123.133l.123.1-.044-.153c-.012-.036-.024-.07-.038-.1a.659.659,0,0,0,.074.076l.117.1-.038-.149a1.29,1.29,0,0,0-.077-.2,1.227,1.227,0,0,1-.072-.185h0a1.653,1.653,0,0,0,.244.336l.119.123-.036-.167a.766.766,0,0,0-.056-.153c-.016-.036-.03-.07-.042-.105h0a.826.826,0,0,0,.123.159.715.715,0,0,1,.052.058l.157.185-.074-.233a1.4,1.4,0,0,0-.052-.137l-.04-.1h0a.98.98,0,0,0,.153.189l.121.105-.042-.155a.883.883,0,0,0-.056-.145.78.78,0,0,1-.056-.153,1.255,1.255,0,0,0,.2.254l.131.129-.05-.177a1.11,1.11,0,0,0-.04-.107c0-.022-.018-.042-.026-.064v-.02l.014.018a.943.943,0,0,0,.135.147l.143.115-.066-.171c-.016-.042-.03-.083-.046-.127s-.016-.05-.026-.076a.086.086,0,0,0,.03-.03h0a.117.117,0,0,1,.032.05v.028h.03a.112.112,0,0,1,.018.028.109.109,0,0,0,.068.058.062.062,0,0,0,.052-.016l.03-.026-.018-.034a1.248,1.248,0,0,1-.093-.236h0l.01-.012a.355.355,0,0,0,.04.052.315.315,0,0,1,.024.03.062.062,0,0,0,0,.056.058.058,0,0,0,.052.032h.018c.016.026.036.056.07.06a.07.07,0,0,0,.058-.024l.036-.042-.046-.032a.168.168,0,0,1,0-.03.038.038,0,0,0-.01-.026h0a.543.543,0,0,1,.044-.048.766.766,0,0,0,.074.093l.107.123-.022-.161a.477.477,0,0,0-.042-.127.283.283,0,0,1-.016-.036h0a.339.339,0,0,1,.036-.038.23.23,0,0,0,.028.034l.02.024a.074.074,0,0,0-.014.05.062.062,0,0,0,.056.056h.044l.125.1-.054-.157c-.012-.03,0-.048.058-.089l.014-.012a.107.107,0,0,0,.058.048l.079.03h0l.024.034.042-.044a.747.747,0,0,1,.081-.076.806.806,0,0,0,.105-.1.377.377,0,0,0,.068-.091c.044-.038.072-.062.1-.054h.044a.276.276,0,0,0,.06.233l.018.02h.026a.141.141,0,0,0,.119-.111l.074.056a.635.635,0,0,1,.109.091l.01.012h.014a.3.3,0,0,1,.089.056.256.256,0,0,0,.153.076h.024l.093-.014-.068-.07a.517.517,0,0,0-.048-.044.338.338,0,0,1-.074-.077l-.01-.014h-.018a.2.2,0,0,1-.072-.044.294.294,0,0,0-.085-.054l-.03-.018c-.072-.046-.125-.076-.171-.066h0a.159.159,0,0,0-.161-.091h-.028v-.006a3.2,3.2,0,0,0-.119-.326c-.014-.032-.026-.062-.036-.091-.026-.064-.052-.129-.076-.2l.072.151c.032.064.064.127.093.2l.012.018a.533.533,0,0,1,.076.1.6.6,0,0,0,.091.109l.151.141-.131-.352c-.022-.054-.042-.107-.062-.161a1.413,1.413,0,0,0,.2.266l.121.129-.038-.173a.673.673,0,0,0-.026-.083.912.912,0,0,0,.074.077l.129.127-.048-.175c-.022-.078-.048-.153-.074-.229a1.321,1.321,0,0,0,.145.185l.149.157-.068-.2-.06-.173h.012l.01.016a.115.115,0,0,0,.044.052c.016.03.044.078.085.081h0a.06.06,0,0,0,.05-.028l.044-.066H167.8l-.056-.155a.5.5,0,0,0,.052.062c.016.04.062.105.109.115h.012a.058.058,0,0,0,.048-.024l.02-.024-.014-.028a.993.993,0,0,1-.056-.125c.032.044.068.087.1.129l.153.165-.07-.213c-.012-.04-.028-.081-.042-.121a1.175,1.175,0,0,0,.087.105l.159.167-.157-.447-.036-.1a1.105,1.105,0,0,0,.217.294l.149.137-.07-.2-.083-.234-.014-.038a.265.265,0,0,0,.048.072.276.276,0,0,0,.1.131.082.082,0,0,0,.036.038l.036.014.026-.02c.012,0,.028-.032.016-.079-.052-.127-.1-.266-.151-.4s-.113-.312-.171-.449l-.01-.024a.2.2,0,0,0-.072-.111l-.077-.056v.272a.608.608,0,0,0,.02.081c-.034-.087-.07-.175-.105-.26a.1.1,0,0,0-.052-.056l-.083-.04.014.091a.9.9,0,0,1,.012.2v.016l.024.1c-.048-.131-.1-.262-.147-.4a.066.066,0,0,0-.024-.04l-.026-.014-.06.014v.034a.774.774,0,0,0,0,.1.461.461,0,0,0-.072-.129l-.085-.1v.129a.689.689,0,0,0,0,.1.745.745,0,0,1,0,.1.518.518,0,0,1-.02-.05.062.062,0,0,0-.024-.04l-.026-.014-.06.014v.04a1.5,1.5,0,0,0,.012.2,2.14,2.14,0,0,0-.1-.229l-.1-.2v.219a1.8,1.8,0,0,0,.026.26c-.026-.066-.056-.131-.087-.2l-.081-.159-.012.179a.6.6,0,0,0,0,.109.367.367,0,0,1,0,.105c-.028-.062-.056-.125-.087-.183l-.093-.169v.254a.15.15,0,0,0-.018-.036l-.016-.032-.012-.044a.2.2,0,0,0-.07-.133l-.113-.081.038.135a.5.5,0,0,1,.014.139.542.542,0,0,0,.01.125.447.447,0,0,0,.028.091c-.022-.054-.042-.107-.062-.157v-.016a.2.2,0,0,0-.064-.1l-.085-.058.01.1a2.461,2.461,0,0,0,.155.715.177.177,0,0,0,0,.03l-.032-.085c-.02-.054-.04-.107-.058-.161a2.22,2.22,0,0,0-.165-.4l-.1-.165v.2a1.555,1.555,0,0,0,.044.342c-.034-.078-.068-.153-.105-.225l-.105-.2.012.227a2.053,2.053,0,0,0,.087.485,4.174,4.174,0,0,0-.213-.5l-.125-.233.032.262v.07a.744.744,0,0,1,.016.167V116c.02.081.042.157.064.231-.02-.056-.038-.105-.062-.159v-.026a.6.6,0,0,0-.1-.181l-.1-.105.014.143a3.305,3.305,0,0,0,.177.727v.01h-.014a1.92,1.92,0,0,0-.117-.306c-.034-.077-.068-.157-.1-.242v-.032h-.012a.066.066,0,0,0-.06-.054.068.068,0,0,0-.06.04v.032a3.972,3.972,0,0,0,.123.535h0c-.056-.159-.123-.334-.2-.537a.429.429,0,0,1-.018-.046.4.4,0,0,0-.083-.149l-.1-.1.012.135a3.118,3.118,0,0,0,.149.644.731.731,0,0,0-.078-.175.3.3,0,0,0-.04-.1l-.016-.03a.115.115,0,0,1-.01-.028.2.2,0,0,0-.072-.107l-.089-.062.014.107a3.137,3.137,0,0,0,.087.433h0l-.02-.046c-.036-.091-.074-.185-.109-.26l-.01-.02a.2.2,0,0,0-.072-.1l-.1-.068.022.115.018.1a1.807,1.807,0,0,0,.066.3h-.012l-.012-.028a.094.094,0,0,1-.014-.044v-.022l-.016-.012a.2.2,0,0,1-.044-.072.266.266,0,0,0-.074-.109l-.074-.058v.093a.472.472,0,0,0,0,.1.272.272,0,0,1,0,.091v.024h0l-.014-.026a.19.19,0,0,0-.014-.04c0-.014-.032-.089-.072-.1a.064.064,0,0,0-.06,0l-.036.022.014.038a.8.8,0,0,1,.032.153v.054h-.016c0-.018-.018-.038-.028-.058a.475.475,0,0,0-.093-.155l-.074-.1.032.159.012.058a.874.874,0,0,1,.024.147h-.012l-.018-.036a.2.2,0,0,0-.05-.081l-.072-.064v.1a.234.234,0,0,0,0,.1.134.134,0,0,1,0,.028.245.245,0,0,0-.05.016.044.044,0,0,1-.026,0l-.054-.038-.022.062c0,.01-.022.018-.05.028a.228.228,0,0,0-.064.03h-.052l-.012.01a.563.563,0,0,1-.133.07l-.064.028a3.725,3.725,0,0,0-.354.2c-.081.05-.159.1-.244.141l-.091.058c-.083.054-.169.107-.25.167l-.022-.07a.994.994,0,0,0-.1-.213c-.012-.018-.022-.036-.032-.054a.474.474,0,0,1-.026-.056l.04.042a.581.581,0,0,1,.074.081l.014.018c.034.042.087.111.143.068l.036-.028-.024-.038c-.034-.056-.066-.113-.1-.173a.35.35,0,0,0,.07.062l.111.064-.04-.121a.5.5,0,0,0-.038-.087l.02.02.018.022c.02.028.058.079.115.054l.052-.022-.03-.05a1.194,1.194,0,0,1-.089-.175l-.036-.078a.562.562,0,0,0,.079.074l.155.115-.081-.175a2.435,2.435,0,0,0-.127-.246l.068.07.1.1.163.185-.081-.233a1.091,1.091,0,0,0-.072-.161l.062.064c.04.038.076.048.109.024l.044-.03-.036-.042a.3.3,0,0,1-.044-.079.478.478,0,0,0-.064-.105.222.222,0,0,0-.04-.081.069.069,0,0,1,0-.016.231.231,0,0,0-.01-.022h.046a.211.211,0,0,0,.056.062.153.153,0,0,1,.036.038l.022.028a.521.521,0,0,0,.111.107l.141.1-.07-.157c-.038-.087-.083-.169-.125-.246l-.018-.032h.01l.012.01a.2.2,0,0,1,.036.034h0c.028.028.054.058.079.087a1.111,1.111,0,0,0,.143.147l.165.137-.089-.2c-.048-.1-.105-.213-.163-.31l.046.056.1.1c.044.048.087.1.137.143l.153.143-.074-.2a1.038,1.038,0,0,0-.093-.167c-.016-.022-.028-.042-.04-.06a.173.173,0,0,1-.014-.034.3.3,0,0,0-.026-.058.964.964,0,0,0-.056-.079.83.83,0,0,1-.062-.093l.107.121a2.007,2.007,0,0,0,.207.242l.2.177-.127-.236-.056-.105c-.026-.05-.054-.1-.079-.147.046.048.1.1.139.135s.089.042.111.024l.036-.03-.026-.038a.774.774,0,0,1-.085-.161c-.022-.046-.044-.091-.068-.131a.332.332,0,0,0-.042-.058l-.024-.034h.02a.409.409,0,0,1,.07.074.6.6,0,0,0,.1.1.213.213,0,0,0,.068.081l.028.024.022.026c.024.032.06.077.115.066l.072-.018-.044-.06a2.875,2.875,0,0,1-.187-.312l-.044-.06c-.048-.064-.1-.127-.141-.2a.862.862,0,0,1,.1.107c.028.032.056.066.087.1a.332.332,0,0,0,.072.078l.036.03c0,.01.018.02.026.032s.068.087.125.072l.066-.018-.04-.058c-.034-.052-.07-.111-.1-.171s-.044-.078-.064-.109a.556.556,0,0,0-.042-.06l-.024-.034-.03-.036-.012-.016h.02a.262.262,0,0,0,.064.068l.022.018a.111.111,0,0,0,.022.044.288.288,0,0,0,.036.034l.028.03c.089.1.2.2.274.286v.012c.012.018.046.07.1.052l.074-.022-.05-.058a1.02,1.02,0,0,1-.113-.171c-.02-.036-.04-.072-.064-.107s-.062-.089-.1-.135-.068-.089-.1-.135a.672.672,0,0,0-.054-.072l-.026-.032h.02c.042.038.079.079.119.123a1.492,1.492,0,0,0,.179.175l.133.105-.058-.161a1.471,1.471,0,0,0-.173-.312l-.02-.03a.147.147,0,0,1,.052,0,.5.5,0,0,1,.091.1l.016.022h0l.048.036a.491.491,0,0,1,.054.042.172.172,0,0,1,.024.028c.022.028.058.077.113.06l.068-.022-.042-.056a1.586,1.586,0,0,1-.089-.135l-.024-.042-.048-.072c-.01-.016-.02-.03-.028-.046h.022l.028.028a3.869,3.869,0,0,0,.286.284l.173.153-.1-.211a2.059,2.059,0,0,0-.157-.278l-.07-.091c-.022-.03-.046-.06-.066-.089h.01l.076.076a1.545,1.545,0,0,1,.137.143v.012h.016a.114.114,0,0,1,.02.022.117.117,0,0,0,.074.052.072.072,0,0,0,.056-.02l.036-.03-.03-.038a.553.553,0,0,1-.058-.1.822.822,0,0,0-.066-.1.237.237,0,0,0-.038-.06.082.082,0,0,1-.02-.028h0c.105.115.219.227.334.332l.119.109-.038-.157a.451.451,0,0,0-.077-.141l-.02-.028a.1.1,0,0,1,0-.02.135.135,0,0,0-.018-.044.459.459,0,0,0-.048-.058.216.216,0,0,1-.032-.04V114.5h.03a2.088,2.088,0,0,1,.151.145,2.246,2.246,0,0,0,.171.165l.149.123-.072-.179a.885.885,0,0,0-.083-.149.6.6,0,0,1-.072-.123h0a1.172,1.172,0,0,0,.133.129.86.86,0,0,1,.087.074l.018.022c.018.026.056.078.113.052l.056-.024-.036-.05c-.034-.046-.064-.1-.1-.143l-.032-.052a.085.085,0,0,0,.07,0l.052-.026-.04-.058-.016-.02a.068.068,0,0,0,.052-.04.181.181,0,0,0,.032.022l.149.109-.076-.169a1.554,1.554,0,0,0-.085-.161l.048.04h.012l.02.018a.143.143,0,0,0,.056.044l.018.018c.02.022.042.048.076.044h.032l.032-.05-.02-.028a.73.73,0,0,1-.068-.109l-.04-.068a1.661,1.661,0,0,0,.129.105l.111.079-.036-.131a.448.448,0,0,0-.038-.1l.028.024a.123.123,0,0,0,.05.044h0v.034h.03v.01a.087.087,0,0,0,.068.042.078.078,0,0,0,.056-.032l.02-.032-.022-.028a.957.957,0,0,1-.066-.1l.012.012c.038.036.083.081.135.062l.052-.02-.026-.05a2.437,2.437,0,0,0-.165-.254l-.01-.014.032.026a.759.759,0,0,0,.141.1l.089.046-.018-.1a.294.294,0,0,0-.038-.093.2.2,0,0,1-.026-.062v-.012l.02.016.02.016h.012l.018.014a.109.109,0,0,0,.077.036.072.072,0,0,0,.048-.028l.02-.024-.014-.028a1.672,1.672,0,0,0-.123-.213h0l.036-.02a.524.524,0,0,1,.137.07.81.81,0,0,0,.167.081l.085.026-.024-.085a.332.332,0,0,0-.117-.163l-.022-.02a.37.37,0,0,1,.147.034.316.316,0,0,0,.157.03l.113-.016-.089-.07-.032-.028-.014-.012h0a.068.068,0,0,0,.066.026c.1-.014.2-.022.322-.03a2.458,2.458,0,0,0,.614-.089l.223-.076-.234-.02a1.9,1.9,0,0,0-.374.02l-.083.012.026-.036h-.1a1.355,1.355,0,0,0-.29.05l-.06.016a.837.837,0,0,0-.3.05.223.223,0,0,0-.105.018.111.111,0,0,1-.074,0h-.03L167,113.2a.069.069,0,0,0-.01.016.143.143,0,0,0-.109.014.119.119,0,0,1-.076.016h-.05l-.01.05v.012h0a.149.149,0,0,0-.03-.018l-.028-.016-.024.02a.225.225,0,0,1-.085.04h-.012l-.058.016a.115.115,0,0,0-.038,0h-.02l-.014.014h0l-.282.072h.109a.121.121,0,0,0-.056.032h-.028l-.036-.018-.024.032-.026.02-.028.024a.225.225,0,0,0-.1.02h-.028a.058.058,0,0,0-.04.034.028.028,0,0,0,0,.012.133.133,0,0,0-.079,0h-.028v.016h0a.064.064,0,0,0-.04.034.084.084,0,0,0,0,.016h-.085l-.016.028h0a.056.056,0,0,0-.058.028.038.038,0,0,0,0,.016.117.117,0,0,0-.066,0h-.04v.064h0a.083.083,0,0,0-.05.022l-.014.016a.173.173,0,0,0-.062.014l-.022.01-.034.012v.012h-.02v.03h-.012a.137.137,0,0,0-.064,0h-.02a.229.229,0,0,0-.054.054.093.093,0,0,1-.028.032H165.1c-.018.014-.018.014-.064,0H165l-.016.032h0a.046.046,0,0,0-.058.06.044.044,0,0,1-.032,0l-.052-.028-.016.056-.016.012-.026.02a.074.074,0,0,0-.014.028.081.081,0,0,0-.028.016.038.038,0,0,0-.018.01h-.01a.122.122,0,0,0-.034,0h-.056v.038a.068.068,0,0,0-.052.056h0a.139.139,0,0,1-.06.026h-.054v.014h-.038v.046a.2.2,0,0,1-.105.062h-.022l-.034.036a.509.509,0,0,1-.072.074l-.018.01a.8.8,0,0,0-.131.076.135.135,0,0,0-.089.042h-.012a.111.111,0,0,0-.034.012h-.044l-.02.02a.411.411,0,0,1-.2.127l-.018.01a2.3,2.3,0,0,1-.23.151,2.008,2.008,0,0,0-.266.179,3.791,3.791,0,0,0-.475.36.073.073,0,0,0-.028.016h-.036l-.014.032a.177.177,0,0,1-.113.1h-.018v.018h0l-.01-.01h0a.076.076,0,0,0,.044-.022l.038-.038-.038-.034a.824.824,0,0,1-.087-.1.094.094,0,0,0,.034,0l.113-.014-.085-.07a.069.069,0,0,0,.042-.024l.03-.034-.032-.034a1.073,1.073,0,0,1-.129-.153.066.066,0,0,0,.042-.024l.032-.036-.036-.032h0l.036.028-.058-.145.048.052-.109-.258a.4.4,0,0,0-.064-.1l.018-.016.032-.04-.04-.03a.42.42,0,0,1-.074-.081.062.062,0,0,0,.02-.02l.024-.034-.03-.03c-.024-.022-.046-.046-.066-.068a.044.044,0,0,0,.01-.016l.024-.046-.046-.02a.058.058,0,0,1-.014-.02.171.171,0,0,0-.026-.034l-.01-.054a.233.233,0,0,0-.064-.1l-.014-.016v-.014a.08.08,0,0,0-.01-.05H162a.06.06,0,0,0,.022-.046v-.05h-.054v-.085l-.028.077a.145.145,0,0,1-.07-.087h0a.213.213,0,0,0,.147-.022l.083-.064-.1-.024-.093-.018a1.132,1.132,0,0,1-.129-.028.353.353,0,0,0-.032-.04l-.01-.01a.857.857,0,0,0,.284-.03l.2-.072-.217-.024a.7.7,0,0,1-.145-.03.834.834,0,0,0-.25-.036l-.018-.018h.147a1.589,1.589,0,0,0,.28-.024l.167-.036-.161-.058a1.628,1.628,0,0,0-.425-.07,3.728,3.728,0,0,0,.427-.03l.2-.022-.2-.072a1.963,1.963,0,0,0-.457-.074,3.229,3.229,0,0,0,.447-.038l.334-.05-.336-.048a1.789,1.789,0,0,1-.242-.058H161.7a.465.465,0,0,0,.221-.03l.2-.093H161.9a.449.449,0,0,1-.135-.03.755.755,0,0,0-.143-.034h-.058a3.136,3.136,0,0,0,.34-.028l.4-.044-.386-.054a.6.6,0,0,1-.109-.028.627.627,0,0,1-.107-.03.634.634,0,0,0,.227-.028l.2-.068-.2-.026-.083-.014.089-.02.151-.042-.147-.052c-.054-.018-.107-.034-.167-.048a1.1,1.1,0,0,0,.149-.026l.336-.087L161.9,112a.423.423,0,0,1-.121-.028h-.02a1,1,0,0,0,.137-.024l.189-.044-.187-.05-.141-.036a1.152,1.152,0,0,0,.129-.024l.179-.052-.215-.052-.06-.016a.422.422,0,0,0,.089-.026l.169-.076-.185-.018a.447.447,0,0,1-.072-.012.4.4,0,0,0,.074-.024l.187-.079-.2-.014a.5.5,0,0,1-.123-.03l-.052-.016h.195v-.046c0-.074-.076-.079-.1-.081s-.018,0-.014,0l-.062-.026.107-.01h.044v-.044c0-.074-.074-.081-.1-.083h0a.119.119,0,0,0-.056-.02h0a.272.272,0,0,0,.131-.034l.121-.076-.143-.016a.242.242,0,0,1-.111-.05h.087l.133-.02-.113-.072a1.218,1.218,0,0,0-.161-.081h0a.536.536,0,0,0,.1,0l.115-.022-.1-.068-.056-.036.062.024-.012-.083a.267.267,0,0,0-.022-.074h0V110.4a1.082,1.082,0,0,0-.068-.35l-.012-.034h-.207v.056a.075.075,0,0,0,.016.052.23.23,0,0,0,.018.066.336.336,0,0,1-.077-.044.4.4,0,0,0-.141-.07h-.016a.068.068,0,0,0-.046.024l-.014.028v.036c0,.014.014.03.022.046a.274.274,0,0,0,.034.064l.018.022a.71.71,0,0,0,.117.125l.068.052a1.3,1.3,0,0,0-.608-.085l-.159.016.141.076a2.032,2.032,0,0,0,.286.121,3.493,3.493,0,0,0-.495-.02h-.054v.054a.074.074,0,0,0,.028.058.062.062,0,0,0,.038.012h0a2.061,2.061,0,0,0,.4.1h-.1c-.07,0-.145.012-.221.014a1.264,1.264,0,0,0-.382.054l-.147.054.151.04a4.125,4.125,0,0,0,.654.087,3.247,3.247,0,0,0-.757.113l-.171.05.171.044a1.1,1.1,0,0,0,.145.028,1.919,1.919,0,0,0-.3.072l-.227.077.238.018a1.356,1.356,0,0,1,.219.012h-.056c-.109.016-.221.036-.3.054h-.02a.733.733,0,0,0-.173.052l-.157.078.177.014h.066q-.081.018-.155.042l-.181.06.187.036a1.132,1.132,0,0,0,.167.016l-.058.018-.234.083.248.012h.173c-.117.022-.231.05-.34.079l-.28.081.292.016h.179v.016h-.024a.223.223,0,0,0-.125.044l-.091.085h.246l-.229.04.062.016a.151.151,0,0,0-.064.034l-.081.074.109.012h.01a3.64,3.64,0,0,0-.4.1l-.3.089h.31a3.95,3.95,0,0,0,.415-.018h.05l-.091.016a1.443,1.443,0,0,0-.3.076l-.264.109.286-.016h.046l-.254.058.187.024v.034a.07.07,0,0,0,.02.062.111.111,0,0,0,.1.018h.03a.246.246,0,0,0,.085.022h.01l-.03.024a.087.087,0,0,0-.072.058h0l-.246.028.258.066a1.092,1.092,0,0,0,.121.024h-.04l-.058.012a.57.57,0,0,0-.187.058l-.167.1h.342l.056.042h-.147a1.521,1.521,0,0,0-.165,0c-.105-.012-.113.028-.117.042a.056.056,0,0,0,.044.066h.012a1.95,1.95,0,0,1,.266.032l-.091.014-.342.07.348.026.141.016-.066.046-.211.024.24.068a1.013,1.013,0,0,0,.135.026l-.091.02a3.941,3.941,0,0,0-.523.131l-.292.1h.31a3.378,3.378,0,0,0,.4-.042,3.056,3.056,0,0,1,.435-.04h-.117l-.169.014v.042h-.014a1.248,1.248,0,0,0-.233.062l-.219.091h.223a2.879,2.879,0,0,0,.352-.022h.066v.034c-.089.014-.185.032-.274.052-.121.03-.229.06-.328.091l-.376.127.4-.032c.221-.016.425-.036.62-.058l-.089.042h-.024a2.161,2.161,0,0,1-.372.068v.024a.075.075,0,0,0-.068.044l-.03.07h.411a2.925,2.925,0,0,0-.413.107l-.318.115.338-.022a2.151,2.151,0,0,0,.223-.02,3.156,3.156,0,0,1,.354-.022h-.018a.944.944,0,0,0-.2.034,1.115,1.115,0,0,0-.123.036.781.781,0,0,1-.1.028l-.068.014a.37.37,0,0,0-.183.06l-.139.107.175-.02.2-.022.362-.04-.072.018-.109.024a1.558,1.558,0,0,0-.3.081l-.286.115.344-.024c.149-.01.3-.022.449-.038h0a.4.4,0,0,1-.171.056.624.624,0,0,0-.185.056l-.179.107.2-.016a.573.573,0,0,0,.143-.012h.066l.062.06h-.028l-.074.014a.487.487,0,0,0-.187.058l-.169.105.2-.016h.1l.135-.012h0l-.066.01-.077.016h-.014c-.062.016-.107.03-.123.066a.062.062,0,0,0,0,.056l.018.032.036-.01a1.157,1.157,0,0,1,.2-.02h.119l-.078.02-.087.016a.707.707,0,0,0-.221.066l-.227.137.254-.03c.1-.012.2-.02.3-.028a5.453,5.453,0,0,0-.535.139l-.032.01a5.849,5.849,0,0,0-1.872-1.834l-.03-.016a5.417,5.417,0,0,0-.9-.417.175.175,0,0,0-.115-.068.219.219,0,0,0-.1-.083c-.038-.018-.058-.03-.066-.054v-.042h-.089a.137.137,0,0,0-.028-.03v-.034h-.044a.085.085,0,0,1-.085-.052l-.016-.028h-.072a.137.137,0,0,1-.048-.048l-.016-.028h-.034a.053.053,0,0,1-.048-.018.265.265,0,0,0-.044-.03l-.026-.01a.049.049,0,0,1-.046-.022l-.012-.036h-.1l-.044-.032a.3.3,0,0,1-.054-.044l-.016-.016h-.024a.121.121,0,0,1-.1-.042l-.03-.024h-.093a.183.183,0,0,0-.062-.036h-.022l-.012-.03h-.032a.173.173,0,0,0-.064.012h-.024l-.014-.012a.181.181,0,0,0-.117-.054h-.016l-.054.018a.1.1,0,0,0-.022-.028.159.159,0,0,0-.169-.02.123.123,0,0,0-.062.135v.038h.064a.323.323,0,0,0,.07-.01h.01v.044h.044a.29.29,0,0,0,.1,0,.038.038,0,0,0,0,.016v.038h.038a.7.7,0,0,1,.113,0h0c.016.044.064.046.115.05h.014l-.018.05h.133a.05.05,0,0,0,.032.012.081.081,0,0,0,0,.024v.028h.03a.224.224,0,0,0,.064,0h0v.044h.105a.079.079,0,0,0,.079.064h.06a.058.058,0,0,0,0,.03h-.014a.093.093,0,0,0-.085.064h-.016v.018c-.016.036-.03.074-.044.109a.934.934,0,0,1-.064.149h0l-.038-.012a.441.441,0,0,0,.127-.322v-.042h-.044a.181.181,0,0,0-.167.123l-.016.03a.725.725,0,0,0-.05.105c0,.018-.016.036-.022.054a3.8,3.8,0,0,0-.417-.111h0l-.109-.024.012-.02h-.066l-.175-.024.07-.024h-.135l.125-.03-.459.074a.971.971,0,0,1-.161-.018c-.054,0-.107-.018-.169-.022a2.649,2.649,0,0,0-.5.026l-.2.03.2.066a.542.542,0,0,0,.183.016l-.022.02-.087.093.127-.01a1.992,1.992,0,0,0,.3-.038l-.135.078-.105.062h-.012v.012a.219.219,0,0,1-.042.046.306.306,0,0,0-.062.07l-.081.145.147-.077L153.3,114l.1-.052a1.938,1.938,0,0,0-.314.3l-.107.129.161-.05a.408.408,0,0,0,.127-.079.161.161,0,0,1,.04-.028.109.109,0,0,0,.038-.016h0a.137.137,0,0,0,.034-.034l.018-.018.081-.052a1.119,1.119,0,0,0,.161-.113h0l-.05.038a1.723,1.723,0,0,0-.256.236l-.068.074a.245.245,0,0,0-.06.076l-.026.036a.113.113,0,0,1-.022.022c-.026.026-.076.074-.048.133l.032.064.05-.052a1.607,1.607,0,0,1,.173-.153l.091-.076h0c.121-.107.252-.215.4-.33l-.016.014a1.827,1.827,0,0,0-.225.223c-.05.06-.1.117-.153.175l-.03.034-.077.115-.022.03a.157.157,0,0,0-.05.123l.016.087.056-.07.127-.121c-.022.028-.042.058-.062.087l-.024.036a.294.294,0,0,1-.024.028.181.181,0,0,0-.062.133l.012.109.074-.081c.046-.052.093-.1.143-.147-.028.032-.056.064-.085.091v.014a1.278,1.278,0,0,1-.1.143c-.016.02-.03.04-.042.058l-.02.026c-.034.044-.07.091-.052.147l.032.087h0a.068.068,0,0,0,.016.074l.044.044.034-.052a.994.994,0,0,1,.159-.173.085.085,0,0,0,0,.1l.032.054.044-.046.1-.1q-.02.032-.042.072a.2.2,0,0,0-.066.089.111.111,0,0,0-.044.056h0a.056.056,0,0,0-.026.06c0,.016.014.036.05.042h.028l.147-.155.089-.1a.316.316,0,0,0-.026.044c-.01.016-.024.032-.038.05s-.081.1-.072.151l.018.1.068-.076.169-.185-.036.056c-.016.024-.03.05-.044.07a.349.349,0,0,1-.03.036.151.151,0,0,0-.056.129v.05h0a6.413,6.413,0,0,0-1.5-.246l.079-.076-.127.074h-.03a.058.058,0,0,0-.062-.016.548.548,0,0,0-.169.016.052.052,0,0,0-.03.032h0l-.014-.03H151.9a.26.26,0,0,0-.274.258.141.141,0,0,0-.026-.081.181.181,0,0,0-.209-.07l-.042.018.016.044a.478.478,0,0,0,.03.066.628.628,0,0,0-.449.058l-.093.068.111.02a1.093,1.093,0,0,0,.2.016.848.848,0,0,0,.3-.044l.04-.016a.169.169,0,0,0,.048.018h.026l.02-.022a.121.121,0,0,0,.036-.076v.113l.07-.026a.262.262,0,0,0,.089-.054.1.1,0,0,0,.026.056l.032.032.05-.042.016-.012-.042.083.111-.038a.4.4,0,0,0,.089-.04l-.024.076.085-.02a.479.479,0,0,0,.085-.036.084.084,0,0,0,.02.046l.028.032.036-.024.074-.044a.081.081,0,0,0,.012.054l.03.052.046-.04a.054.054,0,0,1,.016-.014.073.073,0,0,0,.016.034l.028.034.036-.024.04-.026h0a.066.066,0,0,0,.016.044l.03.04.05-.038.03-.024-.044.089.1-.024a.229.229,0,0,0,.091-.042.093.093,0,0,0,0,.056l.026.052.074-.054.04-.03a.1.1,0,0,0,0,.068l.022.054.05-.032.036-.024a.093.093,0,0,0,.01.044l.04.074.046-.07a.254.254,0,0,1,.085-.06h0c-.012.016-.022.032-.034.046l-.107.143.165-.068a.63.63,0,0,0,.139-.083l.058-.038-.018.02a.133.133,0,0,0-.05.137l.03.078.054-.064a.131.131,0,0,1,.091-.06.091.091,0,0,0-.032.068.068.068,0,0,0,.028.052l.036.028.03-.034a.521.521,0,0,1,.115-.083l.062-.036-.022.032h0a.143.143,0,0,0-.058.1.074.074,0,0,0,.024.05l.032.028.032-.026c.048-.038.1-.077.167-.121h0a.417.417,0,0,1-.03.04.127.127,0,0,0-.05.137l.026.068.052-.048a.908.908,0,0,1,.217-.147l-.016.026a.033.033,0,0,1-.018.026h-.038v.038l-.016.02a.089.089,0,0,0-.03.066.064.064,0,0,0,.026.044l.036.026.028-.032a.368.368,0,0,1,.087-.056.424.424,0,0,0,.111-.076l.028-.01-.016.022a.417.417,0,0,0-.04.058l-.012.01a.133.133,0,0,0-.056.1.066.066,0,0,0,.024.05l.034.032.034-.036a.646.646,0,0,1,.2-.141.506.506,0,0,1-.054.079.6.6,0,0,0-.058.081l-.077.137.141-.068a.9.9,0,0,0,.157-.105l.048-.036a.2.2,0,0,0,.05-.014h-.012v.012a1.15,1.15,0,0,1-.085.115l-.07.087.044.016-.042.064a.832.832,0,0,1-.052.076l-.02.026-.048.068a.082.082,0,0,0-.024.058.06.06,0,0,0,.024.044l.036.03.032-.034c.054-.062.107-.123.159-.187s.129-.153.2-.227a.169.169,0,0,0-.026.05l-.012.012a.093.093,0,0,0-.042.078.064.064,0,0,0,.02.042.066.066,0,0,0,.016.066l.036.038.036-.038.06-.07c.026-.032.05-.062.074-.087l-.032.042c-.018.022-.036.044-.052.068l-.044.074h.064a.442.442,0,0,0-.042.074.123.123,0,0,0-.054.093v.042l.062.016.06-.066.119-.135a.05.05,0,0,0,0,.024.071.071,0,0,0,.022.044l.016.014-.05.076-.074.105.125-.03a.153.153,0,0,0,.085-.066h.048a.443.443,0,0,0-.042.074.133.133,0,0,0-.056.1l.01.04.062.016.022-.022c.054-.064.109-.125.165-.187h0l-.032.058h.036l-.012.018a.8.8,0,0,0-.091.139.159.159,0,0,0-.066.1.058.058,0,0,0,.03.054l.036.022.028-.034c.062-.077.137-.155.211-.231.042-.044.083-.085.121-.127a.072.072,0,0,0,.018-.04l.018-.012-.062.093-.026.036a1.592,1.592,0,0,0-.129.2h0a.079.079,0,0,0-.046.072.066.066,0,0,0,.05.052l.032.012.028-.034a3.406,3.406,0,0,1,.24-.268.06.06,0,0,0,0,.02h0a.093.093,0,0,0-.042.078.052.052,0,0,0,.01.03.085.085,0,0,0,0,.1l.038.06,0,.014a1.652,1.652,0,0,1,.125-.143l-.016.02a.724.724,0,0,0-.048.07l-.056.1.1-.02a.078.078,0,0,0-.028.076l.018.034.062.01.016-.028.014-.016.022.012a.105.105,0,0,0-.03.113l.03.066.05-.052c.024-.024.046-.048.068-.074v.02l.016.01h0c-.032.036-.079.087-.042.135l.024.032a6.451,6.451,0,0,0-3.088-.574,6.971,6.971,0,0,0-.751.107l-.129.022a.133.133,0,0,0-.048.022h-.117l-.062.022a.2.2,0,0,1-.042.018H152a3.334,3.334,0,0,0-.562.2H151.4a.072.072,0,0,0-.046.024h-.024a.374.374,0,0,0-.141.089.06.06,0,0,0-.022-.014h-.02l-.018.01a.857.857,0,0,0-.159.115h0l-.03-.022-.028.022-.052.036-.06.04a.08.08,0,0,0-.048,0h-.032c-.058.038-.121.074-.185.107s-.129.07-.189.109a.6.6,0,0,1-.06.036.531.531,0,0,0-.121.079.443.443,0,0,0-.133.083.09.09,0,0,0-.046.022.062.062,0,0,0-.018.066.06.06,0,0,0,.058.036h.038c.044-.028.089-.054.135-.079v.042l.083-.042a1.106,1.106,0,0,0,.232-.157.984.984,0,0,0-.064.109c-.016.022-.091.129-.054.2l.04.068.044-.066c.048-.072.1-.141.153-.211l-.072.135v.028a.141.141,0,0,1-.016.058.137.137,0,0,0,0,.133l.054.076.032-.087a1.087,1.087,0,0,1,.1-.169l.044-.068a.438.438,0,0,0,.024-.054.149.149,0,0,1,.014-.036c.01-.018.022-.034.032-.05a1.65,1.65,0,0,1-.1.284v.03a.241.241,0,0,1-.016.1.2.2,0,0,0,0,.151l.048.1.042-.1c.1-.221.2-.437.3-.648a2.04,2.04,0,0,0-.062.223l-.024.1a.209.209,0,0,1-.016.058.7.7,0,0,0-.036.31l.032.179.113-.312a.854.854,0,0,0-.018.246l.022.236a.072.072,0,0,0-.058-.026.054.054,0,0,0-.048.032l-.014.024.014.024a5.736,5.736,0,0,1,.433,1.019l.058.165.038-.171a.6.6,0,0,0,0-.264v-.036a1.017,1.017,0,0,0-.052-.2l-.018-.046a.4.4,0,0,0-.022-.058,1.1,1.1,0,0,0-.093-.173l.044-.139a.222.222,0,0,1,.016-.052v-.012a6.1,6.1,0,0,1,.272.97l.05.246.046-.246a1.345,1.345,0,0,0-.159-.9l.044.026c.034.093.068.2.1.282l.024.072c.036.139.068.278.089.384v.034a.143.143,0,0,0,.058.127l.062.04.012-.074a1.226,1.226,0,0,0-.06-.451h0v-.02a.157.157,0,0,0,0-.028c.034.121.076.28.1.4v.012a.1.1,0,0,0,.018.087.062.062,0,0,0,.06.022h.04v-.038a1.073,1.073,0,0,0,.01-.262.177.177,0,0,0,0,.03v.068a.413.413,0,0,0,.052.2l.072.1.018-.121a1.445,1.445,0,0,0,0-.32c.014.064.028.129.04.2v.022a.143.143,0,0,0,.058.125l.064.042.01-.076a1.425,1.425,0,0,0-.01-.435c.02.064.038.127.056.2v.012a1.046,1.046,0,0,0,.054.258l.083.2.012-.211a1.586,1.586,0,0,1,.024-.236v-.026l-.018-.089q-.016-.089-.036-.179c.044.167.085.338.123.511l.05.225.046-.225a1.1,1.1,0,0,0,0-.411c.032.109.06.223.087.334l.068.282.05-.2a.98.98,0,0,0,.024-.183.613.613,0,0,0,.052.2l.079.151.012-.171v-.2a1.026,1.026,0,0,1,.01-.211c.022.081.04.169.058.254l.036.163.058.238.04-.242a1.315,1.315,0,0,0-.02-.487l.03.03.01-.028a.057.057,0,0,0,.014.044.563.563,0,0,1,.038.125,1.149,1.149,0,0,1,.024.119,1.151,1.151,0,0,0,.054.209l.085.2.014-.29a.959.959,0,0,0-.026-.382v-.022l.012.04c.02.068.038.135.062.2h0a1.014,1.014,0,0,0,.054.254l.076.177.018-.2a1.226,1.226,0,0,0,.048-.435.37.37,0,0,0,.02-.05.3.3,0,0,1,.02.125v.066h.044a.09.09,0,0,0,.018.04c0,.02,0,.04,0,.062a1.643,1.643,0,0,0,.054.25l.066.2.03-.2a1.155,1.155,0,0,0,.01-.119v-.02l.04-.109a.285.285,0,0,1,.01-.032.611.611,0,0,0,.02.1c.006.034.026.125.044.185l.05.177.044-.179a.817.817,0,0,0,.018-.292l.02-.064.012-.036a.445.445,0,0,0,.024.058.556.556,0,0,1,.026.066.835.835,0,0,1,.016.105.6.6,0,0,0,.052.2l.074.139.018-.157a1.469,1.469,0,0,0,0-.417V120h0c.016.044.034.089.048.135a1.063,1.063,0,0,1,.026.129.759.759,0,0,0,.054.213l.105.236-.012-.26a2.05,2.05,0,0,1,.012-.274v-.03l-.036-.153v-.026h0a4.875,4.875,0,0,1,.135.511l.048.227.05-.227a1.067,1.067,0,0,0,.012-.143.578.578,0,0,1,.012-.137v-.024a.379.379,0,0,0-.026-.091v-.022h.018l.016.046a.2.2,0,0,0,.026.074v.024c-.012.05-.026.105.012.137l.022.02h0a.484.484,0,0,0,.034.133l.06.125.032-.135a.56.56,0,0,0,.014-.183l.038.068.02-.091v.018a.08.08,0,0,1,0,.042.083.083,0,0,0,.028.1h0c0,.034.016.1.078.105h.052v-.052a.346.346,0,0,1,0-.046.146.146,0,0,0,0,.028l.1.233v-.169l.042.046.02-.093a.2.2,0,0,1,.014-.087l.056.1.012-.038a.145.145,0,0,0,.046.081l.087.074a.35.35,0,0,0-.014.079h-.032l.024.03c-.028.032-.054.066-.081.1l-.018.014h0c-.032.044-.066.087-.1.133h-.079l.05.038-.062.093-.044.068h.081c.01,0,.016,0,.028.016a.155.155,0,0,0-.062-.012h-.028l-.014.022c-.018.028-.026.07.04.111l.018.014.012.014.018.018a.475.475,0,0,0-.123-.062l-.066-.018v.07a.153.153,0,0,0,.044.1v.012h0a.083.083,0,0,0-.078-.048h-.028l-.014.022a.187.187,0,0,0-.026.079h-.02l-.016.024a1.181,1.181,0,0,1-.223.223l-.04.032-.026.02a4.085,4.085,0,0,0-.364.312c-.074.074-.143.151-.211.225s-.147.161-.227.238l-.01.014c-.02.042-.046.089-.07.137s-.074.137-.1.2a.223.223,0,0,0,0,.044.055.055,0,0,1,0,.02h0a.1.1,0,0,0-.03.046.932.932,0,0,0-.014.425.109.109,0,0,0,.024.046h0l-.064.081.1-.01a.171.171,0,0,0,.03.089.163.163,0,0,0,.1.072,6.755,6.755,0,0,0-.62.781l-.012.016a.326.326,0,0,0-.058.091,5.072,5.072,0,0,0-.479.757v.016c-.105.185-.2.362-.276.535v.026c-.046.1-.089.2-.129.3-.014.046-.03.089-.048.135a1.256,1.256,0,0,0-.062.173l-.06-.07.026.169a.364.364,0,0,0,.133.2l.036.034.044.044a1.08,1.08,0,0,0,.169.155.308.308,0,0,1,.046.038l.028.024.028.024a2.444,2.444,0,0,0,.288.213l.028.02a.221.221,0,0,0,.113.054.078.078,0,0,0,.036,0l.171-.093h-.2a2.782,2.782,0,0,0-.382-.407.756.756,0,0,0-.1-.093.651.651,0,0,1-.1-.1v-.012h-.012a.219.219,0,0,1-.1-.064h-.012a.211.211,0,0,0-.05-.018l-.042-.016h0a.145.145,0,0,0,.022-.052c.121.105.25.2.384.3h0c.068.05.139.1.211.147l.022.016a1.329,1.329,0,0,0,.221.127c.038.04.127.089.177.068l.07-.03-.056-.052-.125-.117-.024-.024a.576.576,0,0,1,.085.052l.042.026.036.022a.236.236,0,0,0,.151.062l.1-.012-.074-.072c-.064-.064-.127-.123-.189-.183a4.665,4.665,0,0,0,.411.286.083.083,0,0,0,.058.026.069.069,0,0,0,.046-.024l.02-.024.036-.018a.054.054,0,0,0,.05.02.062.062,0,0,0,.046-.048v-.028l-.022-.022c-.06-.054-.117-.111-.175-.167a.357.357,0,0,0-.04-.038c.056.044.113.087.171.07l.078-.026-.06-.056-.109-.107h.014l.028.016.03.02h.01a.048.048,0,0,0,.03.016.136.136,0,0,1,.022.024.187.187,0,0,0,.046.042.052.052,0,0,0,.034,0,.078.078,0,0,0,.077.034.06.06,0,0,0,.04-.052v-.024l-.018-.018-.076-.076.032-.016a.05.05,0,0,0,.05.018c.016,0,.036-.012.046-.046v-.028l-.1-.1-.111-.107c.066.048.131.091.2.133a.078.078,0,0,1,.02.016.155.155,0,0,0,.113.044h.1l.121.085a.123.123,0,0,0,.042.032l.014.01h0c.02.018.048.046.083.034l.034-.018v-.056l-.111-.107-.3-.29.03.022a.768.768,0,0,1,.1.074l.1.07.085.064c.038.038.072.044.1.02l.048-.034-.042-.04c-.189-.183-.382-.372-.58-.554l-.026-.024c.2.165.417.33.632.485l.163.119-.022-.046a.064.064,0,0,0,.052-.012.077.077,0,0,0,.03-.054h.026v-.036a.077.077,0,0,1,.024-.05h.012l.014-.068c.028-.121.058-.246.079-.376v-.159h.018a.064.064,0,0,0,.048-.028l.028-.034-.034-.032-.034-.03a.2.2,0,0,1-.062-.064v-.038c.081.07.165.137.25.2.026.022.054.042.081.062l.074.056a.159.159,0,0,1,.026.026c.014.014.026.028.04.04s.1.076.143.034l.032-.034-.032-.034c-.131-.149-.278-.286-.419-.417l-.181-.171a.024.024,0,0,1,.01-.01l.072.058a.886.886,0,0,1,.113.093l.038.026c.042.026.093.06.121.081a.073.073,0,0,1,.018.018.113.113,0,0,0,.074.048.062.062,0,0,0,.048-.016l.042-.036-.143-.137c-.093-.087-.185-.175-.268-.258l-.01-.01a.752.752,0,0,1-.076-.083h0c.145.133.3.252.457.37l.024.02a.312.312,0,0,0,.07.05.155.155,0,0,0,.1.068.056.056,0,0,0,.054-.03l.022-.034-.03-.028c-.089-.079-.175-.165-.256-.248s-.169-.171-.258-.25l-.048-.044-.044-.04.028.022.028.02c.052.038.1.079.151.121a2.092,2.092,0,0,0,.2.151h0a.121.121,0,0,1,.028.02.173.173,0,0,0,.068.044h0a.157.157,0,0,0,.1.058.074.074,0,0,0,.05-.024l.034-.038-.038-.034a1.757,1.757,0,0,1-.211-.211c.036.028.072.056.107.079l.046.04.046.038.012.012h0a.062.062,0,0,0,.038.026.073.073,0,0,0,.064.036.056.056,0,0,0,.052-.052v-.02l-.012-.016a.86.86,0,0,0-.125-.129l-.06-.058a.657.657,0,0,1-.05-.054c-.02-.022-.04-.046-.064-.068h.028l.034.036a.305.305,0,0,0,.052.05.184.184,0,0,0,.038.022h0a.06.06,0,0,0,.02.03.062.062,0,0,0,.04.012l.026.024a.217.217,0,0,0,.074.056.161.161,0,0,0,.062.054h0a.072.072,0,0,0,.064.034.062.062,0,0,0,.048-.044v-.028l-.02-.022c-.107-.113-.225-.229-.348-.35.032.026.066.05.1.072a1.276,1.276,0,0,0,.157.121l.02.018a.068.068,0,0,0,.115,0l.028-.034-.032-.03-.133-.127c-.056-.052-.111-.1-.155-.149a.075.075,0,0,0-.02-.046.113.113,0,0,0-.048-.03l-.018-.01-.077-.077c.042.028.081.06.123.093l.062.048a.662.662,0,0,1,.1.072h.016l.022.018c.022.02.079.076.133.024l.04-.04-.044-.034a2.278,2.278,0,0,1-.173-.167,1.724,1.724,0,0,0-.233-.217.672.672,0,0,0-.137-.133l-.072-.06h-.012l-.076-.074.113.093c.072.062.145.121.217.177a3.741,3.741,0,0,0,.35.27l.04.03h0a.083.083,0,0,0,.083.034l.034-.018v-.054l-.068-.064-.066-.06.042.024a.093.093,0,0,0,.046.036v.02h.034a.079.079,0,0,0,.076.028.056.056,0,0,0,.042-.04l.01-.03-.024-.022-.028-.028.036-.014a.07.07,0,0,0,.06.034.06.06,0,0,0,.048-.04l.014-.03-.024-.024h.042l.2.151.012.012a.1.1,0,0,0,.113.032l.07-.03-.056-.052-.089-.085.028.02.121.091-.046-.145a.179.179,0,0,0-.024-.048l.034.022a.133.133,0,0,0,.038.028v.04h.038a.07.07,0,0,0,.068.024.052.052,0,0,0,.04-.04l.01-.03-.044-.042a2.284,2.284,0,0,1-.238-.242h0l.068.058a1.3,1.3,0,0,0,.185.135.153.153,0,0,0,.093.07.06.06,0,0,0,.058-.028l.026-.038-.034-.028a1.769,1.769,0,0,1-.175-.171l-.012-.012.081.058.012.012c.02.02.042.046.077.038h.032l.024-.056-.024-.022-.225-.227.036.02a.06.06,0,0,0,.058.016.064.064,0,0,0,.042-.046h0l.081.064c.07.056.141.113.209.173l.012.01h.014l.014.012a.123.123,0,0,0,.056.036c.02.028.046.066.087.066a.06.06,0,0,0,.056-.028l.028-.036-.032-.03c-.121-.113-.24-.231-.358-.35h.034a.085.085,0,0,1,.02.018.093.093,0,0,0,.105.04l.066-.026-.048-.052a2.085,2.085,0,0,0-.2-.2l.062.05a.639.639,0,0,1,.06.042c.022.016.044.034.07.05a.175.175,0,0,1,.034.028c.034.032.085.079.143.048l.058-.032-.048-.046-.079-.076.07.042a.1.1,0,0,0,.05.044h0v.024h.03l.018.014a.1.1,0,0,0,.076.032h.032l.026-.052-.024-.026c-.024-.028-.05-.054-.076-.081l.06.05h.012a.583.583,0,0,1,.054.042c.044.04.1.085.151.064l.074-.028-.058-.054-.183-.179.151.115.014.014a.153.153,0,0,0,.058.04c.018.024.044.056.082.054a.064.064,0,0,0,.056-.036l.018-.034-.028-.026-.211-.2.058.048h0a.838.838,0,0,1,.123.083l.034.026.038.026a.035.035,0,0,1,.026.02v.036h.04l.018.016a.087.087,0,0,0,.068.03.071.071,0,0,0,.044-.026l.024-.036-.032-.03a2.8,2.8,0,0,1-.2-.211l-.028-.03a.1.1,0,0,0,.125.038l.05-.028.169.127.133.1-.06-.155a.37.37,0,0,0-.089-.121l-.077-.079-.038-.038.093.066.117.081-.044-.137a.3.3,0,0,0-.079-.113h0l-.141-.139c.042.032.087.058.127.083l.034.022a.1.1,0,0,0,.076.038.074.074,0,0,0,.052-.032l.022-.034-.028-.028c-.046-.046-.091-.093-.135-.141l-.03-.032.026.016.064.038.032.028a.153.153,0,0,0,.133.058l.093-.02-.07-.064-.048-.044-.04-.036h.016l.024.02a.107.107,0,0,0,.111.036l.064-.028-.048-.052-.054-.056.022.014.02.014a.068.068,0,0,0,.034.012.093.093,0,0,0,.032.04.046.046,0,0,0,.034,0,.078.078,0,0,0,.077.036.062.062,0,0,0,.042-.052v-.044l-.014-.016q-.06-.066-.125-.131a.076.076,0,0,0,.068-.018l.046-.04-.046-.036h-.01l.083.05.113.066-.044-.123a.134.134,0,0,0-.012-.03.113.113,0,0,0,.121.022l.048-.03-.038-.044-.04-.044.123.07.105.052-.038-.111a.288.288,0,0,0-.078-.113l-.01-.01c-.077-.079-.159-.149-.236-.217h.016a.227.227,0,0,0,.125.036h.1l-.068-.076-.068-.07c-.038-.04-.076-.079-.111-.121v-.01h-.012a.2.2,0,0,1-.052-.034l-.048-.036-.016-.016.374-.046a.087.087,0,0,0,.016.022h0a.131.131,0,0,0,.066.087l.038.014.022-.034a.048.048,0,0,0,0-.058.517.517,0,0,0-.02-.054c.076,0,.147-.012.213-.016a.345.345,0,0,0,.026.04l.02.036c0,.439-.028.855-.05,1.312,0,.129-.02.278-.032.425,0,.1-.016.189-.02.27l-.02.286c-.04.6-.079,1.226-.121,1.808-.016.215-.038.435-.058.646-.016.177-.032.352-.046.525-.076.932-.151,1.789-.233,2.611-.058.58-.119,1.161-.181,1.721l-.05.465c-.022.2-.042.4-.064.6-.056.55-.109,1.069-.181,1.59-.1.751-.2,1.427-.322,2.095-.115.626-.26,1.24-.4,1.836l-.014.153a30.574,30.574,0,0,1-1.129,3.71c-.248.654-.463,1.192-.705,1.721a6.282,6.282,0,0,1-.332.58,3.184,3.184,0,0,0-.5,1.043.371.371,0,0,0,0,.081.349.349,0,0,1,0,.046v.016a.757.757,0,0,0,.332.471H156l.026.018a.934.934,0,0,0,.2.081.718.718,0,0,0,.215.03h.081a.794.794,0,0,0,.246-.109h.01v-.012c1.789-3.245,2.832-7.24,3.3-12.573.016-.187.03-.384.044-.58.012-.153.022-.3.034-.449.085-1.047.157-2.063.2-2.933l.036-.64c.03-.473.058-.964.079-1.419,0-.179.014-.352.02-.519s.01-.324.018-.485c0-.1.01-.2.014-.3l.012-.29.012-.2c0-.068.012-.137.014-.2v-.63a1.371,1.371,0,0,1,.012-.221c.093,1.109.171,2.289.185,3.543l-.076.032.076.02V128l-.064.032.064.018v.115l-.068.032.068.02h0a.056.056,0,0,0,.036.046h.032l.02-.018a.043.043,0,0,0,0-.012,5.138,5.138,0,0,1,.705.292c.093.046.187.089.282.131l.079.036-.012-.087a.121.121,0,0,0-.066-.083h-.014a.186.186,0,0,1-.028-.028h.012l.032.02a.175.175,0,0,0,.1.042.125.125,0,0,0,.042-.01l.068-.032-.056-.05-.064-.052a.061.061,0,0,1,.02.01.123.123,0,0,0,.064.044h.032l.012.01a.1.1,0,0,0,.079.03.072.072,0,0,0,.048-.036l.024-.044h-.016l.1-.014-.07-.07c-.034-.034-.068-.068-.105-.1h0a.06.06,0,0,0,.044-.034l.018-.034-.026-.024a.1.1,0,0,0,.068,0l.085-.022-.064-.06q-.046-.046-.089-.083a.109.109,0,0,0,.044,0l.079-.026-.06-.058-.046-.044a.133.133,0,0,0,.072.012h.056l.018.014a.173.173,0,0,0,.133.06l.1-.02-.081-.068c-.044-.036-.085-.079-.127-.121a.054.054,0,0,0,.04.012.06.06,0,0,0,.046-.032l.022-.034-.028-.028a2.593,2.593,0,0,0-.219-.2l.016.01.034.03a.163.163,0,0,0,.127.056l.1-.012-.068-.07c-.044-.046-.091-.089-.137-.131a.08.08,0,0,0,.064-.014l.07-.044-.074-.04a.4.4,0,0,1-.085-.068l.034.016h.016l.012.012a.1.1,0,0,0,.109.03l.076-.03-.113-.1c-.042-.038-.083-.072-.121-.109a.137.137,0,0,0,.085.02l.1-.018-.074-.068c-.085-.079-.169-.153-.248-.221l.06.042h.014l.02.014a.1.1,0,0,0,.074.032.064.064,0,0,0,.044-.026l.026-.036.081.07h.014l.024.018a.109.109,0,0,0,.079.042.062.062,0,0,0,.044-.022l.03-.036-.054-.05c-.076-.076-.155-.151-.236-.227a.081.081,0,0,0,.056.014.071.071,0,0,0,.044-.032l.018-.036-.03-.024-.074-.068h0a.1.1,0,0,0,.052.04h0a.058.058,0,0,0,.06.026c.016,0,.036-.014.044-.05v-.03l-.022-.018c-.048-.04-.093-.085-.139-.129l-.036-.036h0a.08.08,0,0,0,.07.028.062.062,0,0,0,.048-.036l.018-.036-.03-.024-.034-.03h.024l.119-.02-.1-.068-.022-.016h.1a.054.054,0,0,0,.044-.05v-.028l-.022-.02c-.036-.03-.072-.064-.105-.1h0a.066.066,0,0,0,.048-.038l.024-.042-.044-.024a.6.6,0,0,1-.113-.091l-.03-.03h0a.062.062,0,0,0,.034,0l.1-.02-.076-.066-.105-.089a.1.1,0,0,0,.076,0l.1-.034-.087-.054-.034-.024h.022l.072-.046-.076-.04a.235.235,0,0,1-.038-.022h.016l.1-.026h0l.093-.022-.074-.064-.068-.058.028-.048h0l.079-.028-.062-.056-.046-.044h.012l.1-.022-.078-.064-.081-.068.127-.012-.115-.077a1.249,1.249,0,0,1-.115-.093l-.05-.042h.022l.038.018.01.012a.1.1,0,0,0,.03.028l.032.016.018.01.016.014a.115.115,0,0,0,.117.044h0v0l.079-.024-.072-.056.028-.254a1.273,1.273,0,0,1,.028-.131V124.1a.492.492,0,0,1,0,.054.222.222,0,0,0,.014.167l.081.137V124.3a.339.339,0,0,1,.012-.062.276.276,0,0,0,.014-.1,1.469,1.469,0,0,0,.076-.147.8.8,0,0,1-.052.109v.034a.249.249,0,0,1,0,.083.2.2,0,0,0,.014.153l.081.125.01-.149a.222.222,0,0,1,.01-.062.3.3,0,0,0,.016-.093v-.01a.365.365,0,0,1,0,.077.219.219,0,0,0,.012.161l.1.155V124.4a.284.284,0,0,1,.014-.076.275.275,0,0,0,.014-.1c.018-.03.034-.06.05-.089l-.042.111v.024a.674.674,0,0,1,0,.087.249.249,0,0,0,.01.1l.054.081.034-.091a1.01,1.01,0,0,0,.032-.139h0a.159.159,0,0,1,0,.074.155.155,0,0,0,.014.137l.083.113V124.5a.45.45,0,0,1,.018-.105.54.54,0,0,0,.018-.085,2.385,2.385,0,0,0,.163-.326h0c-.032.081-.068.161-.105.236-.016.036-.034.072-.05.109v.028a.354.354,0,0,1,0,.091.181.181,0,0,0,0,.119l.064.1.026-.119c.016-.066.028-.123.038-.183l.016-.024v.028a.27.27,0,0,0,0,.2l.1.171v-.1l.091.143v-.175a.267.267,0,0,1,.012-.07.318.318,0,0,0,.014-.083v-.01h0a.173.173,0,0,1,0,.07.159.159,0,0,0,.016.141l.079.109v-.135a.479.479,0,0,1,.026-.133v.028a.232.232,0,0,0,.016.171l.1.137-.01-.169a.224.224,0,0,1,.012-.081.085.085,0,0,1,0-.02v.012a.266.266,0,0,1,0,.04.148.148,0,0,0,.036.121l.091.054-.018-.1a.081.081,0,0,1,0-.044h0a.119.119,0,0,0,.036.119l.091.054-.016-.1a.06.06,0,0,1,0-.038.093.093,0,0,0,.04.087l.093.056-.02-.107a.044.044,0,0,1,0-.036.217.217,0,0,0,.01-.06,1.1,1.1,0,0,0,.072-.147c.012-.028.024-.056.038-.083h0a.692.692,0,0,1-.038.131.469.469,0,0,0-.038.274l.05.213.046-.215a1.737,1.737,0,0,1,.286-.626c-.024.038-.044.076-.066.113a1.637,1.637,0,0,1-.091.153v.022a.456.456,0,0,1-.034.117.4.4,0,0,0-.028.264l.07.221.026-.231a1.144,1.144,0,0,1,.185-.469l.014-.026.028-.05a.4.4,0,0,1,.036-.064c.026-.042.056-.081.085-.121l.03-.042.121-.052.062-.028-.026.026a.659.659,0,0,0-.064.072l-.018.022-.02.028-.018.024c-.01.012-.024.022-.036.034a.382.382,0,0,0-.056.058.162.162,0,0,0-.02.036v.02l-.052.076a1.194,1.194,0,0,0-.119.2.066.066,0,0,0,0,.038.06.06,0,0,0-.022.028.052.052,0,0,0,0,.042.089.089,0,0,1-.012.024.163.163,0,0,0,0,.175l.068.093.022-.113a.847.847,0,0,1,.119-.274,1.253,1.253,0,0,0,.062-.109.066.066,0,0,0,.03-.024.119.119,0,0,0,.016-.032.174.174,0,0,1,.014-.024c.02-.03.042-.062.056-.087a.061.061,0,0,0,.03-.022l.028-.044a.173.173,0,0,1,.056-.07c.2-.093.386-.2.57-.286l.06-.03c-.133.079-.268.167-.4.256h0l-.03-.012-.024.022c-.026.028-.056.054-.083.081a1.931,1.931,0,0,0-.229.246.061.061,0,0,0-.02.054l-.042.054a.579.579,0,0,0-.064.091.471.471,0,0,0-.07.26l.018.187.076-.173a2.186,2.186,0,0,1,.473-.66l.352-.171h0l-.032.022-.054.036a1.3,1.3,0,0,0-.173.135l-.064.066-.014.012c-.012.012-.014.012-.018.012h-.02l-.014.016-.062.064a1.492,1.492,0,0,0-.242.308v.016a.3.3,0,0,0-.048.165l.012.153.079-.133a1.936,1.936,0,0,1,.2-.274.527.527,0,0,0,.042-.052.209.209,0,0,1,.064-.068l.024-.014v-.022h0a.107.107,0,0,0,.042-.05l.01-.01a.089.089,0,0,0,.038-.077h0l.03-.012c.231-.091.451-.2.664-.3h-.012a.931.931,0,0,1-.149.085h0c-.044.032-.089.062-.135.091a2.128,2.128,0,0,0-.254.185.075.075,0,0,0-.046.026.079.079,0,0,0-.038.022.06.06,0,0,0-.018.066.064.064,0,0,0,.056.036h.056v-.018c.139-.076.28-.145.417-.211s.238-.117.356-.179l.022-.012.022-.012-.054.04a1.214,1.214,0,0,0-.175.1,1.442,1.442,0,0,1-.141.081h-.02v.02c0,.012-.042.026-.052.032h-.012a.038.038,0,0,0-.024.022h-.016a.05.05,0,0,0-.024.022h-.016a.066.066,0,0,0-.03.036h-.02c-.032.014-.1.044-.079.113l.016.06.054-.028c.115-.058.231-.115.344-.175l.35-.177c-.028.016-.056.036-.081.054l-.068.046-.074.046c-.079.048-.159.1-.242.151a.2.2,0,0,1-.046.03l-.054.032-.048.042a.246.246,0,0,1-.042.036h-.016l-.036.018-.034.026-.018.014-.024.016c-.03.018-.081.052-.076.1a1.016,1.016,0,0,0-.231-.016.674.674,0,0,0,.163-.131l.078-.083h-.113a.5.5,0,0,0-.467.258l-.054.1.109-.03.085-.028c.018.054.076.068.111.076h.022a.327.327,0,0,0,.064.012l.062.012h.024a.2.2,0,0,1,.068,0,.2.2,0,0,0,.05,0h.171a.185.185,0,0,0,.139-.044l.05-.054-.068-.026a1.078,1.078,0,0,0-.149-.048c.366-.2.739-.4,1.1-.586l.091-.048a5.459,5.459,0,0,0-.733.469l-.244.2.292-.105a4.354,4.354,0,0,0,.533-.25l.242-.125c.026-.012.054-.02.079-.03a.8.8,0,0,0,.087-.034l.117-.058.135-.07a7.1,7.1,0,0,0-1.153.7l-.29.229.34-.143c.231-.1.445-.2.656-.312h0l-.062.046a3.869,3.869,0,0,0-.539.352l-.4.3.384-.161c.185-.078.358-.167.525-.254l.238-.121.1-.05a5.256,5.256,0,0,0-.642.431l-.266.213.316-.129c.165-.068.32-.145.471-.223a5.265,5.265,0,0,0-.507.358l-.276.221.326-.137c.238-.1.461-.219.678-.334l.229-.121a6.823,6.823,0,0,0-.853.564l-.282.221.33-.137a5.629,5.629,0,0,0,.517-.246v.012l-.038.018a.169.169,0,0,0-.062.034h-.01a.217.217,0,0,0-.028.022h-.01l-.026.018a.068.068,0,0,0-.022,0,.488.488,0,0,0-.068.058.288.288,0,0,1-.038.034c-.03.022-.058.04-.087.058a.756.756,0,0,0-.151.117l-.155.167.211-.089c.127-.054.248-.115.368-.179l-.022.02-.183.165.233-.081c.119-.044.232-.091.342-.141-.076.056-.151.113-.223.173l-.211.175.258-.091a2.954,2.954,0,0,0,.28-.115,1.881,1.881,0,0,0-.213.163.109.109,0,0,0-.058.032.064.064,0,0,0-.016.066.058.058,0,0,0,.048.038h.028c.091-.046.183-.087.274-.129l.058-.026-.2.149-.2.173.25-.089c.064-.02.123-.044.183-.068l-.04.03a.368.368,0,0,0-.062.042.245.245,0,0,1-.05.034h-.02v.02a.147.147,0,0,1-.032.022c-.028.018-.056.036-.064.068a.06.06,0,0,0,.01.048l.026.038.04-.022a.921.921,0,0,1,.161-.074h.022l-.1.079-.177.155.225-.07a3.454,3.454,0,0,0,.5-.213,1.822,1.822,0,0,0-.225.181l-.147.135.2-.052a2.3,2.3,0,0,0,.33-.119.259.259,0,0,0-.066.058h0a.133.133,0,0,0-.064.046.117.117,0,0,0-.074.074.058.058,0,0,0,.038.068h.03a4.767,4.767,0,0,0,.5-.187l.2-.081a.06.06,0,0,0,.016.016l.014.01a1.482,1.482,0,0,0-.572.433l-.115.123.163-.044a.994.994,0,0,0,.209-.083,1.093,1.093,0,0,1,.131-.058l.014-.01a.945.945,0,0,1,.113-.078c.034-.022.066-.042.091-.062h0l.014-.01a.127.127,0,0,0,.07-.087v-.022a.048.048,0,0,1,0-.016h0v-.026l-.04-.121c-.03-.087-.06-.175-.091-.262v-.022h0c-.081-.219-.171-.431-.268-.636h0l-.072-.145v-.012h0a6.732,6.732,0,0,0-3.452-3.146l.062-.036-.093.022c-.219-.1-.447-.185-.684-.266l.052-.266a1.485,1.485,0,0,0-.046-.66c0,.012.01.024.014.034.018.113.044.221.068.324l.022.093a.549.549,0,0,1,0,.079.278.278,0,0,0,.022.159l.062.1.028-.115a1.179,1.179,0,0,0-.018-.5.43.43,0,0,0-.016-.085,2.873,2.873,0,0,1,.1.6h.1a2.263,2.263,0,0,1,.026-.227h0l-.016-.083a2.92,2.92,0,0,1-.05-.344v-.014c-.034-.085-.066-.173-.1-.258l-.018-.054c.024.056.048.117.068.171l.032.081c.016.044.03.079.042.117a.884.884,0,0,1,.022.117.767.767,0,0,0,.016.1.351.351,0,0,0,.024.089.634.634,0,0,1,.026.111.384.384,0,0,1,0,.068.326.326,0,0,0,.018.153l.056.133.036-.139a.915.915,0,0,0,0-.4l.018.026a1.08,1.08,0,0,1,.02.161.937.937,0,0,0,.032.215l.1.354v-.495a1.129,1.129,0,0,0,0-.123c.012.085.022.175.028.266l.022.386.076-.378a1.093,1.093,0,0,0,.02-.264l.012.042a.528.528,0,0,1,0,.079.278.278,0,0,0,.02.159l.06.1.03-.109a.824.824,0,0,0,.024-.236c0,.066.016.137.02.215l.024.34.074-.332a1.3,1.3,0,0,0,.028-.308v-.01c-.016-.07-.03-.139-.044-.211s-.018-.087-.028-.129a.184.184,0,0,0,.016.054l.018.089a.453.453,0,0,0,.02.1.477.477,0,0,0,.024.076.527.527,0,0,1,.026.1.336.336,0,0,1,0,.077.381.381,0,0,0,.03.183l.1.2v-.215a1.43,1.43,0,0,1,.012-.165c0,.06.014.121.02.183l.028.376.07-.37V121.7a.143.143,0,0,0,.038.064l.1.1-.012-.133a.54.54,0,0,1,.012-.137.968.968,0,0,0,.014-.109.212.212,0,0,1,0,.036.286.286,0,0,1,0,.072.214.214,0,0,0,.048.171l.079.054v-.074a.9.9,0,0,1,.02-.209c0,.07.018.139.022.213l.03.4.068-.4a1.649,1.649,0,0,0,.02-.167v.181l.032.012a.074.074,0,0,0,.066,0,.089.089,0,0,0,.026-.083.3.3,0,0,1,.012-.1.716.716,0,0,1,.012-.1v-.022a3.5,3.5,0,0,1-.074-.427,1.63,1.63,0,0,1,.058.231l.024.115v.026a.8.8,0,0,1,.032.3v.05h.052a.078.078,0,0,0,.056-.014.07.07,0,0,0,.022-.054.018.018,0,0,1,0-.01.994.994,0,0,0,0-.332,1.6,1.6,0,0,1,.038.2.324.324,0,0,1,0,.044.179.179,0,0,0,.04.153l.093.093v-.133a.58.58,0,0,1,.012-.141.7.7,0,0,0,.014-.093v.038a.5.5,0,0,1,0,.054c0,.058,0,.127.05.163l.07.034v-.079a1.818,1.818,0,0,0,0-.356,1.857,1.857,0,0,1,.034.211.171.171,0,0,1,0,.03.145.145,0,0,0,.05.149l.091.058-.016-.107a.444.444,0,0,1,0-.143h0a.453.453,0,0,0,.038.177l.1.187v-.211a.667.667,0,0,1,.018-.135.445.445,0,0,0,0-.284.373.373,0,0,0-.016-.064v-.03l.018.062c.012.044.026.089.032.127a.545.545,0,0,1,0,.113.372.372,0,0,0,.038.2l.1.177-.01-.2a.621.621,0,0,1,.012-.149.708.708,0,0,0,.014-.147.7.7,0,0,1,.018.217v.072h.02a.052.052,0,0,0,.016.026.06.06,0,0,0,.058.012h.036v-.038a.693.693,0,0,1,.014-.129.89.89,0,0,0,0-.2.147.147,0,0,1,0,.028v.089a.568.568,0,0,0,0,.062.139.139,0,0,1,0,.028.151.151,0,0,0,.054.139l.074.042v-.085a1.2,1.2,0,0,1,.014-.2.318.318,0,0,1,.01-.1,1.141,1.141,0,0,0,.02.127.266.266,0,0,1,0,.04.147.147,0,0,0,.044.135l.068.054.012-.085a1.686,1.686,0,0,0,.018-.37,1.867,1.867,0,0,1,.026.274v.054h.012a.052.052,0,0,0,.018.026.056.056,0,0,0,.056.012h.034v-.036a1.3,1.3,0,0,1,.022-.179.714.714,0,0,0,.024.145l.046.248.05-.246a1.461,1.461,0,0,0,.028-.171.328.328,0,0,0,.036.147l.083.141v-.252a.276.276,0,0,0,.028.083l.091.165v-.187a.914.914,0,0,1,.018-.167.181.181,0,0,0,.044.153l.081.06v-.1a.634.634,0,0,0,.066.05l.024.018.014.016a.131.131,0,0,0,.087.056h0a.085.085,0,0,0,.054-.026l.024-.028-.02-.032a.643.643,0,0,0-.054-.07v-.032a.264.264,0,0,1,.016-.066.06.06,0,0,0,0,.02l.119.264-.026-.288a.139.139,0,0,1,0-.028.183.183,0,0,0,.01.02l.153.246-.064-.282a.076.076,0,0,1,0-.03l.018.022.077.081v-.151a.076.076,0,0,0,.032.012l.056.01v-.056h.012l.058.02v-.06a.423.423,0,0,1,0-.046.065.065,0,0,0,.012.02l.06.07.026-.087a.08.08,0,0,1,.01-.046.066.066,0,0,0,.042.016h.048v-.083h0l.046.032.026-.048a.218.218,0,0,0,.018-.046l.032.036.036-.05a.163.163,0,0,0,.024-.05h.054l.014-.026a.2.2,0,0,0,.02-.036h.022a.3.3,0,0,0,.1-.068.256.256,0,0,1,.07-.048h.018V120.6a.759.759,0,0,1,.062-.093.539.539,0,0,0,.1-.173l.02-.074Zm-2.373-5.069Zm-.425,8.9.056-.022h.012Zm.2.145.018.014h-.044a.366.366,0,0,1-.081.012h0a1.013,1.013,0,0,1,.115-.026Zm.217.358.072-.024h-.026Zm.219.338.093-.036.014.014-.083.016Zm.745,1.208h.012Zm-17.422-6.641.026.105c-.022-.034-.044-.068-.062-.1l.028-.1v-.018a.246.246,0,0,0,.016.107ZM155.311,113.378Zm7.73,7.583a.052.052,0,0,0,.018-.032l.02.068c.012.038.024.078.036.105l.024.159c.02.119.04.242.054.368v.04l-.117-.028v-.022a1.751,1.751,0,0,0-.026-.658Zm-.151.02h0a3.253,3.253,0,0,1,.091.632h0l-.068-.014a1.632,1.632,0,0,0-.016-.618Zm-.165.081h0l.032.03a2.9,2.9,0,0,1,.056.487l-.081-.016a1.937,1.937,0,0,0,0-.5Zm2.426,2.824.113-.054-.1.07h-.01a.09.09,0,0,0,0-.022Zm-8.321.548-.175-.169.129.093a.139.139,0,0,0,.04.03Zm-1.3.4.02-.014h0v.048h0a.275.275,0,0,1-.018-.026Zm-.829,1.1h-.012c-.012-.012-.026-.024-.038-.038l.042.034h0Zm-.119-6.19v.012l-.024-.064h0a.25.25,0,0,1,.032.064Zm-.741-.105-.018-.028a.059.059,0,0,1,0-.018.308.308,0,0,1,.026.054Zm-2.42-.413v.06l-.012-.016ZM153.35,116.016Zm6.528-.656H160l-.01.012h-.111Zm5.876-.876Zm.795,5.105Zm1.878,1.326Zm-1.365-.962Zm-2.3,3.7.028-.012-.091.1c-.046.052-.089.1-.133.159.052-.07.1-.135.155-.2Zm.139.028h0a.079.079,0,0,0,.046-.072.064.064,0,0,0-.016-.03l.054-.024a3.778,3.778,0,0,0,.413-.2.273.273,0,0,0,.077-.022l-.034.02-.119.07a2.709,2.709,0,0,0-.429.274Zm-11.59-6.073v-.012h0Zm.306.2a1.025,1.025,0,0,1,.153-.274h.012c-.032.048-.062.1-.091.149s-.048.076-.074.115Zm-.312,1.6v.022a.125.125,0,0,1-.012-.054.1.1,0,0,0,.012.022Zm-.079-.475v.01h0v-.018Zm-.087.219v-.026a.2.2,0,0,1,.016.06.325.325,0,0,0-.016-.044Zm.121-.34h-.012l.018-.056c.024-.083.048-.169.078-.252a2.818,2.818,0,0,0-.083.3Zm.533-.908a1.916,1.916,0,0,1,.171-.322v.01c-.036.079-.079.157-.125.238Zm.566-.25a.051.051,0,0,0,0-.02h.014l-.01.012v.01Zm1.151.223H155.5l-.01.014c-.026.044-.056.085-.083.127s-.066.093-.1.145c0-.024.022-.046.034-.07l.012-.026a.556.556,0,0,1,.129-.2l.022-.018Zm8.1-2.554h0l-.026-.012h0a.03.03,0,0,1,.026,0Zm-.288,2.1Zm.29-.167h0v-.01Zm0,0h0l0-.006Zm.477-.1Zm-3.806,3.347v.018h0v-.01Zm-.2.238-.016-.018h0l.006.012Zm-.089.626Zm-5.479,2.409h0l.018.018H154.5Zm.113-.1.032-.024.03.034h-.018a.066.066,0,0,1-.054-.016Zm.145-.117h.012l.022.024Zm1.083.036Zm0-.04.01.02-.01.02h0v-.04a.024.024,0,0,1,.02,0Zm-1.137,1.634.117.1h0a.6.6,0,0,1-.1-.089Zm.9-.994Zm-.143.091Zm-.079-.04h.02c-.02.008-.028.01-.03,0Zm.153-.332c0,.01-.012,0-.012,0Zm-.284.67Zm.012,0a.016.016,0,0,1-.01.016Zm.105-.1Zm.213-.513-.02-.014v.03c-.01,0-.012-.01,0-.03s.026.01.026.014Zm.147-.334h0Zm-.463-.161-.038-.03a.771.771,0,0,0-.187-.119.131.131,0,0,0,.034-.024c.07.064.143.125.215.185Zm-.3,0-.066-.034.02-.016a.54.54,0,0,0,.036.048Zm.227,2.124.016-.022.018.014h0l-.026.04-.02-.022ZM155.335,124.97Zm.785-1.9c.01,0,.012,0,.012-.012v.012Zm-.155-.994a.088.088,0,0,1,0,.02.1.1,0,0,1,0,.022v-.036Zm-.711-4.173v-.014h0a.094.094,0,0,1-.012.018Zm.068-.085Zm-1.339-1.955a.2.2,0,0,0,.04-.042h0l-.034.05ZM160.025,112.725Zm2.4,5.1a.542.542,0,0,1,.064.074.268.268,0,0,0-.022.028l-.012.014h-.014l-.036-.087c-.012-.026-.024-.056-.034-.083v-.018h0Zm-4.133,4.034v.01Zm-2.011,1.149h0c0-.012.01-.01.012,0Zm-.759-6.908-.018.02c-.014.018-.03.034-.046.052h0a.181.181,0,0,0,.022-.032Zm-.153.179-.02.034a.091.091,0,0,0-.014.014.232.232,0,0,1-.042.032v-.012a.949.949,0,0,1,.066-.078Zm-1.023-.32a.223.223,0,0,0,.026-.032l.072-.07-.048.062a.131.131,0,0,0-.02.036v.012Zm3.378-.62h0v-.012Zm4.714,5.8a1.087,1.087,0,0,0-.022-.147h.012a1.88,1.88,0,0,1,.052.453h0l-.016.014h0v-.026h-.012v-.113A1.615,1.615,0,0,0,162.436,121.145Zm-.628,2.112h.04C161.859,123.285,161.8,123.287,161.808,123.257Zm-1.157-3.492h-.014Zm-.238-.723a.038.038,0,0,1,0,.014h0a.022.022,0,0,1,0-.016ZM160.277,119.269Zm-2.186,2.637h-.014C158.078,121.892,158.091,121.906,158.091,121.906Zm0,0c0,.012-.012,0-.012,0Zm-1.667,1.051Zm.229-.527c0-.012.012,0,.012,0ZM156.6,122.756Zm-.159-.1h0a.067.067,0,0,1,0-.022Zm-1.953-7.138-.026.026.034-.038Zm3.378.078h.01s-.014,0-.018,0Zm4.416.878a.028.028,0,0,1,0,.018h-.006Zm-.278,6.973h.008Zm-3.023-2.52h0l-.008,0Zm-.354-.2h-.014v0h0v.012h.014Zm0,0v.014h0Zm-.173.759h0l-.008.006Zm-.016,0h0s-.008,0-.008,0Zm-2.4-2.186h-.012c0-.008,0,0,0,.006Zm-.014,0h.014C156.041,119.316,156.027,119.3,156.027,119.3Zm6.987.489h.014a.038.038,0,0,0-.018,0ZM157.4,122.23Zm2.095-5.495Zm3.247,2.963h-.01a.159.159,0,0,0-.026-.081.165.165,0,0,1-.018-.04v-.012a1.15,1.15,0,0,1,.1.117.458.458,0,0,1-.058.022Zm-.1.038h0l-.022.01c-.01-.026-.018-.05-.028-.074l.054.062Zm-4.372,1.033h-.014c-.012-.01,0,0,0,.006Zm-.948,1.645Zm1.838-4.648Zm1.918-1.862a.03.03,0,0,1,0,.012h-.018V115.9Zm.994.914h0c0-.012,0-.012-.014-.014h.014v.016Zm-2.647,2.047Zm0-.018Zm-1.407,1.765h-.008Zm1.542-3.764h.089l-.081.012h0Zm2.609,4.571a.067.067,0,0,0-.04-.022h0l.014-.024v-.034a.056.056,0,0,0-.034-.042.058.058,0,0,1,0-.018l.01-.012.046-.014-.014-.046a.056.056,0,0,0-.042-.046.243.243,0,0,1,.032-.036l.014-.014a2.9,2.9,0,0,1,.016.3Zm-2.218-3.6Zm1.27-.994Zm-.171.437h-.012a.03.03,0,0,0,.014,0Zm-.022,0Zm.012.378h-.008Zm.912,1.522Zm.149,1.085Zm-.318-3.577h0Zm-.364,1.077h0a.01.01,0,0,0,0,.01ZM161.8,117.228Zm.012.012c0-.01,0-.012-.012-.012h.012v.016ZM161.609,117.041Zm.5,3.2h0a.01.01,0,0,1-.006,0Zm-.147-1.085Zm-.976-.658Zm.358.413h0l.034.016h-.026Zm-.578-1.82Zm-.87.068-.189.03v-.018Zm-.386,1.232v0Zm.04.252h-.012Zm1.27-.817Zm-3.076,2.919a.018.018,0,0,1,.02,0Zm-.048-.258-.018.014h0Zm-.326.934h0v.016h.02a.018.018,0,0,1-.02,0Zm-.036-.254Zm-.783-1.948Zm.419-.934ZM157,121.184Zm.415-1.8H157.4c.012,0,.012,0,.014-.014Zm-.183,1.391h0s0,.008,0,.01Zm0,0Zm-.157-2.144h0l-.02.016Zm.157,2.186h0Zm-.362-1.5Zm.076,1.137h0l0,0Zm-.141-.1h.014C156.816,120.37,156.8,120.354,156.8,120.354Zm.014,0H156.8C156.8,120.344,156.816,120.354,156.816,120.354Zm.348.733ZM156.738,119.273Zm.256,1.918H157a.014.014,0,0,0-.008,0Zm.244-.016Zm.05.068v0Zm.076-.1Zm1.846-2.663h0s0,0,0,0Zm.083.386Zm0,0Zm-2.884.292h0v.01Zm.4,1.745h0Zm-.012,0Zm1.369-1.56-.026.012h0a.048.048,0,0,1,.022-.012s0-.006,0,0Zm0,.02v-.006Zm3.762,1.528a.2.2,0,0,1-.056.064h0a.231.231,0,0,1,.036-.054l.02-.022,0,.008Zm.4-1.063.032.034v.012a.091.091,0,0,1-.032.014l-.024-.05ZM158.527,117.126Zm-2.238,2.349h-.014A.022.022,0,0,0,156.289,119.475Zm.2.823h0v.01h0Zm.308.753h0s-.01,0-.006,0Zm.012,0H156.8a.022.022,0,0,0,.014,0Zm1.159-.2Zm1.355-1.554v-.026h0l-.012.026h0Zm1.532-.757Zm.312,1.747h.012Zm1.153,1.2H162.3l.024-.03a.036.036,0,0,0-.012.03Zm.115-1.789c.028.032.056.066.085.1l-.016.01-.026.014c-.02-.042-.034-.081-.05-.119Zm-3.062-2.158h0Zm-.529.028h.018c-.014.01-.022.012-.024,0Zm-2.562,1.9h0s-.01,0-.006,0Zm.568,3.118v-.038h0v.038h.018a.012.012,0,0,1-.024,0Zm.423-.252h0v.03h-.012v-.028h.006Zm.129-.123Zm.143-.994Zm.388-.2h0v.01Zm.048-.07Zm.27-.167h.012s-.018,0-.018-.008Zm4.042.531h0a2.345,2.345,0,0,0-.02-.316l.014.016c0,.042.014.091.018.137s.01.093.018.137A.076.076,0,0,1,162.293,121.314Zm.608-1.445h.014Zm-.01-.231c-.03-.056-.054-.115-.079-.177l-.052-.123h0a.426.426,0,0,1,.052.091v.012a.5.5,0,0,1,.05.1.719.719,0,0,0,.04.089ZM156.4,120.366Zm.219,1.161Zm.189-.292h0s-.01,0-.006,0Zm-.012,1.5a.058.058,0,0,0,.012-.02h0v.016h0Zm.2-.236h0v.016h0Zm.4-.242Zm.111-.451c.014-.014.02,0,.012.012s-.026-.006-.018-.012Zm.2-.761Zm.425-.258h0Zm.326.709Zm1.192-.463h0v.01a.016.016,0,0,1-.012-.01Zm.312-.795h0v0Zm.7-1.455h0a.047.047,0,0,1,0-.024.032.032,0,0,1-.012.016Zm1.82-2.269h.014a.063.063,0,0,0-.026-.008Zm-4.372-.6h0a.016.016,0,0,1,0,.012s0-.022,0-.026Zm0-.024v.01h0Zm-1.512.984.018-.02-.117.137h0a.953.953,0,0,1,.089-.131Zm-.012,4.606h0l-.01-.014Zm.171,1.226a.024.024,0,0,1,0-.016h0Zm2.605-1.481Zm0,0h0a.014.014,0,0,1,0,.01Zm-.012-.012h.006a.14.14,0,0,1-.014-.018Zm.449-.131Zm1.769-.2a.056.056,0,0,0-.026,0l-.056-.016a.068.068,0,0,0-.04,0l-.018-.016a.067.067,0,0,0-.03-.014.32.32,0,0,1,.036-.058h0a.644.644,0,0,1,.2.07l.032.016a.114.114,0,0,0-.03.032h0l-.04-.016Zm.294,2.583h-.01Zm.062-.155Zm.435-5.35-.06.01.022.056c0,.014,0,.018-.018.036v-.026a.531.531,0,0,0-.048-.123.463.463,0,0,1-.042-.107v-.018l-.014-.01a.145.145,0,0,1-.014-.034h0a1.307,1.307,0,0,0,.145.161l.062.058ZM159.2,116.773Zm-.05-.246c0-.01,0,0,.01,0Zm-1.286-.938h0c0-.014.014,0,.014,0h-.012Zm-.018-.1a.02.02,0,0,1,0-.014Zm-3.672.386.028-.032a.648.648,0,0,1,.07-.078l.119-.133a.11.11,0,0,0-.01.016c0,.014-.018.026-.03.04l-.012.012a.177.177,0,0,0-.026.028c-.016.02-.028.038-.042.058l-.026.034-.018.032a.2.2,0,0,1-.052.062h-.034Zm.386.091.046-.046.151-.167.022-.026c-.081.1-.165.2-.242.308h-.03a.472.472,0,0,1,.054-.068Zm1.86,5.435Zm-.109-.078h.012Zm.072,1.59h-.014s0,0,.014,0Zm.04.052h0v0Zm1.125-.9-.018.014h0Zm.054.022v.01h0s0-.01,0-.012Zm.421-.068v.016h0a.053.053,0,0,1,0-.018Zm.513-.225Zm.185-.924.014.014h0l-.016-.012h0Zm.121.268s-.018,0-.012-.012c.022-.044.052.008.012.02Zm1.562-1.864Zm.523,1.5.121-.217a.4.4,0,0,0,.058.028.179.179,0,0,0,.04.052l-.034.026h0l-.02-.062-.058.062-.083.093c-.012.014-.024.03-.038.044Zm.994,2.836Zm.074.038ZM162.018,123.649Zm1.113-4.094a.056.056,0,0,0-.052-.02.06.06,0,0,0-.046.046h0c-.01-.014-.018-.03-.028-.046a.044.044,0,0,0,.014-.018v-.042c-.024-.056-.052-.117-.081-.181.042.056.085.107.129.155l.079.093ZM161.074,111.838Zm-4.064,2.82Zm-1.415-.652-.012.056h-.02a.215.215,0,0,1,.016-.056.879.879,0,0,0,.046-.183.741.741,0,0,1-.03.179Zm-.876,2.073a.4.4,0,0,0,.064-.076.324.324,0,0,0,.077-.079c.012-.014.02-.026.032-.038l-.081.1-.03.038a.506.506,0,0,1-.064.079H154.7Zm.173.076a.294.294,0,0,0,.062-.068l.221-.236.137-.147c.034-.038.07-.076.105-.111-.044.048-.085.1-.129.151l-.089.105a2.9,2.9,0,0,0-.27.348l-.034-.014-.02-.012Zm.3-.018.066-.066q-.079.1-.155.2h-.018a1.257,1.257,0,0,1,.107-.137Zm.338.231-.012.02a.227.227,0,0,1-.044.05h0Zm.857,1.87h-.016l.012-.012Zm-1.292.972ZM155.492,119.569Zm1,3.293h0v.016a.016.016,0,0,1,0-.02Zm1.288-.632Zm0,0h0a.014.014,0,0,1,0-.01c0-.016,0,0,.012,0Zm.05.064v-.026h0a.071.071,0,0,0,0,.02Zm.052-.129Zm2.792-1.506c.016-.066.032-.133.05-.2a.541.541,0,0,1,.077,0,2.548,2.548,0,0,1-.127.231l-.012.022Zm.582,2.723h0Zm.02,0Zm.461.133Zm.209.256Zm.155-.054a.052.052,0,0,1-.01.036l.01-.038Zm1.459-1.1Zm-.127-2.949h.01a.01.01,0,0,1-.01,0Zm.093-1.55Zm.115-.545v-.01h0v0Zm-.062-.1v.016h0v-.012Zm.386-.2h0a.017.017,0,0,1,0,0Zm1.192.093h-.016c.012,0,.012,0,.014-.012ZM165.106,117.254Zm-.4-.058.01-.024h0a.026.026,0,0,1,0,.02Zm-.5.258-.01.018h.02a.018.018,0,0,1-.02,0v-.038a.018.018,0,0,1,.02,0h-.02Zm-.087.167h0v-.02h0v-.02h0Zm-.068-.125h-.01v-.014h.012Zm1.59-.628Zm-.04-.038h.006Zm-.165.231h0Zm-1.051-.1Zm-.264.316h0l.012-.026h0a.078.078,0,0,1,0,.022Zm-.234.244v.016h0v-.01Zm-.6-1.955Zm-.143.127Zm.163-.157h0Zm-3.776.87.159-.018a2.509,2.509,0,0,0-.336.076.2.2,0,0,1-.022-.034c.052-.01.119-.016.179-.024Zm-2.5-1.753Zm-2.053,3.056s-.01,0,0,.01h-.02l.016-.018h.018Zm-.4-.078.012-.016h.014Zm-.1.145c0-.022.02-.046.028-.068a.21.21,0,0,0,.03-.03.7.7,0,0,1-.052.089Zm-.1-.169v-.016l.01-.01h.02Zm-.115.179-.026.048a.259.259,0,0,1,.016-.034l.022-.054a.18.18,0,0,1,.032-.072.048.048,0,0,0,.03-.02,1.029,1.029,0,0,1-.068.131Zm-.079-.223v-.012h.014Zm-.113.183c.016-.038.034-.076.048-.113l.022-.018a1.366,1.366,0,0,1-.064.131Zm-.115-.187.022-.028h.04l-.046.022Zm1.345,1.967h.018a.033.033,0,0,1,0,.01h-.018Zm.845.884v.036l-.028.038a.174.174,0,0,0,.034-.074Zm-.409,1.884h0a.067.067,0,0,0,.024.012.054.054,0,0,0,.064-.038h0l.046.276-.141.083Zm.181-.058v-.06a.4.4,0,0,0,0-.048.123.123,0,0,0,.026.091l.085.107v-.157a.114.114,0,0,0,.016.026l.1.111-.014-.147v-.012l.012.028.1.161a4.088,4.088,0,0,0-.384.2Zm.334-.089a.177.177,0,0,1,0-.056.248.248,0,0,0,0-.062.149.149,0,0,0,.022.058l.087.137v-.209a.084.084,0,0,0,.022.079l.032.024.028-.016a.06.06,0,0,0,.03-.064.489.489,0,0,1,.052-.183.441.441,0,0,0,0,.07.246.246,0,0,1,0,.064l-.026.054h.042c-.081.089-.171.179-.268.274h-.012Zm-1.882,1.737c.048.046.1.089.147.131a1.2,1.2,0,0,1-.1-.074l-.014-.012h-.018a.1.1,0,0,1-.046-.014h-.01Zm-.016.256-.014-.014a.058.058,0,0,0-.03-.036,1.044,1.044,0,0,0-.1-.038l.016-.018.018-.022.085.076.105.089Zm-.032.213-.133-.1-.038-.028h-.01a.241.241,0,0,1-.064-.022h-.022a.219.219,0,0,0,.032-.03.937.937,0,0,0,.133.119.2.2,0,0,1,.107.058Zm-.328.012-.016-.014h-.02a.062.062,0,0,1-.038,0l.026-.028.012-.014c.107.083.215.171.326.264-.107-.079-.2-.149-.284-.209Zm-.056.185c.076.07.155.135.234.2l.018.014c-.054-.04-.109-.077-.163-.113l-.151-.1h-.012a.232.232,0,0,1-.05-.014h-.02v-.01a.286.286,0,0,0,.038-.044l.028.028a.2.2,0,0,0,.081.044Zm.723,1.107a.318.318,0,0,1,.052.052l.01.012-.083-.076Zm.105.1h0l-.026-.026Zm.252.2v.016a.091.091,0,0,0,0,.028.182.182,0,0,0-.026-.02l-.042-.05-.016-.014a.081.081,0,0,0,.014-.022l.044.034Zm.077-.183v.016a.2.2,0,0,0-.046-.044h0l.034.024Zm.2-.308h0l.02-.014h0Zm2.325-3.209h-.012a.012.012,0,0,0,.012,0Zm.215,0h-.014a.016.016,0,0,1,.028,0Zm.292-.31v.022h0a.03.03,0,0,1,.014-.026Zm2.24-2.025Zm1.675,3.889Zm2.5-4.36-.01-.01h.014Zm1.282-2.108h0a.113.113,0,0,0,.02.042l-.014.024h0a.283.283,0,0,0-.018-.054Zm.153-.149H166l-.014.022V117.2Zm.268.014h0v.012a.149.149,0,0,1-.03.046h0l-.012-.026a.1.1,0,0,1,.056-.032Zm-.864-.431v.01h-.016l.01-.018h0Zm-5.234-2.4a.147.147,0,0,1-.068,0h.07Zm-.4.819.121-.016h.014a.58.58,0,0,1-.131.022Zm-.509,1.075.187-.014-.2.05-.02-.034Zm-3.655-2.73h0a.1.1,0,0,0,0-.024h.012C155.617,113.51,155.6,113.531,155.593,113.533Zm-.133-.091Zm-.058.111a.084.084,0,0,0,.028.012l-.014.012h0a.268.268,0,0,0-.014-.036Zm.02.105h.016l-.024.1a1.285,1.285,0,0,1-.062.2h-.028A.515.515,0,0,0,155.423,113.659Zm.878,4.241c.024-.028.052-.056.079-.083h0a.688.688,0,0,1-.089.127l-.026-.012Zm-4.593,1.373a.316.316,0,0,1,0,.076l-.014-.026a.226.226,0,0,1,.014-.05Zm.07.2.018-.016a.2.2,0,0,0,.036.064.438.438,0,0,0,.038.109.353.353,0,0,1,.024.058v.038a2.045,2.045,0,0,0-.117-.25Zm1.451.266v0Zm2.564,1.353.018.012h-.026Zm-1.967,3.631-.068-.044-.016-.01h-.018a.072.072,0,0,1-.044-.01h0l.016-.018.014-.018Zm-.02.231h0a1.453,1.453,0,0,1-.163-.109l-.014-.01h-.016a.149.149,0,0,1-.046,0,.413.413,0,0,1,.034-.048c.062.048.133.109.2.171Zm-.268.038-.034-.01-.05-.014.02-.034Zm1.715.928v.012l-.014-.014.016-.02.012-.014a.242.242,0,0,1-.014.032Zm.775-1.095a.467.467,0,0,0-.06-.066l.068.054.036.03v.016Zm4.8.413h0Zm-.034-.419.083.02H160.8a.071.071,0,0,0,0-.016Zm.048.149h-.04v-.01Zm0,.131.05.012h-.083v-.02Zm-.062-.435.133.034h-.131v-.012a.091.091,0,0,1,.006-.018Zm-.036-.63h.05A.131.131,0,0,1,160.744,124.032Zm.139,1.7h-.05v-.012a.152.152,0,0,0,0-.03h.042a.7.7,0,0,0,.141.032l.03.014a.994.994,0,0,0-.145,0Zm-.066-.2a.7.7,0,0,0,.185.04h-.091a.655.655,0,0,1-.089,0v-.044Zm.081.346a1.228,1.228,0,0,0,.139.028l.048.026-.072-.018h-.173a.086.086,0,0,1,0-.022v-.028Zm.03-.457a.364.364,0,0,1-.105,0,.22.22,0,0,0,0-.038c.052.012.1.028.153.042Zm.062,1.171h-.034a.524.524,0,0,1-.1,0,.069.069,0,0,0,0-.02v-.014Zm.036-.171.054.024h-.127a.49.49,0,0,1-.093,0,.152.152,0,0,0,0-.03v-.026a1.032,1.032,0,0,0,.175.028Zm-.179-.2a.846.846,0,0,1,.159.04.976.976,0,0,0-.109,0h-.04v-.028Zm.157.533.034.012h-.058a.632.632,0,0,1-.107,0,.315.315,0,0,0-.01-.05v-.01a1.031,1.031,0,0,1,.149.044Zm-.133.173v-.04l.131.04Zm0,.266v-.022l.064.022Zm0,.127.066.02h-.064a.192.192,0,0,0,0-.024Zm.03.173h-.028v-.02a.63.63,0,0,1,.087.024Zm-.03.123h0Zm.012.143h-.02v-.01h.016Zm.137-1.665h-.171a.073.073,0,0,1,0-.022v-.038a2.515,2.515,0,0,1,.32.107c-.046-.022-.1-.032-.143-.052Zm3.408-2.025.042-.066.02-.02a1.052,1.052,0,0,0-.064.1.078.078,0,0,0,.008-.018Zm-1.81-2.6h0v-.018a1.252,1.252,0,0,0-.012-.173.873.873,0,0,0-.02-.229,4.058,4.058,0,0,1,.054.421Zm.807-.548.016.026v.022a.483.483,0,0,0-.01-.052Zm.236.348c.01.046.02.089.028.137h0a.963.963,0,0,1-.04-.187.11.11,0,0,1,.018.046Zm4.624-.268Zm-4.994-1.508h-.024l-.048-.081-.018-.032.107.1ZM166.505,116.773Zm.266.107a.1.1,0,0,1,0-.026.121.121,0,0,0,.014.028Zm-4.052.831a.344.344,0,0,0-.1.072l-.03.028c-.022-.048-.048-.091-.072-.133a1.19,1.19,0,0,1-.07-.131.066.066,0,0,0,.072,0l.074-.034-.064-.05a.119.119,0,0,1-.022-.048.111.111,0,0,1,0-.024h0c.048.062.1.119.151.177l.093.1Zm3.3-3.428-.016-.024.026.024Zm-6.705,1.866-.076.026-.054.02-.024-.04C159.206,116.155,159.258,116.153,159.312,116.149Zm-7.77,3.257a.261.261,0,0,0-.01.042.474.474,0,0,0-.026-.042l.02-.056v-.014a.2.2,0,0,1,.018.052A.032.032,0,0,1,151.541,119.406Zm1.914.332v.02l-.024-.085v-.018a.028.028,0,0,0,0-.014.582.582,0,0,1,.038.079Zm.918.111a.3.3,0,0,0-.014-.058v0A.3.3,0,0,1,154.373,119.849Zm.705.076h0v-.044l.01.03Zm-.876,3.6v-.016a.068.068,0,0,1,0-.02v-.026l.01-.018c.014-.02.058-.085,0-.131h0a1.3,1.3,0,0,1,.129-.252l.04-.056h-.028a.208.208,0,0,0,.024-.042l.07.056v-.1h.034l.016-.042v-.012l.048.048.026-.074a.529.529,0,0,0,.014-.054l.078.1v-.113l.072.2v-.266a.1.1,0,0,1,0-.024l.1.153v-.167l.081.137v-.209l.081.117v-.149a.216.216,0,0,1,0-.052.081.081,0,0,0,.01.018l.089.105v-.111l.1.147v-.209a.149.149,0,0,0,.014.024l.085.115v-.143a.555.555,0,0,1,.048-.133h0a.113.113,0,0,0,.03.1l.1.087-.018-.131v-.018l.012.012.1.074-.02-.119h0a.053.053,0,0,0,.1-.008v-.054a.219.219,0,0,0,0,.036l.07.326-.032.02-.046.022a.525.525,0,0,0-.058.03.078.078,0,0,0-.032.03l-.006-.006h-.02a.127.127,0,0,0-.044.018,7.9,7.9,0,0,0-.994.751c-.064.056-.129.117-.2.179A.228.228,0,0,0,154.2,123.529Zm.183,3.18v.026l-.115-.109c.03.022.062.04.093.06a.1.1,0,0,0,.022.038Zm-1.651-.445a.288.288,0,0,1,.02-.05l.076.07-.016-.01h-.024a.155.155,0,0,1-.056,0Zm.137-.3h0l.016.014Zm.066-.135h0V125.8l.036.032Zm.076-.143h0l.012-.022.032.03h-.044Zm.079-.147.012-.024.038.034h0Zm.155-.258.01-.022.01-.02a.259.259,0,0,1,.034.032l.026.024h0a.4.4,0,0,1-.079,0Zm.151.058Zm.227-.062a1.768,1.768,0,0,1-.185-.125l-.014-.012h-.018a.167.167,0,0,1-.066-.014h0l.03-.044.262.211Zm-.962,1.161c0-.012.01-.024.014-.038l.068.058h-.081Zm8.217,1.618.111.034a.421.421,0,0,0-.111,0Zm0-.129a.449.449,0,0,0,0-.052l.147.046a.421.421,0,0,0-.143.02Zm1.353-.815h.01v.012Zm.076-2.727-.121-.1.087-.022-.048-.036v-.078a.073.073,0,0,1,0-.022h0v-.014l.01-.012a.149.149,0,0,0,.024.1l.105.137-.018-.171a.169.169,0,0,1,.012-.072h0a.606.606,0,0,0,0,.157l.032.225Zm.074-.376Zm1.971.177a.064.064,0,0,0,.012-.038l.018-.016.024-.022-.02.032a.246.246,0,0,0-.034.046Zm.435-.37a.078.078,0,0,0,.016-.038l.022-.014h.014l-.046.054a2.208,2.208,0,0,0-.171.217,1.061,1.061,0,0,0-.07.1c.062-.087.125-.171.185-.252Zm.2-.066.026-.016a.1.1,0,0,1,.062,0h.018l.012-.012a.3.3,0,0,1,.083-.042.5.5,0,0,0,.087-.042.135.135,0,0,0,.056-.024c-.141.085-.28.179-.417.278a.2.2,0,0,0,.07-.125Zm2.158.2a.326.326,0,0,1,.056-.014h0Zm-3.859-2.258.01-.058a1.971,1.971,0,0,0-.105-.862,1.207,1.207,0,0,1,.135.318,1.677,1.677,0,0,0,.034.215,1.156,1.156,0,0,1,.032.322.056.056,0,0,0,.05.058.058.058,0,0,0,.06-.058v-.034a1.007,1.007,0,0,0-.012-.372,1.658,1.658,0,0,1-.026-.2l.018.07a1.727,1.727,0,0,1,.077.527c0,.064.026.079.044.083a.056.056,0,0,0,.064-.036v-.076a1.013,1.013,0,0,1,.02-.165v-.01a.948.948,0,0,1,.016.173.105.105,0,0,0,.024.091l.026.022.03-.012a.068.068,0,0,0,.032-.064,1.479,1.479,0,0,0-.016-.411v.014a1.278,1.278,0,0,1,.056.453v.044h.044a.074.074,0,0,0,.062-.018.1.1,0,0,0,.02-.1h.014v-.04a.365.365,0,0,1,0-.121v-.032c-.022-.079-.036-.163-.05-.244s-.024-.137-.04-.2a.9.9,0,0,0,.06.091c.012.068.028.129.044.2a1.357,1.357,0,0,1,.056.419.06.06,0,0,0,.052.058.058.058,0,0,0,.06-.058v-.046a.854.854,0,0,0,.014-.2v-.048a.9.9,0,0,1-.038-.2.656.656,0,0,0-.022-.137l.02.026.036.177a2.531,2.531,0,0,1,.064.459v.26A8.762,8.762,0,0,0,163.286,121.689Zm1.443-2.428h0s0,0,0,0Zm-1.272.147h0l-.018.038h-.024a.1.1,0,0,1-.02-.024.221.221,0,0,1-.018-.038c-.012-.036-.032-.046-.05-.046h-.014a.048.048,0,0,0-.034.034l-.022-.058c-.016-.048-.036-.1-.056-.145a1.087,1.087,0,0,0,.105.109Zm.135-.368Zm2.911-1.729a.466.466,0,0,0-.022-.056l.048-.05h0l.018.022a.07.07,0,0,0-.01.016.317.317,0,0,0-.032.068Zm-3.726.346-.036-.125a1.126,1.126,0,0,0-.052-.163.768.768,0,0,1,.064.074c.024.028.046.056.072.081l.056.054Zm3.851-4.247ZM153.29,114.163Zm-2.14,4.968c.02-.066.044-.133.068-.2v.024l-.016.074a.258.258,0,0,1-.016.068,1.039,1.039,0,0,0-.038.308v.028a.119.119,0,0,0-.038-.032.246.246,0,0,0-.028-.036Zm1.542.654.02-.024h.016a.087.087,0,0,1,0,.02h0a.038.038,0,0,1-.034.014Zm1.48.141v.02a.765.765,0,0,1-.016-.109c0,.024.018.046.026.07Zm1.59.292h0v0Zm.181.272a1.361,1.361,0,0,1,0-.157V120.3a.455.455,0,0,1,.032.147.411.411,0,0,1-.024.115l-.012.046Zm-1.779,6.655h0a.518.518,0,0,1-.062-.054l.034.02h.01a.052.052,0,0,0,.024.022Zm1.033-.7-.022-.044a.525.525,0,0,0-.189-.2c-.032-.034-.064-.07-.1-.1l-.083-.091c.062.048.123.1.189.137a.258.258,0,0,0,.042.032l.016.01h0a.084.084,0,0,0,.083.034l.034-.018v-.05l-.012-.016a.479.479,0,0,0-.068-.074.181.181,0,0,0,.034-.034h0a.2.2,0,0,0,.038.024c.026.016.04.026.046.04a1.893,1.893,0,0,0-.01.352Zm7.325-2.42Zm1.258.517h0a.115.115,0,0,0,0-.038.4.4,0,0,0,.024-.042A.222.222,0,0,1,163.781,124.539Zm.475-.2c.018-.032.042-.066.064-.1l.026-.034-.028.046a.306.306,0,0,1-.06.089h0Z" transform="translate(-53.008 -21.001)" fill="#fff"/><path d="M154.32,158.647v-.026a.326.326,0,0,1-.046-.147v-.022a2.949,2.949,0,0,0-.288-.445l-.012-.014h-.012a.079.079,0,0,0-.052-.038c-.026-.038-.05-.052-.077-.048a.058.058,0,0,0-.048.042l-.016.048.034.01a.126.126,0,0,0,.012.032.165.165,0,0,0,.03.034h0a.213.213,0,0,1,.024.054c.01.022.018.042.028.062a.344.344,0,0,0,.038.052l.028.038c.062.107.117.215.165.318l.024.06a.549.549,0,0,0,.1.173l.111.113-.03-.159A.448.448,0,0,1,154.32,158.647Z" transform="translate(-56.057 -59.372)" fill="#fff"/><path d="M162.692,194.989c-.038-.046-.076-.091-.111-.139l-.016-.014a.306.306,0,0,1-.078-.081.792.792,0,0,0-.066-.078.131.131,0,0,0-.04-.022h-.014l-.024-.024c-.034-.038-.1-.105-.175-.058l-.05.028.036.046a.46.46,0,0,1,.058.085.658.658,0,0,0,.074.109c.1.113.213.223.322.322a.407.407,0,0,0,.064.048l.034.022.02.018a.135.135,0,0,0,.085.048.076.076,0,0,0,.038-.012l.046-.026-.03-.044A2.29,2.29,0,0,0,162.692,194.989Z" transform="translate(-62.748 -88.739)" fill="#fff"/><path d="M204.454,202h-.018a.188.188,0,0,1-.046,0,.161.161,0,0,0-.125.034l-.046.058.072.018a.509.509,0,0,1,.133.062,1.077,1.077,0,0,0,.107.054l.03.014a1.11,1.11,0,0,0-.2-.058h-.012a.055.055,0,0,0-.06.058v.028l.024.016c.1.068.219.139.332.209l.221.139.03.014.022.01.026.02a.217.217,0,0,0,.121.058.086.086,0,0,0,.038,0l.072-.026-.054-.054a1.945,1.945,0,0,0-.364-.314l.032.018a2.261,2.261,0,0,0,.219.115.6.6,0,0,0,.107.078.4.4,0,0,0,.145.046h.014l.1-.016-.072-.068A1.637,1.637,0,0,0,204.454,202Z" transform="translate(-96.481 -94.703)" fill="#fff"/><path d="M204.618,203.84h-.032a.062.062,0,0,0-.036.048.084.084,0,0,0,.038.066h0l.014.014a.953.953,0,0,0,.105.077.55.55,0,0,1,.111.085l.01.012h.014a.151.151,0,0,1,.062.036.283.283,0,0,0,.091.052.292.292,0,0,0,.167.083h.03l.072-.026-.064-.068A1.129,1.129,0,0,0,204.618,203.84Z" transform="translate(-96.746 -96.177)" fill="#fff"/><path d="M106.9,129.99a23.09,23.09,0,1,1,23.09-23.09A23.09,23.09,0,0,1,106.9,129.99Zm0-44A20.908,20.908,0,1,0,127.808,106.9,20.908,20.908,0,0,0,106.9,85.992Z" fill="#fff"/></g></svg>